<svg width="733" height="57" viewBox="0 0 733 57" fill="none" xmlns="http://www.w3.org/2000/svg">
<path opacity="0.06" d="M62.896 5.8L50.072 45H40.328L31.704 18.456L22.8 45H13.112L0.232 5.8H9.64L18.488 33.352L27.728 5.8H36.128L45.088 33.576L54.216 5.8H62.896ZM94.6143 30.048C94.6143 30.16 94.5583 30.944 94.4463 32.4H71.6543C72.065 34.2667 73.0356 35.7413 74.5663 36.824C76.097 37.9067 78.001 38.448 80.2783 38.448C81.8463 38.448 83.2276 38.224 84.4223 37.776C85.6543 37.2907 86.793 36.544 87.8383 35.536L92.4863 40.576C89.649 43.824 85.505 45.448 80.0543 45.448C76.657 45.448 73.6516 44.7947 71.0383 43.488C68.425 42.144 66.409 40.296 64.9903 37.944C63.5716 35.592 62.8623 32.9227 62.8623 29.936C62.8623 26.9867 63.553 24.336 64.9343 21.984C66.353 19.5947 68.2756 17.7467 70.7023 16.44C73.1663 15.096 75.9103 14.424 78.9343 14.424C81.8836 14.424 84.553 15.0587 86.9423 16.328C89.3316 17.5973 91.1983 19.4267 92.5423 21.816C93.9236 24.168 94.6143 26.912 94.6143 30.048ZM78.9903 21.032C77.0116 21.032 75.3503 21.592 74.0063 22.712C72.6623 23.832 71.841 25.3627 71.5423 27.304H86.3823C86.0836 25.4 85.2623 23.888 83.9183 22.768C82.5743 21.6107 80.9316 21.032 78.9903 21.032ZM134.602 14.424C138.335 14.424 141.34 15.544 143.618 17.784C145.932 20.024 147.09 23.3467 147.09 27.752V45H138.354V29.096C138.354 26.7067 137.831 24.9333 136.786 23.776C135.74 22.5813 134.228 21.984 132.25 21.984C130.047 21.984 128.292 22.6747 126.986 24.056C125.679 25.4 125.026 27.416 125.026 30.104V45H116.29V3.448H125.026V18.008C126.183 16.8507 127.583 15.9733 129.226 15.376C130.868 14.7413 132.66 14.424 134.602 14.424ZM167.161 14.424C171.827 14.424 175.411 15.544 177.913 17.784C180.414 19.9867 181.665 23.328 181.665 27.808V45H173.489V41.248C171.846 44.048 168.785 45.448 164.305 45.448C161.99 45.448 159.974 45.056 158.257 44.272C156.577 43.488 155.289 42.4053 154.393 41.024C153.497 39.6427 153.049 38.0747 153.049 36.32C153.049 33.52 154.094 31.3173 156.185 29.712C158.313 28.1067 161.579 27.304 165.985 27.304H172.929C172.929 25.4 172.35 23.944 171.193 22.936C170.035 21.8907 168.299 21.368 165.985 21.368C164.379 21.368 162.793 21.6293 161.225 22.152C159.694 22.6373 158.387 23.3093 157.305 24.168L154.169 18.064C155.811 16.9067 157.771 16.0107 160.049 15.376C162.363 14.7413 164.734 14.424 167.161 14.424ZM166.489 39.568C167.982 39.568 169.307 39.232 170.465 38.56C171.622 37.8507 172.443 36.824 172.929 35.48V32.4H166.937C163.353 32.4 161.561 33.576 161.561 35.928C161.561 37.048 161.99 37.944 162.849 38.616C163.745 39.2507 164.958 39.568 166.489 39.568ZM218.928 14.872L206.216 45H197.2L184.544 14.872H193.56L201.904 35.368L210.528 14.872H218.928ZM251.185 30.048C251.185 30.16 251.129 30.944 251.017 32.4H228.225C228.635 34.2667 229.606 35.7413 231.137 36.824C232.667 37.9067 234.571 38.448 236.849 38.448C238.417 38.448 239.798 38.224 240.993 37.776C242.225 37.2907 243.363 36.544 244.409 35.536L249.057 40.576C246.219 43.824 242.075 45.448 236.625 45.448C233.227 45.448 230.222 44.7947 227.609 43.488C224.995 42.144 222.979 40.296 221.561 37.944C220.142 35.592 219.433 32.9227 219.433 29.936C219.433 26.9867 220.123 24.336 221.505 21.984C222.923 19.5947 224.846 17.7467 227.273 16.44C229.737 15.096 232.481 14.424 235.505 14.424C238.454 14.424 241.123 15.0587 243.513 16.328C245.902 17.5973 247.769 19.4267 249.113 21.816C250.494 24.168 251.185 26.912 251.185 30.048ZM235.561 21.032C233.582 21.032 231.921 21.592 230.577 22.712C229.233 23.832 228.411 25.3627 228.113 27.304H242.953C242.654 25.4 241.833 23.888 240.489 22.768C239.145 21.6107 237.502 21.032 235.561 21.032ZM311.444 14.424C315.215 14.424 318.201 15.544 320.404 17.784C322.644 19.9867 323.764 23.3093 323.764 27.752V45H315.028V29.096C315.028 26.7067 314.524 24.9333 313.516 23.776C312.545 22.5813 311.145 21.984 309.316 21.984C307.263 21.984 305.639 22.656 304.444 24C303.249 25.3067 302.652 27.2667 302.652 29.88V45H293.916V29.096C293.916 24.3547 292.012 21.984 288.204 21.984C286.188 21.984 284.583 22.656 283.388 24C282.193 25.3067 281.596 27.2667 281.596 29.88V45H272.86V14.872H281.204V18.344C282.324 17.0747 283.687 16.104 285.292 15.432C286.935 14.76 288.727 14.424 290.668 14.424C292.796 14.424 294.719 14.8533 296.436 15.712C298.153 16.5333 299.535 17.7467 300.58 19.352C301.812 17.784 303.361 16.5707 305.228 15.712C307.132 14.8533 309.204 14.424 311.444 14.424ZM346.259 45.448C343.085 45.448 340.229 44.7947 337.691 43.488C335.189 42.144 333.229 40.296 331.811 37.944C330.392 35.592 329.683 32.9227 329.683 29.936C329.683 26.9493 330.392 24.28 331.811 21.928C333.229 19.576 335.189 17.7467 337.691 16.44C340.229 15.096 343.085 14.424 346.259 14.424C349.432 14.424 352.269 15.096 354.771 16.44C357.272 17.7467 359.232 19.576 360.651 21.928C362.069 24.28 362.779 26.9493 362.779 29.936C362.779 32.9227 362.069 35.592 360.651 37.944C359.232 40.296 357.272 42.144 354.771 43.488C352.269 44.7947 349.432 45.448 346.259 45.448ZM346.259 38.28C348.499 38.28 350.328 37.5333 351.747 36.04C353.203 34.5093 353.931 32.4747 353.931 29.936C353.931 27.3973 353.203 25.3813 351.747 23.888C350.328 22.3573 348.499 21.592 346.259 21.592C344.019 21.592 342.171 22.3573 340.715 23.888C339.259 25.3813 338.531 27.3973 338.531 29.936C338.531 32.4747 339.259 34.5093 340.715 36.04C342.171 37.5333 344.019 38.28 346.259 38.28ZM376.962 18.848C378.007 17.392 379.407 16.2907 381.162 15.544C382.954 14.7973 385.007 14.424 387.322 14.424V22.488C386.351 22.4133 385.698 22.376 385.362 22.376C382.861 22.376 380.901 23.0853 379.482 24.504C378.063 25.8853 377.354 27.976 377.354 30.776V45H368.618V14.872H376.962V18.848ZM421.755 30.048C421.755 30.16 421.699 30.944 421.587 32.4H398.795C399.206 34.2667 400.176 35.7413 401.707 36.824C403.238 37.9067 405.142 38.448 407.419 38.448C408.987 38.448 410.368 38.224 411.563 37.776C412.795 37.2907 413.934 36.544 414.979 35.536L419.627 40.576C416.79 43.824 412.646 45.448 407.195 45.448C403.798 45.448 400.792 44.7947 398.179 43.488C395.566 42.144 393.55 40.296 392.131 37.944C390.712 35.592 390.003 32.9227 390.003 29.936C390.003 26.9867 390.694 24.336 392.075 21.984C393.494 19.5947 395.416 17.7467 397.843 16.44C400.307 15.096 403.051 14.424 406.075 14.424C409.024 14.424 411.694 15.0587 414.083 16.328C416.472 17.5973 418.339 19.4267 419.683 21.816C421.064 24.168 421.755 26.912 421.755 30.048ZM406.131 21.032C404.152 21.032 402.491 21.592 401.147 22.712C399.803 23.832 398.982 25.3627 398.683 27.304H413.523C413.224 25.4 412.403 23.888 411.059 22.768C409.715 21.6107 408.072 21.032 406.131 21.032ZM455.022 20.528C460.548 20.528 464.617 21.6293 467.23 23.832C469.881 26.0347 471.206 28.984 471.206 32.68C471.206 35.0693 470.609 37.2533 469.414 39.232C468.22 41.1733 466.39 42.7413 463.926 43.936C461.5 45.0933 458.494 45.672 454.91 45.672C452.148 45.672 449.422 45.3173 446.734 44.608C444.084 43.8613 441.825 42.816 439.958 41.472L443.542 34.528C445.036 35.648 446.753 36.5253 448.694 37.16C450.636 37.7573 452.633 38.056 454.686 38.056C456.964 38.056 458.756 37.608 460.062 36.712C461.369 35.816 462.022 34.5653 462.022 32.96C462.022 31.28 461.332 30.0107 459.95 29.152C458.606 28.2933 456.254 27.864 452.894 27.864H442.87L444.886 5.8H468.798V13.08H452.446L451.83 20.528H455.022ZM493.759 20.416C496.26 20.416 498.538 20.92 500.591 21.928C502.644 22.936 504.268 24.3733 505.463 26.24C506.658 28.0693 507.255 30.1973 507.255 32.624C507.255 35.2373 506.602 37.5333 505.295 39.512C503.988 41.4907 502.196 43.0213 499.919 44.104C497.679 45.1493 495.178 45.672 492.415 45.672C486.927 45.672 482.634 43.992 479.535 40.632C476.436 37.272 474.887 32.4747 474.887 26.24C474.887 21.7973 475.727 17.9893 477.407 14.816C479.087 11.6427 481.42 9.23467 484.407 7.592C487.431 5.94933 490.922 5.128 494.879 5.128C496.97 5.128 498.967 5.37067 500.871 5.856C502.812 6.304 504.455 6.95733 505.799 7.816L502.439 14.48C500.498 13.1733 498.052 12.52 495.103 12.52C491.78 12.52 489.148 13.4907 487.207 15.432C485.266 17.3733 484.22 20.192 484.071 23.888C486.386 21.5733 489.615 20.416 493.759 20.416ZM491.911 38.896C493.852 38.896 495.42 38.3733 496.615 37.328C497.847 36.2827 498.463 34.864 498.463 33.072C498.463 31.28 497.847 29.8613 496.615 28.816C495.42 27.7333 493.815 27.192 491.799 27.192C489.82 27.192 488.196 27.752 486.927 28.872C485.658 29.9547 485.023 31.3547 485.023 33.072C485.023 34.7893 485.639 36.1893 486.871 37.272C488.103 38.3547 489.783 38.896 491.911 38.896ZM546.059 14.424C548.859 14.424 551.397 15.0773 553.675 16.384C555.989 17.6533 557.8 19.464 559.107 21.816C560.413 24.1307 561.067 26.8373 561.067 29.936C561.067 33.0347 560.413 35.76 559.107 38.112C557.8 40.4267 555.989 42.2373 553.675 43.544C551.397 44.8133 548.859 45.448 546.059 45.448C542.213 45.448 539.189 44.2347 536.987 41.808V55.864H528.251V14.872H536.595V18.344C538.76 15.7307 541.915 14.424 546.059 14.424ZM544.547 38.28C546.787 38.28 548.616 37.5333 550.035 36.04C551.491 34.5093 552.219 32.4747 552.219 29.936C552.219 27.3973 551.491 25.3813 550.035 23.888C548.616 22.3573 546.787 21.592 544.547 21.592C542.307 21.592 540.459 22.3573 539.003 23.888C537.584 25.3813 536.875 27.3973 536.875 29.936C536.875 32.4747 537.584 34.5093 539.003 36.04C540.459 37.5333 542.307 38.28 544.547 38.28ZM575.259 18.848C576.304 17.392 577.704 16.2907 579.459 15.544C581.251 14.7973 583.304 14.424 585.619 14.424V22.488C584.648 22.4133 583.995 22.376 583.659 22.376C581.157 22.376 579.197 23.0853 577.779 24.504C576.36 25.8853 575.651 27.976 575.651 30.776V45H566.915V14.872H575.259V18.848ZM604.876 45.448C601.702 45.448 598.846 44.7947 596.308 43.488C593.806 42.144 591.846 40.296 590.428 37.944C589.009 35.592 588.3 32.9227 588.3 29.936C588.3 26.9493 589.009 24.28 590.428 21.928C591.846 19.576 593.806 17.7467 596.308 16.44C598.846 15.096 601.702 14.424 604.876 14.424C608.049 14.424 610.886 15.096 613.388 16.44C615.889 17.7467 617.849 19.576 619.268 21.928C620.686 24.28 621.396 26.9493 621.396 29.936C621.396 32.9227 620.686 35.592 619.268 37.944C617.849 40.296 615.889 42.144 613.388 43.488C610.886 44.7947 608.049 45.448 604.876 45.448ZM604.876 38.28C607.116 38.28 608.945 37.5333 610.364 36.04C611.82 34.5093 612.548 32.4747 612.548 29.936C612.548 27.3973 611.82 25.3813 610.364 23.888C608.945 22.3573 607.116 21.592 604.876 21.592C602.636 21.592 600.788 22.3573 599.332 23.888C597.876 25.3813 597.148 27.3973 597.148 29.936C597.148 32.4747 597.876 34.5093 599.332 36.04C600.788 37.5333 602.636 38.28 604.876 38.28ZM624.995 56.312C621.934 56.312 619.6 55.752 617.995 54.632L620.347 48.304C621.355 49.0133 622.587 49.368 624.043 49.368C625.163 49.368 626.04 48.9947 626.675 48.248C627.31 47.5387 627.627 46.456 627.627 45V14.872H636.363V44.944C636.363 48.4533 635.355 51.216 633.339 53.232C631.36 55.2853 628.579 56.312 624.995 56.312ZM631.995 10.672C630.39 10.672 629.083 10.2053 628.075 9.272C627.067 8.33866 626.563 7.18133 626.563 5.8C626.563 4.41866 627.067 3.26133 628.075 2.328C629.083 1.39466 630.39 0.927997 631.995 0.927997C633.6 0.927997 634.907 1.376 635.915 2.272C636.923 3.168 637.427 4.288 637.427 5.632C637.427 7.088 636.923 8.30133 635.915 9.272C634.907 10.2053 633.6 10.672 631.995 10.672ZM673.919 30.048C673.919 30.16 673.863 30.944 673.751 32.4H650.959C651.37 34.2667 652.34 35.7413 653.871 36.824C655.402 37.9067 657.306 38.448 659.583 38.448C661.151 38.448 662.532 38.224 663.727 37.776C664.959 37.2907 666.098 36.544 667.143 35.536L671.791 40.576C668.954 43.824 664.81 45.448 659.359 45.448C655.962 45.448 652.956 44.7947 650.343 43.488C647.73 42.144 645.714 40.296 644.295 37.944C642.876 35.592 642.167 32.9227 642.167 29.936C642.167 26.9867 642.858 24.336 644.239 21.984C645.658 19.5947 647.58 17.7467 650.007 16.44C652.471 15.096 655.215 14.424 658.239 14.424C661.188 14.424 663.858 15.0587 666.247 16.328C668.636 17.5973 670.503 19.4267 671.847 21.816C673.228 24.168 673.919 26.912 673.919 30.048ZM658.295 21.032C656.316 21.032 654.655 21.592 653.311 22.712C651.967 23.832 651.146 25.3627 650.847 27.304H665.687C665.388 25.4 664.567 23.888 663.223 22.768C661.879 21.6107 660.236 21.032 658.295 21.032ZM694.295 45.448C691.084 45.448 688.191 44.7947 685.615 43.488C683.076 42.144 681.079 40.296 679.623 37.944C678.204 35.592 677.495 32.9227 677.495 29.936C677.495 26.9493 678.204 24.28 679.623 21.928C681.079 19.576 683.076 17.7467 685.615 16.44C688.191 15.096 691.084 14.424 694.295 14.424C697.468 14.424 700.231 15.096 702.583 16.44C704.972 17.7467 706.708 19.632 707.791 22.096L701.015 25.736C699.447 22.9733 697.188 21.592 694.239 21.592C691.962 21.592 690.076 22.3387 688.583 23.832C687.09 25.3253 686.343 27.36 686.343 29.936C686.343 32.512 687.09 34.5467 688.583 36.04C690.076 37.5333 691.962 38.28 694.239 38.28C697.226 38.28 699.484 36.8987 701.015 34.136L707.791 37.832C706.708 40.2213 704.972 42.088 702.583 43.432C700.231 44.776 697.468 45.448 694.295 45.448ZM732.691 43.544C731.832 44.1787 730.768 44.664 729.499 45C728.267 45.2987 726.96 45.448 725.579 45.448C721.995 45.448 719.213 44.5333 717.235 42.704C715.293 40.8747 714.323 38.1867 714.323 34.64V22.264H709.675V15.544H714.323V8.208H723.059V15.544H730.563V22.264H723.059V34.528C723.059 35.7973 723.376 36.7867 724.011 37.496C724.683 38.168 725.616 38.504 726.811 38.504C728.192 38.504 729.368 38.1307 730.339 37.384L732.691 43.544Z" fill="white"/>
</svg>
