<svg width="48" height="10" viewBox="0 0 48 10" fill="none" xmlns="http://www.w3.org/2000/svg">
<path d="M5.48834 9C5.43878 8.79352 5.32728 8.68202 5.15383 8.6655H4.31138V1.90109H4.52199C5.11666 1.90109 5.53789 2.16539 5.78567 2.69399C5.83523 2.80962 5.88891 2.9459 5.94673 3.10283L6.33079 4.21784H6.70246L6.6529 1.56659H0.235391L0.185835 4.21784H0.557506L0.941565 3.10283C1.12327 2.57423 1.35866 2.22734 1.64774 2.06215C1.84596 1.95478 2.08548 1.90109 2.3663 1.90109H2.57692V8.6655H1.39996V9H5.48834ZM9.75016 8.67789H9.44043V5.70452C9.44043 4.9777 9.66343 4.49453 10.1094 4.25501C10.2498 4.18067 10.3861 4.1435 10.5183 4.1435C11.0221 4.1435 11.3029 4.45323 11.3607 5.07268C11.369 5.13876 11.3731 5.21309 11.3731 5.29568V8.03366C11.3731 8.36403 11.3236 8.55812 11.2245 8.61594C11.1419 8.65724 11.0304 8.67789 10.8899 8.67789V9H13.6651C13.6651 8.81004 13.6114 8.70679 13.504 8.69027C13.4545 8.68202 13.4049 8.67789 13.3554 8.67789H12.9465V5.5063C12.9465 4.47388 12.579 3.83378 11.8439 3.586C11.6622 3.51992 11.464 3.48689 11.2492 3.48689C10.5802 3.48689 10.0475 3.74293 9.65105 4.25501C9.56845 4.37064 9.49825 4.48627 9.44043 4.6019V0.947138H7.13608V1.26925H7.86703V8.03366C7.86703 8.42185 7.68119 8.63246 7.30952 8.6655C7.25171 8.67376 7.19389 8.67789 7.13608 8.67789V9H10.0475C10.0475 8.81004 9.99381 8.70679 9.88644 8.69027C9.84514 8.68202 9.79971 8.67789 9.75016 8.67789ZM16.9977 3.809C17.5263 3.82552 17.7948 4.27565 17.803 5.1594C17.803 5.54759 17.6874 5.78711 17.4561 5.87797C17.2909 5.93578 17.0432 5.95643 16.7128 5.93991L15.9199 5.90275C15.9777 4.53169 16.337 3.83378 16.9977 3.809ZM19.3145 7.72393L19.0171 7.62482C18.7859 8.12864 18.4225 8.4714 17.9269 8.65311C17.7287 8.72744 17.5263 8.76461 17.3198 8.76461C16.6591 8.76461 16.2337 8.34338 16.0438 7.50093C15.9694 7.15404 15.9281 6.74107 15.9199 6.26203L17.0597 6.29919C18.3894 6.34049 19.1617 6.12988 19.3764 5.66735C19.426 5.55172 19.4508 5.4237 19.4508 5.28329C19.4508 4.58125 19.0915 4.06917 18.3729 3.74706C17.9682 3.57361 17.5098 3.48689 16.9977 3.48689C16.0644 3.48689 15.3376 3.80487 14.8173 4.44084C14.4208 4.9364 14.2226 5.55172 14.2226 6.2868C14.2226 7.48441 14.6727 8.3186 15.573 8.78939C16.0025 9.01239 16.4898 9.12389 17.0349 9.12389C18.0012 9.12389 18.695 8.78526 19.1163 8.10799C19.1989 7.9841 19.2649 7.85608 19.3145 7.72393ZM26.5992 9V8.6655H25.1373V5.35763H27.516V4.98596H25.1373V1.90109H26.5373C27.2806 1.90109 27.7721 2.28928 28.0116 3.06566C28.0198 3.07392 28.024 3.08218 28.024 3.09044L28.2965 4.00723H28.6558L28.6062 1.56659H22.4117V1.90109H23.4029V8.6655H22.4117V9H26.5992ZM31.7778 8.67789H31.3194V3.67272H29.0275V3.99484H29.746V8.03366C29.746 8.39707 29.6015 8.60355 29.3124 8.65311C29.2298 8.66963 29.1348 8.67789 29.0275 8.67789V9H32.0752C32.0752 8.81004 32.0215 8.70679 31.9141 8.69027C31.8728 8.68202 31.8274 8.67789 31.7778 8.67789ZM31.4309 2.04976C31.4309 1.68635 31.2699 1.41792 30.9478 1.24447C30.8074 1.16188 30.6587 1.12058 30.5018 1.12058C30.1466 1.12058 29.8782 1.28164 29.6965 1.60376C29.6221 1.74416 29.585 1.89283 29.585 2.04976C29.585 2.41317 29.746 2.67747 30.0681 2.84266C30.2086 2.91699 30.3531 2.95416 30.5018 2.95416C30.8652 2.95416 31.1336 2.80136 31.3071 2.49576C31.3896 2.35536 31.4309 2.20669 31.4309 2.04976ZM35.7795 8.67789H34.8627V6.00186C34.9205 5.13463 35.1311 4.60603 35.4945 4.41606C35.5524 4.39128 35.606 4.3789 35.6556 4.3789C35.7465 4.3789 35.8456 4.47388 35.9529 4.66384C36.1016 4.92814 36.2627 5.09333 36.4361 5.1594C36.5187 5.18418 36.6096 5.19657 36.7087 5.19657C37.039 5.19657 37.2744 5.03964 37.4148 4.72579C37.4644 4.61842 37.4892 4.50692 37.4892 4.39128C37.4892 3.97832 37.2868 3.71815 36.8821 3.61078C36.783 3.586 36.6798 3.57361 36.5724 3.57361C36.0603 3.57361 35.6102 3.77596 35.222 4.18067C35.0485 4.3789 34.9164 4.59364 34.8255 4.8249L34.7388 3.67272H32.5707V3.99484H33.2893V8.03366C33.2893 8.39707 33.1448 8.60355 32.8557 8.65311C32.7731 8.66963 32.6781 8.67789 32.5707 8.67789V9H36.0768C36.0768 8.81004 36.0231 8.70679 35.9158 8.69027C35.8745 8.68202 35.829 8.67789 35.7795 8.67789ZM39.9794 8.777C40.5327 8.777 40.8507 8.57877 40.9333 8.18232C40.9416 8.12451 40.9457 8.07082 40.9457 8.02127C40.9457 7.60004 40.6814 7.24902 40.1528 6.9682C40.0372 6.90213 39.8513 6.8154 39.5953 6.70803C38.9759 6.43547 38.567 6.18356 38.3688 5.9523C38.154 5.70452 38.0467 5.41131 38.0467 5.07268C38.0467 4.37064 38.4307 3.89572 39.1989 3.64794C39.521 3.54057 39.8803 3.48689 40.2767 3.48689C40.9209 3.48689 41.4248 3.60252 41.7882 3.83378C41.7882 3.586 41.8625 3.44972 42.0112 3.42494C42.0442 3.41668 42.0772 3.41255 42.1103 3.41255V4.96118H41.7138C41.6808 4.20958 41.272 3.82965 40.4873 3.82139C39.9587 3.82139 39.6325 3.99484 39.5086 4.34173C39.4838 4.42432 39.4714 4.50692 39.4714 4.58951C39.4714 4.94466 39.7192 5.24613 40.2148 5.49391C40.3139 5.55172 40.4791 5.63019 40.7103 5.7293C41.3545 6.01838 41.784 6.28268 41.9988 6.5222C42.2466 6.80301 42.3704 7.13752 42.3704 7.52571C42.3704 8.24427 41.9988 8.72744 41.2554 8.97522C40.9498 9.07433 40.6071 9.12389 40.2271 9.12389C39.5003 9.12389 38.8891 8.99587 38.3936 8.73983C38.3936 8.95457 38.3399 9.07846 38.2325 9.1115C38.183 9.11976 38.1251 9.12389 38.0591 9.12389V7.24076H38.4803C38.4968 8.25666 38.9965 8.76874 39.9794 8.777ZM42.928 4.05678H43.7828V7.15404C43.7828 8.35164 44.2784 9.00826 45.2695 9.12389C45.3686 9.13215 45.4677 9.13628 45.5668 9.13628C46.2028 9.13628 46.6405 8.9298 46.88 8.51683C46.9957 8.31034 47.0865 8.03779 47.1526 7.69915L46.8181 7.6496C46.6529 8.3186 46.4093 8.68614 46.0872 8.75222C46.0376 8.76048 45.988 8.76461 45.9385 8.76461C45.6329 8.76461 45.4471 8.54987 45.381 8.12038C45.3645 8.02127 45.3562 7.91803 45.3562 7.81065V4.05678H46.9915V3.73467H45.3562V2.29754L43.7828 2.55771V3.73467H42.928V4.05678Z" fill="white"/>
</svg>
