<?xml version="1.0" standalone="no"?>
<!DOCTYPE svg PUBLIC "-//W3C//DTD SVG 1.1//EN" "http://www.w3.org/Graphics/SVG/1.1/DTD/svg11.dtd" >
<svg>
<metadata>
Created by FontForge 20090914 at Sat Sep  3 14:11:37 2022
 By www-data
Copyright &#194;&#169; 2017 by Good Type Foundry Kenneth Knutsen. All rights reserved.
</metadata>
<defs>
<font id="Adieu-Regular" horiz-adv-x="716" >
  <font-face 
    font-family="Adieu"
    font-weight="400"
    font-stretch="normal"
    units-per-em="1000"
    panose-1="0 0 5 0 0 0 0 0 0 0"
    ascent="800"
    descent="-200"
    x-height="500"
    cap-height="700"
    bbox="-1050 -532.002 1698 1021"
    underline-thickness="50"
    underline-position="-50"
    unicode-range="U+0020-U+25CA"
  />
<missing-glyph horiz-adv-x="843" 
d="M422 -11c-100.667 0 -186.167 35.667 -256.5 107s-105.5 156.333 -105.5 255c0 98 35.5 182.667 106.5 254s156.167 107 255.5 107c98 0 182.667 -35.333 254 -106s107 -155.667 107 -255c0 -100 -35.667 -185.333 -107 -256s-156 -106 -254 -106zM422 63
c79.333 0 147 28 203 84s84 124 84 204s-28 147.833 -84 203.5s-123.667 83.5 -203 83.5c-80 0 -148 -27.833 -204 -83.5s-84 -123.5 -84 -203.5s28 -148 84 -204s124 -84 204 -84zM329 394c-18.667 0 -34.334 6.16699 -47.001 18.5s-19 27.5 -19 45.5
c0 17.333 6.33301 32.166 19 44.499s28.334 18.5 47.001 18.5c17.333 0 32.333 -6.16699 45 -18.5s19 -27.166 19 -44.499c0 -18 -6.33301 -33.167 -19 -45.5s-27.667 -18.5 -45 -18.5zM521 394c-18 0 -33 6.16699 -45 18.5s-18 27.5 -18 45.5c0 17.333 6 32.166 18 44.499
s27 18.5 45 18.5s33.333 -6.16699 46 -18.5s19 -27.166 19 -44.499c0 -18 -6.33301 -33.167 -19 -45.5s-28 -18.5 -46 -18.5zM422 151c-62.667 0 -114.667 17.168 -156 51.501s-62 79.833 -62 136.5l64 9c2.66699 -30.667 16 -57.334 40 -80.001s62 -34 114 -34
c51.333 0 89.5 11.5 114.5 34.5s38.167 49.5 39.5 79.5l63 -9c0 -56.667 -21 -102.167 -63 -136.5s-93.333 -51.5 -154 -51.5z" />
    <glyph glyph-name="GoodTypeFoundry" unicode="GoodTypeFoundry" horiz-adv-x="843" 
d="M422 -11c-100.667 0 -186.167 35.667 -256.5 107s-105.5 156.333 -105.5 255c0 98 35.5 182.667 106.5 254s156.167 107 255.5 107c98 0 182.667 -35.333 254 -106s107 -155.667 107 -255c0 -100 -35.667 -185.333 -107 -256s-156 -106 -254 -106zM422 63
c79.333 0 147 28 203 84s84 124 84 204s-28 147.833 -84 203.5s-123.667 83.5 -203 83.5c-80 0 -148 -27.833 -204 -83.5s-84 -123.5 -84 -203.5s28 -148 84 -204s124 -84 204 -84zM329 394c-18.667 0 -34.334 6.16699 -47.001 18.5s-19 27.5 -19 45.5
c0 17.333 6.33301 32.166 19 44.499s28.334 18.5 47.001 18.5c17.333 0 32.333 -6.16699 45 -18.5s19 -27.166 19 -44.499c0 -18 -6.33301 -33.167 -19 -45.5s-27.667 -18.5 -45 -18.5zM521 394c-18 0 -33 6.16699 -45 18.5s-18 27.5 -18 45.5c0 17.333 6 32.166 18 44.499
s27 18.5 45 18.5s33.333 -6.16699 46 -18.5s19 -27.166 19 -44.499c0 -18 -6.33301 -33.167 -19 -45.5s-28 -18.5 -46 -18.5zM422 151c-62.667 0 -114.667 17.168 -156 51.501s-62 79.833 -62 136.5l64 9c2.66699 -30.667 16 -57.334 40 -80.001s62 -34 114 -34
c51.333 0 89.5 11.5 114.5 34.5s38.167 49.5 39.5 79.5l63 -9c0 -56.667 -21 -102.167 -63 -136.5s-93.333 -51.5 -154 -51.5z" />
    <glyph glyph-name=".notdef" horiz-adv-x="843" 
d="M422 -11c-100.667 0 -186.167 35.667 -256.5 107s-105.5 156.333 -105.5 255c0 98 35.5 182.667 106.5 254s156.167 107 255.5 107c98 0 182.667 -35.333 254 -106s107 -155.667 107 -255c0 -100 -35.667 -185.333 -107 -256s-156 -106 -254 -106zM422 63
c79.333 0 147 28 203 84s84 124 84 204s-28 147.833 -84 203.5s-123.667 83.5 -203 83.5c-80 0 -148 -27.833 -204 -83.5s-84 -123.5 -84 -203.5s28 -148 84 -204s124 -84 204 -84zM329 394c-18.667 0 -34.334 6.16699 -47.001 18.5s-19 27.5 -19 45.5
c0 17.333 6.33301 32.166 19 44.499s28.334 18.5 47.001 18.5c17.333 0 32.333 -6.16699 45 -18.5s19 -27.166 19 -44.499c0 -18 -6.33301 -33.167 -19 -45.5s-27.667 -18.5 -45 -18.5zM521 394c-18 0 -33 6.16699 -45 18.5s-18 27.5 -18 45.5c0 17.333 6 32.166 18 44.499
s27 18.5 45 18.5s33.333 -6.16699 46 -18.5s19 -27.166 19 -44.499c0 -18 -6.33301 -33.167 -19 -45.5s-28 -18.5 -46 -18.5zM422 151c-62.667 0 -114.667 17.168 -156 51.501s-62 79.833 -62 136.5l64 9c2.66699 -30.667 16 -57.334 40 -80.001s62 -34 114 -34
c51.333 0 89.5 11.5 114.5 34.5s38.167 49.5 39.5 79.5l63 -9c0 -56.667 -21 -102.167 -63 -136.5s-93.333 -51.5 -154 -51.5z" />
    <glyph glyph-name="space" unicode=" " horiz-adv-x="300" 
 />
    <glyph glyph-name="exclam" unicode="!" horiz-adv-x="286" 
d="M215 294h-143l-10 406h163zM143 -14c-24.667 0 -45.335 7.5 -62.002 22.5s-25 34.5 -25 58.5s8.33301 43.667 25 59s37.334 23 62.001 23s45.334 -7.66699 62.001 -23s25 -35 25 -59s-8 -43.5 -24 -58.5s-37 -22.5 -63 -22.5z" />
    <glyph glyph-name="quotedbl" unicode="&#x22;" horiz-adv-x="386" 
d="M135 430h-88l-17 270h138zM323 430h-87l-17 270h137z" />
    <glyph glyph-name="numbersign" unicode="#" horiz-adv-x="1009" 
d="M979 500l-16 -101h-152l-25 -115h159l-16 -101h-165l-39 -183h-145l39 183h-279l-39 -183h-145l39 183h-165l16 101h171l25 115h-178l16 101h184l43 200h145l-43 -200h279l43 200h145l-43 -200h146zM362 284h279l25 115h-279z" />
    <glyph glyph-name="dollar" unicode="$" horiz-adv-x="863" 
d="M826 207c0 -63.333 -27.334 -113.836 -82.001 -151.503s-131 -60.5 -229 -68.5v-97h-176v99c-92.667 11.333 -165.334 38.166 -218.001 80.499s-78.667 94.5 -78 156.5h158c-0.666992 -34.667 19.166 -62.5 59.499 -83.5s96.166 -31.5 167.499 -31.5
c164.667 0 247 30 247 90c0 24.667 -11.333 43.334 -34 56.001s-52 20.834 -88 24.501s-75.667 6.16699 -119 7.5s-86.833 4.5 -130.5 9.5s-83.5 13.333 -119.5 25s-65.333 31.834 -88 60.501s-34 65.334 -34 110.001c0 59.333 24.833 107.833 74.5 145.5
s117.167 61.5 202.5 71.5v124h176v-124c90.667 -10 162.5 -36.167 215.5 -78.5s79.833 -95.166 80.5 -158.499h-154c0.666992 35.333 -18.833 63.333 -58.5 84s-93.834 31 -162.501 31c-148 0 -222 -28 -222 -84c0 -22.667 11.333 -40.167 34 -52.5
s51.834 -20.333 87.501 -24s75.334 -6.33398 119.001 -8.00098s87.334 -5.5 131.001 -11.5s83.334 -15.333 119.001 -28s64.834 -33.667 87.501 -63s34 -66.333 34 -111z" />
    <glyph glyph-name="percent" unicode="%" horiz-adv-x="1039" 
d="M259 460c-57.333 0 -106.5 11.667 -147.5 35s-61.5 53.333 -61.5 90s20.5 66.667 61.5 90s90.167 35 147.5 35c62 0 112.333 -11.5 151 -34.5s58 -53.167 58 -90.5s-19.333 -67.5 -58 -90.5s-89 -34.5 -151 -34.5zM238 0h-128l701 700h128zM259 509
c30 0 54.333 6.66699 73 20s28 31.333 28 54c0 24 -9.33301 43 -28 57s-43 21 -73 21s-54.167 -6.83301 -72.5 -20.5s-27.5 -32.167 -27.5 -55.5s9.16699 -41.833 27.5 -55.5s42.5 -20.5 72.5 -20.5zM781 -11c-57.333 0 -106.5 11.667 -147.5 35s-61.5 53.333 -61.5 90
s20.5 66.667 61.5 90s90.167 35 147.5 35c62 0 112.333 -11.5 151 -34.5s58 -53.167 58 -90.5s-19.333 -67.5 -58 -90.5s-89 -34.5 -151 -34.5zM781 39c30 0 54.167 6.66602 72.5 19.999s27.5 31 27.5 53c0 24 -9 43 -27 57s-42.333 21 -73 21
c-30 0 -54.167 -6.83301 -72.5 -20.5s-27.5 -32.167 -27.5 -55.5s9.16699 -41.666 27.5 -54.999s42.5 -20 72.5 -20z" />
    <glyph glyph-name="ampersand" unicode="&#x26;" horiz-adv-x="922" 
d="M365 -12c-27.333 0 -53.999 1.50098 -79.999 4.50098s-54.333 9.16699 -85 18.5s-57.334 21.333 -80.001 36s-41.667 35.167 -57 61.5s-23 56.5 -23 90.5c0 58 24 106.167 72 144.5s108 57.5 180 57.5l-189 188v111h625v-137h-402l324 -320
c54 48.667 96.333 102.667 127 162l96 -107c-32 -58.667 -72 -110.334 -120 -155.001l146 -143h-203l-59 59c-88 -47.333 -178.667 -71 -272 -71zM372.001 122.001c54.667 0 108 13.333 160 40l-185 184c-48 7.33301 -90 1.83301 -126 -16.5s-54 -44.5 -54 -78.5
c0 -86 68.333 -129 205 -129z" />
    <glyph glyph-name="quotesingle" unicode="'" horiz-adv-x="198" 
d="M135 430h-88l-17 270h138z" />
    <glyph glyph-name="parenleft" unicode="(" horiz-adv-x="470" 
d="M420 -12v-124.998c-115.333 0.666992 -205.833 45.167 -271.5 133.5s-98.5 206.166 -98.5 353.499s32.833 265.166 98.5 353.499s156.167 132.833 271.5 133.5v-125c-75.333 -0.666992 -135.833 -34 -181.5 -100s-68.5 -153.333 -68.5 -262s22.833 -196 68.5 -262
s106.167 -99.333 181.5 -100z" />
    <glyph glyph-name="parenright" unicode=")" horiz-adv-x="470" 
d="M50 -137v124.998c78 0.666992 139.167 32.667 183.5 96s66.5 152 66.5 266s-22.167 202.667 -66.5 266s-105.5 95.333 -183.5 96v125c115.333 -0.666992 205.833 -45.167 271.5 -133.5s98.5 -206.166 98.5 -353.499s-32.833 -265.166 -98.5 -353.499
s-156.167 -132.833 -271.5 -133.5z" />
    <glyph glyph-name="asterisk" unicode="*" horiz-adv-x="615" 
d="M366 194h-118l33 195l-128 -158l-83 75l174 117l-214 -30v108l214 -30l-174 117l83 76l128 -159l-33 195h118l-32 -195l128 159l83 -76l-175 -117l215 30v-108l-215 30l175 -117l-83 -75l-128 158z" />
    <glyph glyph-name="plus" unicode="+" horiz-adv-x="580" 
d="M351 71h-121l-1 199h-199v121h199v200h121l1 -200h199v-121h-199v-199z" />
    <glyph glyph-name="comma" unicode="," horiz-adv-x="254" 
d="M111 -169h-81l63 270h131z" />
    <glyph glyph-name="hyphen" unicode="-" horiz-adv-x="460" 
d="M430 270h-400v121h400v-121z" />
    <glyph glyph-name="period" unicode="." horiz-adv-x="259" 
d="M129 -14c-24.667 0 -45.166 7.5 -61.499 22.5s-24.5 34.5 -24.5 58.5s8.16699 43.667 24.5 59s36.833 23 61.5 23c25.333 0 46.166 -7.66699 62.499 -23s24.5 -35 24.5 -59s-8 -43.5 -24 -58.5s-37 -22.5 -63 -22.5z" />
    <glyph glyph-name="slash" unicode="/" horiz-adv-x="1037" 
d="M175 0h-145l832 700h145z" />
    <glyph glyph-name="zero" unicode="0" horiz-adv-x="971" 
d="M485 -16c-135.333 0 -242.833 33.333 -322.5 100s-119.5 155.334 -119.5 266.001s39.833 199.334 119.5 266.001s187.167 100 322.5 100c136 0 243.833 -33.333 323.5 -100s119.5 -155.334 119.5 -266.001s-39.833 -199.334 -119.5 -266.001s-187.5 -100 -323.5 -100z
M485 111c90 0 161.333 21.167 214 63.5s79 100.833 79 175.5s-26.333 133.167 -79 175.5s-124 63.5 -214 63.5c-89.333 0 -160.166 -21.167 -212.499 -63.5s-78.5 -100.833 -78.5 -175.5s26.167 -133.167 78.5 -175.5s123.166 -63.5 212.499 -63.5z" />
    <glyph glyph-name="one" unicode="1" horiz-adv-x="611" 
d="M524 0h-150v563l-338 -216v149l398 204h90v-700z" />
    <glyph glyph-name="two" unicode="2" horiz-adv-x="848" 
d="M782 0l-730.998 0.000976562v88c1.33301 36 13 68.833 35 98.5s50.333 54.334 85 74.001s73 37.5 115 53.5s83.667 30.167 125 42.5s79.166 24.5 113.499 36.5s62.166 25.5 83.499 40.5s32 31.5 32 49.5c0 37.333 -18.333 64 -55 80s-97.334 24 -182.001 24
c-62.667 0 -125.834 -6.16699 -189.501 -18.5s-110.167 -25.833 -139.5 -40.5v133c35.333 16 86 29 152 39s134 15 204 15c124.667 0 217.334 -15.833 278.001 -47.5s91 -83.5 91 -155.5c0 -38 -9.66699 -72.167 -29 -102.5s-44.666 -54.833 -75.999 -73.5
s-66.333 -35.334 -105 -50.001s-78.167 -27.667 -118.5 -39l-113 -33c-35 -10.667 -66 -23.334 -93 -38.001s-44.833 -31 -53.5 -49h571v-127z" />
    <glyph glyph-name="three" unicode="3" horiz-adv-x="827" 
d="M391 -16c-65.333 0 -130.666 5.00293 -195.999 15.0029s-118.333 24 -159 42v132c32.667 -17.333 83.167 -32 151.5 -44s128.833 -18 181.5 -18c186.667 0 280 26 280 78c0 36.667 -33 63 -99 79s-182.333 25 -349 27v112c114.667 5.33301 202.5 11.666 263.5 18.999
s103.667 16.833 128 28.5s36.5 27.167 36.5 46.5c0 59.333 -87 89 -261 89c-50 0 -109.333 -6.33301 -178 -19s-120 -27 -154 -43v131c39.333 18 92.833 32.167 160.5 42.5s128.167 15.5 181.5 15.5c125.333 0 222.166 -14.833 290.499 -44.5s102.5 -78.834 102.5 -147.501
c0 -112 -100 -168.667 -300 -170v-4c60 0 112.833 -5 158.5 -15s84 -28.167 115 -54.5s46.5 -59.833 46.5 -100.5c0 -132.667 -133.333 -198.334 -400 -197.001z" />
    <glyph glyph-name="four" unicode="4" horiz-adv-x="871" 
d="M748 0h-151v122h-581v95l494 483h238v-451h101v-127h-101v-122zM597 614l-372 -365h372v365z" />
    <glyph glyph-name="five" unicode="5" horiz-adv-x="815" 
d="M373 -16c-132 0 -239.998 19.333 -323.998 58v140c87.333 -46.667 197.333 -70 330 -70c74.667 0 133.167 9.66699 175.5 29s63.5 47 63.5 83c0 75.333 -76 113 -228 113c-38.667 0 -83.334 -5.83301 -134.001 -17.5s-95.667 -26.167 -135 -43.5l-72 67l49 357h645v-127
h-531l-33 -164c63.333 30 154.666 45 273.999 45c96 0 172.5 -19 229.5 -57s85.5 -96.333 85.5 -175c0 -74.667 -35.167 -133 -105.5 -175s-166.833 -63 -289.5 -63z" />
    <glyph glyph-name="six" unicode="6" horiz-adv-x="862" 
d="M453 -12c-126.667 0 -226.67 31.332 -300.003 93.999s-110 156 -110 280c0 112 39 198.833 117 260.5s185.333 92.5 322 92.5c110 0 204.333 -19.333 283 -58v-140c-83.333 47.333 -180.666 71 -291.999 71c-87.333 0 -155.666 -20 -204.999 -60s-74 -96.333 -74 -169
c43.333 36 92.5 61.833 147.5 77.5s107.833 23.5 158.5 23.5c106 0 185.667 -21.667 239 -65s80 -101 80 -173c0 -71.333 -32.167 -128.166 -96.5 -170.499s-154.166 -63.5 -269.499 -63.5zM443.997 114.999c69.333 0 124.002 10.168 164.002 30.501s60 48.833 60 85.5
c0 77.333 -64.333 116 -193 116c-46.667 0 -95.834 -8.83301 -147.501 -26.5s-91.167 -40.167 -118.5 -67.5c13.333 -42.667 40.666 -76.334 81.999 -101.001s92.333 -37 153 -37z" />
    <glyph glyph-name="seven" unicode="7" horiz-adv-x="820" 
d="M327 0h-198l461 573h-577v127h791v-63z" />
    <glyph glyph-name="eight" unicode="8" horiz-adv-x="853" 
d="M36 183c0 44.667 20.1699 80.5 60.5029 107.5s92.833 44.5 157.5 52.5v3c-58.667 12 -106.334 32.833 -143.001 62.5s-55 67.167 -55 112.5c0 60.667 32.833 107.834 98.5 141.501s156.5 50.5 272.5 50.5c112.667 0 202.5 -16.833 269.5 -50.5
s100.5 -80.834 100.5 -141.501c0 -45.333 -18.333 -82.833 -55 -112.5s-84.334 -50.5 -143.001 -62.5v-3c64.667 -8 117.167 -25.5 157.5 -52.5s60.5 -62.833 60.5 -107.5c0 -64 -34.333 -114 -103 -150s-161.667 -53.667 -279 -53
c-124.667 -0.666992 -222.334 17 -293.001 53s-106 86 -106 150zM208.003 497c0 -60 73 -90 219 -90c145.333 0 218 30 218 90c0 30 -19.833 53 -59.5 69s-92.5 24 -158.5 24s-119 -8 -159 -24s-60 -39 -60 -69zM188.003 194c0 -29.333 20.5 -51.833 61.5 -67.5
s100.167 -23.5 177.5 -23.5c76.667 0 135.5 7.83301 176.5 23.5s61.5 38.167 61.5 67.5c0 58.667 -79.333 88 -238 88c-159.333 0 -239 -29.333 -239 -88z" />
    <glyph glyph-name="nine" unicode="9" horiz-adv-x="862" 
d="M409 714c126.667 0 226.668 -31.332 300.001 -93.999s110 -156 110 -280c0 -112 -39 -198.833 -117 -260.5s-185.333 -92.5 -322 -92.5c-110 0 -204.333 19.333 -283 58v140c84 -47.333 181.333 -71 292 -71c88 0 156.667 19.833 206 59.5s74 96.167 74 169.5
c-44 -36 -93.5 -61.833 -148.5 -77.5s-107.833 -23.5 -158.5 -23.5c-106 0 -185.667 21.667 -239 65s-80 101 -80 173c0 71.333 32.167 128.166 96.5 170.499s154.166 63.5 269.499 63.5zM418.001 587.001c-69.333 0 -123.835 -10.168 -163.502 -30.501
s-59.5 -48.833 -59.5 -85.5c0 -77.333 64 -116 192 -116c46.667 0 95.834 8.83301 147.501 26.5s91.167 40.167 118.5 67.5c-13.333 42.667 -40.666 76.334 -81.999 101.001s-92.333 37 -153 37z" />
    <glyph glyph-name="colon" unicode=":" horiz-adv-x="305" 
d="M129 292c-24.667 0 -45.166 7.5 -61.499 22.5s-24.5 34.5 -24.5 58.5s8.16699 43.667 24.5 59s36.833 23 61.5 23c25.333 0 46.166 -7.66699 62.499 -23s24.5 -35 24.5 -59s-8 -43.5 -24 -58.5s-37 -22.5 -63 -22.5zM129.001 -14c-24.667 0 -45.166 7.5 -61.499 22.5
s-24.5 34.5 -24.5 58.5s8.16699 43.667 24.5 59s36.833 23 61.5 23c25.333 0 46.166 -7.66699 62.499 -23s24.5 -35 24.5 -59s-8 -43.5 -24 -58.5s-37 -22.5 -63 -22.5z" />
    <glyph glyph-name="semicolon" unicode=";" horiz-adv-x="293" 
d="M151 292c-24.667 0 -45.166 7.5 -61.499 22.5s-24.5 34.5 -24.5 58.5s8.16699 43.667 24.5 59s36.833 23 61.5 23c25.333 0 46.166 -7.66699 62.499 -23s24.5 -35 24.5 -59s-8 -43.5 -24 -58.5s-37 -22.5 -63 -22.5zM111.001 -169h-81l63 270h131z" />
    <glyph glyph-name="less" unicode="&#x3c;" horiz-adv-x="480" 
d="M425 0h-189l-206 250l206 250h189l-214 -250z" />
    <glyph glyph-name="equal" unicode="=" horiz-adv-x="580" 
d="M550 393h-520v121h520v-121zM550 140h-520v121h520v-121z" />
    <glyph glyph-name="greater" unicode="&#x3e;" horiz-adv-x="455" 
d="M219 0h-189l214 250l-214 250h189l206 -250z" />
    <glyph glyph-name="question" unicode="?" horiz-adv-x="753" 
d="M423 219l-141.001 0.000976562c0 34 9.66699 62.333 29 85s43 39.5 71 50.5s55.833 21.167 83.5 30.5s51.167 21.5 70.5 36.5s29 34.167 29 57.5c0 72 -64.333 108 -193 108c-58.667 0 -105.167 -12.167 -139.5 -36.5s-51.166 -58.833 -50.499 -103.5h-159
c0 48.667 11.333 91.167 34 127.5s52.167 64.333 88.5 84s74 34.167 113 43.5s78.833 14 119.5 14c98.667 0 179.167 -18.167 241.5 -54.5s93.5 -88.833 93.5 -157.5c0 -40.667 -9.66699 -75.334 -29 -104.001s-42.833 -50 -70.5 -64s-55.5 -26.167 -83.5 -36.5
s-52.333 -21.833 -73 -34.5s-32 -28 -34 -46zM349.999 -13.999c-24.667 0 -45.335 7.5 -62.002 22.5s-25 34.5 -25 58.5s8.33301 43.667 25 59s37.334 23 62.001 23s45.334 -7.66699 62.001 -23s25 -35 25 -59s-8 -43.5 -24 -58.5s-37 -22.5 -63 -22.5z" />
    <glyph glyph-name="at" unicode="@" horiz-adv-x="1073" 
d="M536 725c146.667 0 264.499 -35.833 353.499 -107.5s133.5 -160.167 133.5 -265.5c0 -51.333 -13.5 -97.333 -40.5 -138s-68.167 -71.334 -123.5 -92.001h-197l21 139h-7c-26 -101.333 -101.333 -152 -226 -152c-102 0 -153 36 -153 108c0 16 4.33301 30.833 13 44.5
s19.5 25.167 32.5 34.5s30.333 17.833 52 25.5s41.667 13.667 60 18s41.5 8.33301 69.5 12s50.833 6.33398 68.5 8.00098s39.834 3.5 66.501 5.5c-0.666992 29.333 -9.83398 50.166 -27.501 62.499s-46.167 18.5 -85.5 18.5c-62 0 -128 -15 -198 -45v101
c79.333 30 156.333 45 231 45c136 0 204 -64.333 204 -193v-211c45.333 27.333 76.5 56.833 93.5 88.5s25.5 71.834 25.5 120.501c0 80 -33.167 144.5 -99.5 193.5s-155.166 73.5 -266.499 73.5c-112 0 -200.833 -26.5 -266.5 -79.5s-98.5 -125.5 -98.5 -217.5
s32.833 -164.5 98.5 -217.5s154.5 -79.5 266.5 -79.5c66 0 123 8.33301 171 25v-111c-53.333 -13.333 -110.333 -20 -171 -20c-149.333 0 -267.666 36.667 -354.999 110s-131 171 -131 293s43.667 219.667 131 293s205.666 110 354.999 110zM500.999 195
c42 0 78.5 9.66699 109.5 29s46.5 46.333 46.5 81c-92.667 -6.66699 -152.667 -14 -180 -22c-34.667 -10.667 -52 -25.667 -52 -45c0 -13.333 7 -23.833 21 -31.5s32.333 -11.5 55 -11.5z" />
    <glyph glyph-name="A" unicode="A" horiz-adv-x="1092" 
d="M206 0h-175l426 700h178l426 -700h-175l-83 144h-513zM547 589l-185 -318h368z" />
    <glyph glyph-name="B" unicode="B" horiz-adv-x="926" 
d="M631 0l-544.998 0.000976562v700h523c71.333 0 126.666 -15.833 165.999 -47.5s59 -74.834 59 -129.501c0 -45.333 -17.333 -80 -52 -104s-87.667 -38.667 -159 -44v-5c77.333 -4 135.666 -21.167 174.999 -51.5s59 -71.833 59 -124.5
c0 -56.667 -20.833 -103.167 -62.5 -139.5s-96.167 -54.5 -163.5 -54.5zM236.002 573.001l1 -151h337c36.667 0 64 5.5 82 16.5s27 30.167 27 57.5c0 28 -9 47.833 -27 59.5s-45.333 17.5 -82 17.5h-338zM237.002 320.001l1 -192h354c36.667 0 64.667 8.5 84 25.5
s29 41.167 29 72.5c0 30 -9.66699 53.167 -29 69.5s-47.333 24.5 -84 24.5h-355z" />
    <glyph glyph-name="C" unicode="C" horiz-adv-x="945" 
d="M472 -16c-130 0 -234 33.502 -312 100.502s-117 155.5 -117 265.5s39 198.5 117 265.5s182 100.5 312 100.5s234.167 -29.333 312.5 -88s117.5 -136.334 117.5 -233.001h-153c-3.33301 60 -30 107.333 -80 142s-115.667 52 -197 52c-85.333 0 -153 -21.5 -203 -64.5
s-75 -101.167 -75 -174.5s25 -131.5 75 -174.5s117.667 -64.5 203 -64.5c82 0 148 17.333 198 52s76.333 82 79 142h153c0 -96.667 -39.167 -174.334 -117.5 -233.001s-182.5 -88 -312.5 -88z" />
    <glyph glyph-name="D" unicode="D" horiz-adv-x="868" 
d="M417 0h-331v700h331c128 0 228 -30 300 -90s108 -146.667 108 -260c0 -114 -36 -200.833 -108 -260.5s-172 -89.5 -300 -89.5zM237 573v-446h180c82 0 145.333 19.333 190 58s67 93.667 67 165c0 72 -22.333 127.167 -67 165.5s-108 57.5 -190 57.5h-180z" />
    <glyph glyph-name="E" unicode="E" horiz-adv-x="868" 
d="M791 0h-705v700h705v-127h-554v-142h495v-118h-495v-186h554v-127z" />
    <glyph glyph-name="F" unicode="F" horiz-adv-x="828" 
d="M237 0h-151v700h695v-127h-544v-145h495v-118h-495v-310z" />
    <glyph glyph-name="G" unicode="G" horiz-adv-x="968" 
d="M43 350c0 110 39 198.5 117 265.5s182 100.5 312 100.5c126 0 227 -24.833 303 -74.5s115.667 -115.5 119 -197.5h-153c-3.33301 45.333 -28.166 80.833 -74.499 106.5s-109.833 38.5 -190.5 38.5c-86.667 0 -155.334 -21.5 -206.001 -64.5s-76 -101.167 -76 -174.5
s25 -131.5 75 -174.5s117.667 -64.5 203 -64.5c77.333 0 141.666 14 192.999 42s81.333 66 90 114h-388v110h538v-377h-120l8 153h-9c-58 -112.667 -163 -169 -315 -169c-129.333 0 -232.666 33.5 -309.999 100.5s-116 155.5 -116 265.5z" />
    <glyph glyph-name="H" unicode="H" horiz-adv-x="936" 
d="M237 0h-151v700h151v-264h462v264h151v-700h-151v309h-462v-309z" />
    <glyph glyph-name="I" unicode="I" horiz-adv-x="323" 
d="M237 0h-151v700h151v-700z" />
    <glyph glyph-name="J" unicode="J" horiz-adv-x="828" 
d="M399 -16c-228.667 0 -342.999 118.334 -342.999 355.001h152c0 -80.667 15.5 -138.834 46.5 -174.501s79.167 -53.5 144.5 -53.5s113.666 18 144.999 54s47 94 47 174v234h-442v127h592v-361c0 -236.667 -114 -355 -342 -355z" />
    <glyph glyph-name="K" unicode="K" horiz-adv-x="966" 
d="M237 0h-151v700h151v-377l448 377h213l-339 -289l364 -411h-198l-274 322l-214 -174v-148z" />
    <glyph glyph-name="L" unicode="L" horiz-adv-x="755" 
d="M719 0h-633v700h151v-573h482v-127z" />
    <glyph glyph-name="M" unicode="M" horiz-adv-x="1055" 
d="M237 0h-151v700h149l292 -481l293 481h148v-700h-150v454l-276 -454h-29l-276 452v-452z" />
    <glyph glyph-name="N" unicode="N" horiz-adv-x="972" 
d="M237 0h-151v700h134l515 -488v488h150v-700h-134l-514 487v-487z" />
    <glyph glyph-name="O" unicode="O" horiz-adv-x="945" 
d="M472 -16c-130 0 -234 33.5 -312 100.5s-117 155.5 -117 265.5s39 198.5 117 265.5s182 100.5 312 100.5s234.167 -33.5 312.5 -100.5s117.5 -155.5 117.5 -265.5s-39.167 -198.5 -117.5 -265.5s-182.5 -100.5 -312.5 -100.5zM472 111c85.333 0 153.166 21.5 203.499 64.5
s75.5 101.167 75.5 174.5s-25.167 131.5 -75.5 174.5s-118.166 64.5 -203.499 64.5s-153 -21.5 -203 -64.5s-75 -101.167 -75 -174.5s25 -131.5 75 -174.5s117.667 -64.5 203 -64.5z" />
    <glyph glyph-name="P" unicode="P" horiz-adv-x="876" 
d="M237 0l-151 0.000976562v700h503c70.667 0 127.5 -20.667 170.5 -62s64.5 -92 64.5 -152c0 -68.667 -21.667 -121.334 -65 -158.001s-100 -55 -170 -55h-352v-273zM236 577.001v-180.999h328c37.333 0 64.833 7.16699 82.5 21.5s26.5 37.166 26.5 68.499
s-8.83301 54.333 -26.5 69s-45.167 22 -82.5 22h-328z" />
    <glyph glyph-name="Q" unicode="Q" horiz-adv-x="945" 
d="M848 157l92 -54.001l-71 -112l-115 70c-75.333 -51.333 -169.333 -77 -282 -77c-130 0 -234 33.5 -312 100.5s-117 155.5 -117 265.5s39 198.5 117 265.5s182 100.5 312 100.5s234.167 -33.5 312.5 -100.5s117.5 -155.5 117.5 -265.5
c0 -73.333 -18 -137.666 -54 -192.999zM472 110.999c57.333 0 107.666 10.332 150.999 30.999l-175 107l63 106l211 -124c19.333 34.667 29 74.334 29 119.001c0 73.333 -25.167 131.5 -75.5 174.5s-118.166 64.5 -203.499 64.5s-153 -21.5 -203 -64.5
s-75 -101.167 -75 -174.5s25 -131.5 75 -174.5s117.667 -64.5 203 -64.5z" />
    <glyph glyph-name="R" unicode="R" horiz-adv-x="941" 
d="M237 0h-151.002v700h553c70.667 0 125.834 -17 165.501 -51s59.5 -78.667 59.5 -134s-20.5 -98.5 -61.5 -129.5s-95.5 -46.5 -163.5 -46.5l-74 -1v-4c33.333 -2 63.333 -8 90 -18s50.667 -22.667 72 -38s42.833 -37.333 64.5 -66s41.667 -58.667 60 -90
s40.5 -72 66.5 -122h-176l-45.5 80.5l-36.5 63c-15.333 26.333 -26.666 44.166 -33.999 53.499l-30 37c-12.667 15.333 -23 25.333 -31 30s-18.333 10.334 -31 17.001s-25 10.667 -37 12s-26 2 -42 2h-219zM234.998 577l1 -161h368c72.667 0 109 25.333 109 76
c0 29.333 -8.66699 50.833 -26 64.5s-45 20.5 -83 20.5h-369z" />
    <glyph glyph-name="S" unicode="S" horiz-adv-x="870" 
d="M432 -16c-119.333 0 -214.334 22.3301 -285.001 66.9971s-105.334 103 -104.001 175h158c-0.666992 -34.667 19.166 -62.5 59.499 -83.5s96.166 -31.5 167.499 -31.5c164.667 0 247 30 247 90c0 24.667 -11.333 43.334 -34 56.001s-52 20.834 -88 24.501
s-75.667 6.16699 -119 7.5s-86.833 4.5 -130.5 9.5s-83.5 13.333 -119.5 25s-65.333 31.834 -88 60.501s-34 65.334 -34 110.001c0 70 33.833 124.5 101.5 163.5s157.167 58.5 268.5 58.5c114 0 205.5 -22.167 274.5 -66.5s103.833 -102.833 104.5 -175.5h-154
c0.666992 35.333 -18.833 63.333 -58.5 84s-93.834 31 -162.501 31c-148 0 -222 -28 -222 -84c0 -22.667 11.333 -40.167 34 -52.5s51.834 -20.333 87.501 -24s75.334 -6.33398 119.001 -8.00098s87.334 -5.5 131.001 -11.5s83.334 -15.333 119.001 -28
s64.834 -33.667 87.501 -63s34 -66.333 34 -111c0 -72 -34.833 -127.167 -104.5 -165.5s-166.167 -57.5 -289.5 -57.5z" />
    <glyph glyph-name="T" unicode="T" horiz-adv-x="826" 
d="M488 0h-151v573h-306v127h763v-127h-306v-573z" />
    <glyph glyph-name="U" unicode="U" horiz-adv-x="911" 
d="M456 -16c-60 0 -111.668 6.33301 -155.001 19s-81.666 33.334 -114.999 62.001s-58.333 68.334 -75 119.001s-25 112.667 -25 186v330h151v-360c0 -150.667 73 -226 219 -226c145.333 0 218 75.333 218 226v360h151v-330c0 -73.333 -8.33301 -135.333 -25 -186
s-41.5 -90.334 -74.5 -119.001s-71.167 -49.334 -114.5 -62.001s-95 -19 -155 -19z" />
    <glyph glyph-name="V" unicode="V" horiz-adv-x="1021" 
d="M511 109l314 591h175l-388 -700h-202l-389 700h175z" />
    <glyph glyph-name="W" unicode="W" horiz-adv-x="1268" 
d="M475 0h-172l-259 700h165l181 -502l168 502h152l169 -502l180 502h165l-259 -700h-171l-159 472z" />
    <glyph glyph-name="X" unicode="X" horiz-adv-x="942" 
d="M243 0h-195l320 352l-319 348h199l224 -244l224 244h198l-324 -354l316 -346h-196l-223 243z" />
    <glyph glyph-name="Y" unicode="Y" horiz-adv-x="926" 
d="M538 0h-150v226l-363 474h185l253 -347l253 347h185l-363 -473v-227z" />
    <glyph glyph-name="Z" unicode="Z" horiz-adv-x="820" 
d="M779 0h-738v90l494 483h-486v127h720v-91l-490 -482h500v-127z" />
    <glyph glyph-name="bracketleft" unicode="[" horiz-adv-x="513" 
d="M483 700v-91h-302v-708h302v-91h-453v890h453z" />
    <glyph glyph-name="backslash" unicode="\" horiz-adv-x="1037" 
d="M1007 0h-145l-832 700h145z" />
    <glyph glyph-name="bracketright" unicode="]" horiz-adv-x="513" 
d="M483 700v-890h-453v91h302v708h-302v91h453z" />
    <glyph glyph-name="asciicircum" unicode="^" horiz-adv-x="560" 
d="M280 559l-250 -242v118l250 274l250 -274v-118z" />
    <glyph glyph-name="underscore" unicode="_" horiz-adv-x="1060" 
d="M1030 0h-1000v122h1000v-122z" />
    <glyph glyph-name="grave" unicode="`" horiz-adv-x="387" 
d="M337 638v-94l-287 150v116z" />
    <glyph glyph-name="a" unicode="a" horiz-adv-x="681" 
d="M229 -16c-124 0 -186.003 44 -186.003 132c0 20 5.33301 38.167 16 54.5s23.834 30.166 39.501 41.499s36.667 21.5 63 30.5s50.833 16.167 73.5 21.5s50.834 10.333 84.501 15s61.334 7.83398 83.001 9.50098l81.5 6.5c-0.666992 36 -11.834 61.5 -33.501 76.5
s-56.167 22.5 -103.5 22.5c-77.333 0 -157.666 -18 -240.999 -54v122c97.333 36 191 54 281 54c164.667 0 247 -78 247 -234v-282h-147l26 169h-9c-16 -63.333 -46.667 -110 -92 -140s-106.333 -45 -183 -45zM291.997 89c51.333 0 95.667 11.667 133 35s56.333 56 57 98
c-102.667 -8 -167.667 -15 -195 -21c-58 -12.667 -87 -32.667 -87 -60c0 -16 8.33301 -28.667 25 -38s39 -14 67 -14z" />
    <glyph glyph-name="b" unicode="b" horiz-adv-x="789" 
d="M469 -16c-62 0 -116 16.501 -162 49.501s-75 76.167 -87 129.5h-12l22 -163h-154v700h150v-362h4c11.333 56.667 41 100.5 89 131.5s104 46.5 168 46.5c73.333 0 134.833 -24.333 184.5 -73s74.5 -111.667 74.5 -189c0 -80.667 -25.667 -145.834 -77 -195.501
s-118 -74.5 -200 -74.5zM427 101.001c50 0 91.167 13.502 123.5 40.502s48.5 63.833 48.5 110.5c0 45.333 -16.167 81.166 -48.5 107.499s-73.5 39.5 -123.5 39.5c-48 0 -89 -13.333 -123 -40s-51 -62.334 -51 -107.001c0 -46 17 -82.667 51 -110s75 -41 123 -41z" />
    <glyph glyph-name="c" unicode="c" horiz-adv-x="642" 
d="M367 -16c-94.667 0 -172.334 24.499 -233.001 73.499s-91 113.167 -91 192.5c0 80 29.667 144.333 89 193s138 73 236 73c78.667 0 155.667 -17 231 -51v-128c-72.667 41.333 -149.667 62 -231 62c-54.667 0 -98 -13.667 -130 -41s-48 -63.333 -48 -108
s17 -80.667 51 -108s79.667 -41 137 -41c83.333 0 157 19.667 221 59v-125c-42.667 -19.333 -80.167 -32.666 -112.5 -39.999s-72.166 -11 -119.499 -11z" />
    <glyph glyph-name="d" unicode="d" horiz-adv-x="789" 
d="M320 -16c-82 0 -148.667 24.832 -200 74.499s-77 114.834 -77 195.501c0 77.333 24.833 140.333 74.5 189s111.5 73 185.5 73c64 0 119.833 -15.5 167.5 -46.5s77.167 -74.833 88.5 -131.5h4v362h151v-700h-155l22 163h-12c-12 -53.333 -41 -96.5 -87 -129.5
s-100 -49.5 -162 -49.5zM362 100.999c48 0 89.167 13.665 123.5 40.998s51.5 64 51.5 110c0 44.667 -17.167 80.334 -51.5 107.001s-75.5 40 -123.5 40c-50 0 -91.167 -13.167 -123.5 -39.5s-48.5 -62.166 -48.5 -107.499c0 -46.667 16.167 -83.5 48.5 -110.5
s73.5 -40.5 123.5 -40.5z" />
    <glyph glyph-name="e" unicode="e" horiz-adv-x="688" 
d="M344 -16c-90.667 0 -163.503 24.332 -218.503 72.999s-82.5 113 -82.5 193s27.5 144.333 82.5 193s127.833 73 218.5 73c89.333 0 161.5 -20.833 216.5 -62.5s83.167 -96.5 84.5 -164.5v-82h-452c8 -38 27.833 -65.5 59.5 -82.5s78.834 -25.5 141.501 -25.5
c19.333 0 38 0.833008 56 2.5s32.833 3.66699 44.5 6s24.667 5.83301 39 10.5s24.833 8.33398 31.5 11.001s16.834 7 30.501 13l27.5 12v-121c-50 -18.667 -93.667 -31.5 -131 -38.5s-86.666 -10.5 -147.999 -10.5zM189.997 275.999l312 7
c-1.33301 35.333 -16.5 63.5 -45.5 84.5s-66.5 31.5 -112.5 31.5c-42.667 0 -78 -11 -106 -33s-44 -52 -48 -90z" />
    <glyph glyph-name="f" unicode="f" horiz-adv-x="432" 
d="M257 0l-150.999 0.000976562v391h-63v109h63v20c0 67.333 11.833 115.666 35.5 144.999s65.5 44 125.5 44c29.333 0 69.666 -5.33301 120.999 -16v-84c-4 0 -9.83301 0.166992 -17.5 0.5s-13.167 0.5 -16.5 0.5c-42.667 0 -69.5 -6.83301 -80.5 -20.5
s-16.5 -43.5 -16.5 -89.5h131v-106h-131v-394z" />
    <glyph glyph-name="g" unicode="g" horiz-adv-x="779" 
d="M388 -200c-89.333 0 -176 14 -260 42v129c23.333 -16 57.5 -29 102.5 -39s92.167 -15 141.5 -15c70.667 0 121.334 13.833 152.001 41.5s47 71.5 49 131.5l3 59c-14.667 -50 -44.334 -88.833 -89.001 -116.5s-97 -41.5 -157 -41.5c-82.667 0 -149.5 23.833 -200.5 71.5
s-76.5 111.5 -76.5 191.5c0 77.333 24.833 140.333 74.5 189s111.5 73 185.5 73c64 0 119.833 -15.5 167.5 -46.5s77.167 -74.833 88.5 -131.5h15l-13 162h145v-440c0 -87.333 -29.333 -152.5 -88 -195.5s-138.667 -64.5 -240 -64.5zM372 101
c48 0 89.167 13.8311 123.5 41.498s51.5 64.167 51.5 109.5c0 44.667 -17.167 80.334 -51.5 107.001s-75.5 40 -123.5 40c-50 0 -91.167 -13.167 -123.5 -39.5s-48.5 -62.166 -48.5 -107.499c0 -46.667 16.167 -83.5 48.5 -110.5s73.5 -40.5 123.5 -40.5z" />
    <glyph glyph-name="h" unicode="h" 
d="M213 0l-150.001 0.00195312v700h164l-20 -406h9c24 148 106 222 246 222c72.667 -1.33301 125.334 -24.333 158.001 -69s49 -121.334 49 -230.001v-217h-150v200c0 73.333 -10.5 125.5 -31.5 156.5s-55.167 46.5 -102.5 46.5c-52 0 -93.667 -23.833 -125 -71.5
s-47 -110.834 -47 -189.501v-142z" />
    <glyph glyph-name="i" unicode="i" horiz-adv-x="292" 
d="M145 580c-60.667 0 -91 27.667 -91 83c0 56 30.333 84 91 84c62 0 93 -28 93 -84c0 -55.333 -31 -83 -93 -83zM222 0h-150v500h150v-500z" />
    <glyph glyph-name="j" unicode="j" horiz-adv-x="300" 
d="M147 580c-60.667 0 -91 27.667 -91 83c0 56 30.333 84 91 84c62 0 93 -28 93 -84c0 -55.333 -31 -83 -93 -83zM-26 -200l0.000976562 91c32 0 56.5 7.83301 73.5 23.5s25.5 36.5 25.5 62.5v523h150v-510c0 -58 -23.333 -104.167 -70 -138.5
s-106.334 -51.5 -179.001 -51.5z" />
    <glyph glyph-name="k" unicode="k" horiz-adv-x="728" 
d="M213 0h-150v700h150v-422l256 222h211l-226 -185l235 -315h-179l-161 226l-136 -109v-117z" />
    <glyph glyph-name="l" unicode="l" horiz-adv-x="302" 
d="M226 0h-150v700h150v-700z" />
    <glyph glyph-name="m" unicode="m" horiz-adv-x="1172" 
d="M213 0l-149.999 0.00292969v500h164l-20 -206h9c24 148 106 222 246 222c63.333 -1.33301 111.166 -18.833 143.499 -52.5s52.166 -90.167 59.499 -169.5h7c24 148 106 222 246 222c72.667 -1.33301 125.334 -24.333 158.001 -69s49 -121.334 49 -230.001v-217h-150v200
c0 74 -10.5 126.5 -31.5 157.5s-55.167 46.167 -102.5 45.5c-52 0 -93.667 -23.833 -125 -71.5s-47 -110.834 -47 -189.501v-142h-150v200c0 74 -10.5 126.5 -31.5 157.5s-55.167 46.167 -102.5 45.5c-52 0 -93.667 -23.833 -125 -71.5s-47 -110.834 -47 -189.501v-142z" />
    <glyph glyph-name="n" unicode="n" 
d="M213 0l-150.001 0.00195312v500h164l-20 -206h9c24 148 106 222 246 222c72.667 -1.33301 125.334 -24.333 158.001 -69s49 -121.334 49 -230.001v-217h-150v200c0 73.333 -10.5 125.5 -31.5 156.5s-55.167 46.5 -102.5 46.5c-52 0 -93.667 -23.833 -125 -71.5
s-47 -110.834 -47 -189.501v-142z" />
    <glyph glyph-name="o" unicode="o" 
d="M358 -16c-94.667 0 -170.834 24.333 -228.501 73s-86.5 113 -86.5 193s28.833 144.333 86.5 193s133.834 73 228.501 73s170.667 -24.333 228 -73s86 -113 86 -193s-28.667 -144.333 -86 -193s-133.333 -73 -228 -73zM358 101c52 0 94 13.667 126 41s48 63.333 48 108
s-16 80.667 -48 108s-74 41 -126 41s-94 -13.667 -126 -41s-48 -63.333 -48 -108s16 -80.667 48 -108s74 -41 126 -41z" />
    <glyph glyph-name="p" unicode="p" horiz-adv-x="789" 
d="M469 516c82 0 148.667 -24.832 200 -74.499s77 -114.834 77 -195.501c0 -77.333 -24.833 -140.333 -74.5 -189s-111.167 -73 -184.5 -73c-64 0 -120 15.5 -168 46.5s-77.667 74.833 -89 131.5h-4v-362h-150v700h154l-22 -163h12c12 53.333 41 96.5 87 129.5
s100 49.5 162 49.5zM427 399.001c-48 0 -89 -13.665 -123 -40.998s-51 -64 -51 -110c0 -44.667 17 -80.334 51 -107.001s75 -40 123 -40c50 0 91.167 13.167 123.5 39.5s48.5 62.166 48.5 107.499c0 46.667 -16.167 83.5 -48.5 110.5s-73.5 40.5 -123.5 40.5z" />
    <glyph glyph-name="q" unicode="q" horiz-adv-x="789" 
d="M320 516c62 0 116 -16.501 162 -49.501s75 -76.167 87 -129.5h12l-22 163h155v-700h-151v362h-4c-11.333 -56.667 -40.833 -100.5 -88.5 -131.5s-103.5 -46.5 -167.5 -46.5c-74 0 -135.833 24.333 -185.5 73s-74.5 111.667 -74.5 189c0 80.667 25.667 145.834 77 195.501
s118 74.5 200 74.5zM362 398.999c-50 0 -91.167 -13.502 -123.5 -40.502s-48.5 -63.833 -48.5 -110.5c0 -45.333 16.167 -81.166 48.5 -107.499s73.5 -39.5 123.5 -39.5c48 0 89.167 13.333 123.5 40s51.5 62.334 51.5 107.001c0 46 -17.167 82.667 -51.5 110
s-75.5 41 -123.5 41z" />
    <glyph glyph-name="r" unicode="r" horiz-adv-x="535" 
d="M213 0h-149.999v500h164l-20 -186h10c13.333 72.667 41.666 124.5 84.999 155.5s110.333 46.5 201 46.5v-127c-104 0 -178.333 -16.833 -223 -50.5s-67 -90.5 -67 -170.5v-168z" />
    <glyph glyph-name="s" unicode="s" horiz-adv-x="683" 
d="M340 -16c-88.667 0 -178.001 13.001 -268.001 39.001v126c82 -31.333 163.333 -47 244 -47c60.667 0 104.334 3.66699 131.001 11s40 20.333 40 39c0 16 -15 27.333 -45 34s-66.5 11.167 -109.5 13.5s-85.833 6.5 -128.5 12.5s-79 20.167 -109 42.5s-45 53.5 -45 93.5
c0 55.333 26.333 97.166 79 125.499s124.334 42.5 215.001 42.5c71.333 0 154.666 -9.33301 249.999 -28v-121c-91.333 19.333 -169 29 -233 29c-109.333 0 -164 -16 -164 -48c0 -15.333 15 -26 45 -32s66.5 -10.333 109.5 -13s85.833 -7.16699 128.5 -13.5s79 -21 109 -44
s45 -54.833 45 -95.5c0 -56.667 -26 -98.5 -78 -125.5s-124 -40.5 -216 -40.5z" />
    <glyph glyph-name="t" unicode="t" horiz-adv-x="431" 
d="M256 -10c-62.667 0 -103.332 13 -121.999 39s-28 76.333 -28 151v211h-70v109h79v120l142 20v-140h137v-109h-137v-181c0 -52 4.16699 -85.167 12.5 -99.5s33.166 -21.5 74.499 -21.5c8 0 24.667 0.666992 50 2v-81c-40.667 -13.333 -86.667 -20 -138 -20z" />
    <glyph glyph-name="u" unicode="u" 
d="M503 500l150.001 -0.00195312v-500h-164l20 206h-8c-24 -148 -106.333 -222 -247 -222c-72.667 1.33301 -125.334 24.333 -158.001 69s-49 121.334 -49 230.001v217h150v-200c0 -73.333 10.5 -125.5 31.5 -156.5s55.5 -46.5 103.5 -46.5c52 0 93.5 23.833 124.5 71.5
s46.5 110.834 46.5 189.501v142z" />
    <glyph glyph-name="v" unicode="v" horiz-adv-x="794" 
d="M499 0h-204l-264 500h162l204 -388l205 388h161z" />
    <glyph glyph-name="w" unicode="w" horiz-adv-x="1082" 
d="M429 0h-190l-214 500h151l154 -363l145 363h122l155 -366l154 366h151l-214 -500h-189l-116 282z" />
    <glyph glyph-name="x" unicode="x" horiz-adv-x="798" 
d="M218 0h-192l269 251l-269 249h194l178 -166l180 166h194l-277 -256l263 -244h-192l-174 160z" />
    <glyph glyph-name="y" unicode="y" horiz-adv-x="777" 
d="M370 -200h-160l111 202l-296 498h168l200 -355l198 355h161z" />
    <glyph glyph-name="z" unicode="z" horiz-adv-x="657" 
d="M617 0h-587v67l374 320h-366v113h589v-65l-372 -322h362v-113z" />
    <glyph glyph-name="braceleft" unicode="{" horiz-adv-x="692" 
d="M642 -19l-0.00195312 -61.001c-59.333 0 -109.833 2.66699 -151.5 8s-75.667 13 -102 23s-46.666 23.667 -60.999 41s-24.166 36.166 -29.499 56.499s-8 45.166 -8 74.499c0 64.667 -20.5 112.834 -61.5 144.501s-107.167 47.5 -198.5 47.5v68
c88.667 1.33301 151.167 17.666 187.5 48.999s54.5 76.666 54.5 135.999c0 38.667 4.16699 69.834 12.5 93.501s25.166 44.834 50.499 63.501s62.333 32 111 40s112 12 190 12v-61c-88 0 -150.667 -10.5 -188 -31.5s-56 -59.833 -56 -116.5
c0 -19.333 -0.166992 -33.333 -0.5 -42s-1.5 -21.5 -3.5 -38.5s-5 -29.833 -9 -38.5s-10.167 -19.167 -18.5 -31.5s-18.666 -22.166 -30.999 -29.499s-27.833 -14.5 -46.5 -21.5s-40.334 -12.5 -65.001 -16.5c32.667 -2 60.5 -7.16699 83.5 -15.5s41.5 -18.666 55.5 -30.999
s24.833 -28.333 32.5 -48s12.834 -39.667 15.501 -60s4 -44.5 4 -72.5c0 -53.333 18.667 -90.333 56 -111s96.333 -31 177 -31z" />
    <glyph glyph-name="bar" unicode="|" horiz-adv-x="271" 
d="M211 -170h-151v890h151v-890z" />
    <glyph glyph-name="braceright" unicode="}" horiz-adv-x="705" 
d="M63 -80l-0.00195312 61.001c80.667 0 139.667 10.333 177 31s56 57.667 56 111c0 28 1.33301 52.167 4 72.5s7.83398 40.333 15.501 60s18.5 35.667 32.5 48s32.5 22.666 55.5 30.999s50.833 13.5 83.5 15.5c-24.667 4 -46.334 9.5 -65.001 16.5
s-34.167 14.167 -46.5 21.5s-22.666 17.166 -30.999 29.499s-14.5 22.833 -18.5 31.5s-7 21.5 -9 38.5s-3.16699 29.833 -3.5 38.5s-0.5 22.667 -0.5 42c0 56.667 -18.667 95.5 -56 116.5s-100 31.5 -188 31.5v61c78 0 141.333 -4 190 -12s85.667 -21.333 111 -40
s42.166 -39.834 50.499 -63.501s12.5 -54.834 12.5 -93.501c0 -59.333 18.167 -104.666 54.5 -135.999s98.833 -47.666 187.5 -48.999v-68c-91.333 0 -157.5 -15.833 -198.5 -47.5s-61.5 -79.834 -61.5 -144.501c0 -29.333 -2.66699 -54.166 -8 -74.499
s-15.166 -39.166 -29.499 -56.499s-34.666 -31 -60.999 -41s-60.333 -17.667 -102 -23s-92.167 -8 -151.5 -8z" />
    <glyph glyph-name="asciitilde" unicode="~" horiz-adv-x="441" 
d="M288 310c-20.667 0 -39.3311 6 -55.998 18s-31.334 24 -44.001 36s-24.334 18 -35.001 18c-18.667 0 -33.5 -6 -44.5 -18s-16.833 -29.667 -17.5 -53h-61c0.666992 38.667 12.334 70 35.001 94s52 36 88 36c22.667 0 47 -12 73 -36s46.667 -36 62 -36
c41.333 0 62.333 23.667 63 71h60c-0.666992 -39.333 -12.334 -70.833 -35.001 -94.5s-52 -35.5 -88 -35.5z" />
    <glyph glyph-name="exclamdown" unicode="&#xa1;" horiz-adv-x="279" 
d="M143 522c26 0 47.001 -7.66699 63.001 -23s24 -35 24 -59s-8.33301 -43.667 -25 -59s-37.334 -23 -62.001 -23s-45.334 7.66699 -62.001 23s-25 35 -25 59s8.33301 43.667 25 59s37.334 23 62.001 23zM62.001 -193l10 406h143l10 -406h-163z" />
    <glyph glyph-name="cent" unicode="&#xa2;" horiz-adv-x="589" 
d="M358 489c-54.667 0 -98 -13.6689 -130 -41.002s-48 -63.333 -48 -108s17 -80.667 51 -108s79.667 -41 137 -41c83.333 0 157 19.667 221 59v-125c-67.333 -29.333 -127.333 -45.666 -180 -48.999v-106h-176v121c-61.333 18.667 -110 49.834 -146 93.501
s-54 95.5 -54 155.5c0 61.333 17.667 113.833 53 157.5s84.333 74.167 147 91.5v111h176v-96c58 -4.66699 118 -21 180 -49v-128c-72.667 41.333 -149.667 62 -231 62z" />
    <glyph glyph-name="sterling" unicode="&#xa3;" horiz-adv-x="902" 
d="M523 587c-88.667 0 -151.167 -9.99902 -187.5 -29.999s-51.5 -57.667 -45.5 -113c0 -4.66699 2.66699 -26.667 8 -66h498v-109h-491c-4.66699 -60.667 -32.667 -109 -84 -145h624v-124h-760v126c34 16 58.167 33.167 72.5 51.5s21.833 39.166 22.5 62.499
c0 6 -0.666992 15.667 -2 29h-92v109h67c-13.333 52 -20 94.667 -20 128c0 75.333 29 129 87 161s151 48 279 48c62 0 129.167 -3.5 201.5 -10.5s122.833 -15.167 151.5 -24.5v-132c-20.667 8 -68.167 16.5 -142.5 25.5s-136.5 13.5 -186.5 13.5z" />
    <glyph glyph-name="currency" unicode="&#xa4;" horiz-adv-x="720" 
d="M256 124l-102.001 -101.001l-106 106l81 82c-23.333 33.333 -35 73 -35 119c0 48.667 13.333 90.334 40 125.001l-86 86l106 106l109 -109c28.667 8 60.667 12 96 12c36 0 68.667 -3.66699 98 -11l109 108l106 -106l-84 -85c24 -34 36 -76 36 -126
c0 -48 -10.667 -88 -32 -120l80 -81l-106 -106l-101 100c-32.667 -8.66699 -68 -13 -106 -13c-37.333 0 -71.666 4.66699 -102.999 14zM358.999 203.999c45.333 0 81.333 11.5 108 34.5s40 53.5 40 91.5s-13.333 68.5 -40 91.5s-62.667 34.5 -108 34.5
s-81.333 -11.5 -108 -34.5s-40 -53.5 -40 -91.5s13.333 -68.5 40 -91.5s62.667 -34.5 108 -34.5z" />
    <glyph glyph-name="yen" unicode="&#xa5;" horiz-adv-x="914" 
d="M716 700h185l-258 -336h189v-102h-267l-27 -35v-6h294v-102h-294v-119h-150v119h-266v102h266v5l-28 36h-238v102h160l-257 336h185l245 -336h16z" />
    <glyph glyph-name="brokenbar" unicode="&#xa6;" horiz-adv-x="271" 
d="M211 313h-151v407h151v-407zM211 -170h-151v418h151v-418z" />
    <glyph glyph-name="section" unicode="&#xa7;" horiz-adv-x="644" 
d="M320 0c-88.667 0 -177.998 13 -267.998 39v118c75.333 -28.667 164.666 -43 267.999 -43c53.333 0 90.5 2.33301 111.5 7s31.5 12.667 31.5 24c0 17.333 -14.833 30.166 -44.5 38.499s-65.834 14.5 -108.501 18.5s-85.167 9.66699 -127.5 17s-78.333 22.333 -108 45
s-44.5 53 -44.5 91c0 36.667 16.333 63 49 79c-32.667 27.333 -49 58 -49 92c0 53.333 26.333 94 79 122s124.334 42 215.001 42c71.333 0 154.666 -9.33301 249.999 -28v-118c-82 17.333 -165.333 26 -250 26c-54 0 -91.333 -2.66699 -112 -8s-31 -16 -31 -32
c0 -11.333 14.833 -19.5 44.5 -24.5s65.667 -9.33301 108 -13s84.833 -9.66699 127.5 -18s78.834 -25.166 108.501 -50.499s44.5 -59 44.5 -101c0 -32.667 -14.333 -59.667 -43 -81c28.667 -28.667 43 -58.667 43 -90c0 -50 -26.333 -87.833 -79 -113.5
s-124.334 -38.5 -215.001 -38.5zM358.002 285c65.333 0 99.333 17 102 51c4 40 -41.667 64 -137 72c-22.667 1.33301 -37 2 -43 2c-60.667 0 -93 -17.667 -97 -53c-1.33301 -20.667 8.66699 -36.5 30 -47.5s56 -18.833 104 -23.5c10 -0.666992 23.667 -1 41 -1z" />
    <glyph glyph-name="dieresis" unicode="&#xa8;" horiz-adv-x="481" 
d="M121 580c-60.667 0 -91 27.667 -91 83c0 56 30.333 84 91 84c62 0 93 -28 93 -84c0 -55.333 -31 -83 -93 -83zM359 579c-61.333 0 -92 27.667 -92 83c0 56 30.667 84 92 84c62 0 93 -28 93 -84c0 -55.333 -31 -83 -93 -83z" />
    <glyph glyph-name="copyright" unicode="&#xa9;" horiz-adv-x="965" 
d="M482 -16c-134.667 0 -240.332 33.167 -316.999 99.5s-115 155.166 -115 266.499c0 110.667 38.667 199.334 116 266.001s182.666 100 315.999 100c136 0 242.167 -32.833 318.5 -98.5s114.5 -154.834 114.5 -267.501c0 -111.333 -38.333 -200.166 -115 -266.499
s-182.667 -99.5 -318 -99.5zM482.002 11c132 0 232.501 31.167 301.501 93.5s103.5 144.833 103.5 247.5c0 101.333 -34.833 182.833 -104.5 244.5s-169.834 92.5 -300.501 92.5c-128 0 -227.667 -31.5 -299 -94.5s-107 -145.167 -107 -246.5c0 -100 36 -181.167 108 -243.5
s171.333 -93.5 298 -93.5zM487.003 85c-90.667 0 -163.5 24.3311 -218.5 72.998s-82.5 113 -82.5 193s27.5 144.333 82.5 193s127.833 73 218.5 73c90 0 162.5 -21.667 217.5 -65s82.5 -100.666 82.5 -171.999h-153c-3.33301 36.667 -18.5 66.334 -45.5 89.001
s-60.833 34 -101.5 34c-45.333 0 -81.666 -13.833 -108.999 -41.5s-41 -64.5 -41 -110.5s13.667 -82.833 41 -110.5s63.666 -41.5 108.999 -41.5c42 0 76.667 12 104 36s42.333 55.667 45 95h152c0 -73.333 -27.5 -132.5 -82.5 -177.5s-127.833 -67.5 -218.5 -67.5z" />
    <glyph glyph-name="guillemotleft" unicode="&#xab;" horiz-adv-x="859" 
d="M249 500h188l-214 -250l214 -250h-188l-206 250zM628 500h188l-214 -250l214 -250h-188l-206 250z" />
    <glyph glyph-name="logicalnot" unicode="&#xac;" horiz-adv-x="670" 
d="M640 76h-122v219h-488v122h610v-341z" />
    <glyph glyph-name="registered" unicode="&#xae;" horiz-adv-x="965" 
d="M482 -16c-134.667 0 -240.332 33.167 -316.999 99.5s-115 155.166 -115 266.499c0 110.667 38.667 199.334 116 266.001s182.666 100 315.999 100c136 0 242.167 -32.833 318.5 -98.5s114.5 -154.834 114.5 -267.501c0 -111.333 -38.333 -200.166 -115 -266.499
s-182.667 -99.5 -318 -99.5zM482.002 11c132 0 232.501 31.167 301.501 93.5s103.5 144.833 103.5 247.5c0 101.333 -34.833 182.833 -104.5 244.5s-169.834 92.5 -300.501 92.5c-128 0 -227.667 -31.5 -299 -94.5s-107 -145.167 -107 -246.5c0 -100 36 -181.167 108 -243.5
s171.333 -93.5 298 -93.5zM350.003 133l-93 -0.000976562v435h342c44 0 78.333 -10.667 103 -32s37 -49 37 -83c0 -34.667 -12.833 -61.667 -38.5 -81s-59.5 -29 -101.5 -29h-45v-3c48.667 -2.66699 87.5 -18.667 116.5 -48s63.167 -82.333 102.5 -159h-110
c-43.333 78.667 -74.833 128.834 -94.5 150.501s-47.5 32.5 -83.5 32.5h-135v-183zM349.003 490.999l1 -100h228c45.333 0 68 16 68 48c0 34.667 -22.667 52 -68 52h-229z" />
    <glyph glyph-name="macron" unicode="&#xaf;" horiz-adv-x="632" 
d="M582 646h-532v54h532v-54z" />
    <glyph glyph-name="degree" unicode="&#xb0;" horiz-adv-x="518" 
d="M259 460c-57.333 0 -106.5 11.667 -147.5 35s-61.5 53.333 -61.5 90s20.5 66.667 61.5 90s90.167 35 147.5 35c62 0 112.333 -11.5 151 -34.5s58 -53.167 58 -90.5s-19.333 -67.5 -58 -90.5s-89 -34.5 -151 -34.5zM259 509c30 0 54.333 6.66699 73 20s28 31.333 28 54
c0 24 -9.33301 43 -28 57s-43 21 -73 21s-54.167 -6.83301 -72.5 -20.5s-27.5 -32.167 -27.5 -55.5s9.16699 -41.833 27.5 -55.5s42.5 -20.5 72.5 -20.5z" />
    <glyph glyph-name="plusminus" unicode="&#xb1;" horiz-adv-x="600" 
d="M342 196h-104v143h-143v104h143v143h104v-143h143v-104h-143v-143zM550 0h-520v82h520v-82z" />
    <glyph glyph-name="acute" unicode="&#xb4;" horiz-adv-x="387" 
d="M337 694l-287 -150v94l287 172v-116z" />
    <glyph glyph-name="paragraph" unicode="&#xb6;" horiz-adv-x="939" 
d="M549 -180l-155 -0.000976562v453h-129c-70 0 -126.667 18.333 -170 55s-65 89.334 -65 158.001c0 60 21.5 110.667 64.5 152s99.833 62 170.5 62h284v-880zM909 -180.001h-151v880h151v-880z" />
    <glyph glyph-name="periodcentered" unicode="&#xb7;" horiz-adv-x="259" 
d="M129 232c-24.667 0 -45.166 7.5 -61.499 22.5s-24.5 34.5 -24.5 58.5s8.16699 43.667 24.5 59s36.833 23 61.5 23c25.333 0 46.166 -7.66699 62.499 -23s24.5 -35 24.5 -59s-8 -43.5 -24 -58.5s-37 -22.5 -63 -22.5z" />
    <glyph glyph-name="cedilla" unicode="&#xb8;" horiz-adv-x="526" 
d="M218 35l-53.998 -103.999c97.333 -5.33301 173.666 -17.333 228.999 -36s83 -42.667 83 -72c0 -31.333 -39.333 -57.333 -118 -78s-181.334 -31.334 -308.001 -32.001v55c180.667 0.666992 271 19 271 55s-90.333 55.333 -271 58v53l58 101h110z" />
    <glyph glyph-name="guillemotright" unicode="&#xbb;" horiz-adv-x="885" 
d="M43 500h188l206 -250l-206 -250h-188l214 250zM422 500h188l206 -250l-206 -250h-188l214 250z" />
    <glyph glyph-name="onequarter" unicode="&#xbc;" horiz-adv-x="1603" 
d="M540 -22h-120l688 744h120zM391 161h-103v385l-231 -148v102l272 139h62v-478zM1464 61h-103v83h-397v65l337 330h163v-308h69v-87h-69v-83zM1361 480l-254 -249h254v249z" />
    <glyph glyph-name="onehalf" unicode="&#xbd;" horiz-adv-x="1734" 
d="M539 -22h-120l688 744h120zM391 161h-103v385l-231 -148v102l272 139h62v-478zM1673 61h-499v60c0.666992 34 15 63.667 43 89s61.667 45.166 101 59.499s78.5 27.333 117.5 39s72.167 24.167 99.5 37.5s41 28.333 41 45c0 25.333 -12.5 43.5 -37.5 54.5
s-66.5 16.5 -124.5 16.5c-42 0 -84.667 -4.16699 -128 -12.5s-75.666 -17.5 -96.999 -27.5v90c54.667 24.667 136 37 244 37c85.333 0 148.666 -10.667 189.999 -32s62 -56.666 62 -105.999c0 -36 -12.333 -66.667 -37 -92s-55.334 -44.666 -92.001 -57.999
s-73.667 -25 -111 -35s-71.666 -21.333 -102.999 -34s-51 -27.334 -59 -44.001h390v-87z" />
    <glyph glyph-name="threequarters" unicode="&#xbe;" horiz-adv-x="1610" 
d="M547 -22h-120l688 744h120zM287 150c-103.333 0 -184 13 -242 39v90c22 -11.333 56.333 -21.166 103 -29.499s88 -12.5 124 -12.5c127.333 0 191 17.667 191 53c0 25.333 -22.5 43.5 -67.5 54.5s-124.5 16.833 -238.5 17.5v77c115.333 4.66699 193 11.5 233 20.5
s60 23.5 60 43.5c0 40.667 -59.667 61 -179 61c-34 0 -74.333 -4.5 -121 -13.5s-81.667 -18.833 -105 -29.5v90c26.667 12 63.167 21.667 109.5 29s87.5 11 123.5 11c178.667 0 268 -43.667 268 -131c0 -76.667 -68 -115.667 -204 -117v-2c64 0 116.333 -9.33301 157 -28
s61 -48.334 61 -89.001c0 -89.333 -91 -134 -273 -134zM1471 58h-103v83h-397v65l337 330h163v-308h69v-87h-69v-83zM1368 477l-254 -249h254v249z" />
    <glyph glyph-name="questiondown" unicode="&#xbf;" horiz-adv-x="742" 
d="M362 522c24.667 0 45.335 -7.66699 62.002 -23s25 -35 25 -59s-8.33301 -43.667 -25 -59s-37.334 -23 -62.001 -23s-45.334 7.66699 -62.001 23s-25 35 -25 59s8 43.667 24 59s37 23 63 23zM290.001 288l140.001 -0.000976562c0 -34 -9.66699 -62.333 -29 -85
s-42.833 -39.5 -70.5 -50.5s-55.5 -21.167 -83.5 -30.5s-51.667 -21.5 -71 -36.5s-29 -34.167 -29 -57.5c0 -72 64.333 -108 193 -108c58.667 0 105.167 12.167 139.5 36.5s51.166 58.833 50.499 103.5h159c0 -48.667 -11.333 -91.167 -34 -127.5s-52.167 -64.333 -88.5 -84
s-74 -34.167 -113 -43.5s-78.833 -14 -119.5 -14c-98.667 0 -179.167 18.167 -241.5 54.5s-93.5 88.833 -93.5 157.5c0 40.667 9.66699 75.334 29 104.001s42.833 50 70.5 64s55.667 26.167 84 36.5s52.833 21.833 73.5 34.5s32 28 34 46z" />
    <glyph glyph-name="Agrave" unicode="&#xc0;" horiz-adv-x="1092" 
d="M553 838v-94l-287 150v116zM206 0h-175l426 700h178l426 -700h-175l-83 144h-513zM547 589l-185 -318h368z" />
    <glyph glyph-name="Aacute" unicode="&#xc1;" horiz-adv-x="1092" 
d="M810 894l-287 -150v94l287 172v-116zM206 0h-175l426 700h178l426 -700h-175l-83 144h-513zM547 589l-185 -318h368z" />
    <glyph glyph-name="Acircumflex" unicode="&#xc2;" horiz-adv-x="1092" 
d="M834 835v-80l-287 164l-287 -164v80l287 186zM457 700h178l426 -700h-175l-83 144h-513l-84 -144h-175zM547 589l-185 -318h368z" />
    <glyph glyph-name="Atilde" unicode="&#xc3;" horiz-adv-x="1092" 
d="M632 772c-20.667 0 -39.3311 6 -55.998 18s-31.334 24 -44.001 36s-24.334 18 -35.001 18c-18.667 0 -33.5 -6 -44.5 -18s-16.833 -29.667 -17.5 -53h-61c0.666992 38.667 12.334 70 35.001 94s52 36 88 36c22.667 0 47 -12 73 -36s46.667 -36 62 -36
c41.333 0 62.333 23.667 63 71h60c-0.666992 -39.333 -12.334 -70.833 -35.001 -94.5s-52 -35.5 -88 -35.5zM206.003 0h-175l426 700h178l426 -700h-175l-83 144h-513zM547.003 589l-185 -318h368z" />
    <glyph glyph-name="Adieresis" unicode="&#xc4;" horiz-adv-x="1092" 
d="M429 780c-60.667 0 -91 27.667 -91 83c0 56 30.333 84 91 84c62 0 93 -28 93 -84c0 -55.333 -31 -83 -93 -83zM667 779c-61.333 0 -92 27.667 -92 83c0 56 30.667 84 92 84c62 0 93 -28 93 -84c0 -55.333 -31 -83 -93 -83zM206 0h-175l426 700h178l426 -700h-175l-83 144
h-513zM547 589l-185 -318h368z" />
    <glyph glyph-name="Aring" unicode="&#xc5;" horiz-adv-x="1092" 
d="M547 738c-70 0 -129.667 9.66699 -179 29s-74 44 -74 74s24.667 54.667 74 74s109 29 179 29c75.333 0 136.333 -9.5 183 -28.5s70 -43.833 70 -74.5s-23.333 -55.5 -70 -74.5s-107.667 -28.5 -183 -28.5zM547 789c26.667 0 48.5 4.5 65.5 13.5s25.5 21.5 25.5 37.5
c0 35.333 -30.333 53 -91 53c-26.667 0 -48.167 -4.5 -64.5 -13.5s-24.5 -21.833 -24.5 -38.5s8.16699 -29.5 24.5 -38.5s37.833 -13.5 64.5 -13.5zM206 0h-175l426 700h178l426 -700h-175l-83 144h-513zM547 589l-185 -318h368z" />
    <glyph glyph-name="AE" unicode="&#xc6;" horiz-adv-x="1436" 
d="M1359 700v-121h-494v-168h485v-111h-485v-179h494v-121h-645v144h-368l-116 -144h-199l597 700h731zM714 601l-271 -337h271v337z" />
    <glyph glyph-name="Ccedilla" unicode="&#xc7;" horiz-adv-x="934" 
d="M472 111c82 0 148.002 17.335 198.002 52.002s76.333 82 79 142h153c0 -92.667 -36 -168 -108 -226s-168.333 -89.333 -289 -94l-28 -54c97.333 -5.33301 173.666 -17.333 228.999 -36s83 -42.667 83 -72c0 -31.333 -39.333 -57.333 -118 -78
s-181.334 -31.334 -308.001 -32.001v55c180.667 0.666992 271 19 271 55s-90.333 55.333 -271 58v53l31 55c-108 13.333 -193.5 52.333 -256.5 117s-94.5 146 -94.5 244c0 110 39 198.5 117 265.5s182 100.5 312 100.5s234.167 -29.333 312.5 -88
s117.5 -136.334 117.5 -233.001h-153c-3.33301 60 -30 107.333 -80 142s-115.667 52 -197 52c-85.333 0 -153 -21.5 -203 -64.5s-75 -101.167 -75 -174.5s25 -131.5 75 -174.5s117.667 -64.5 203 -64.5z" />
    <glyph glyph-name="Egrave" unicode="&#xc8;" horiz-adv-x="868" 
d="M428 838v-94l-287 150v116zM791 0h-705v700h705v-127h-554v-142h495v-118h-495v-186h554v-127z" />
    <glyph glyph-name="Eacute" unicode="&#xc9;" horiz-adv-x="868" 
d="M685 894l-287 -150v94l287 172v-116zM791 0h-705v700h705v-127h-554v-142h495v-118h-495v-186h554v-127z" />
    <glyph glyph-name="Ecircumflex" unicode="&#xca;" horiz-adv-x="868" 
d="M709 835v-80l-287 164l-287 -164v80l287 186zM791 700v-127h-554v-142h495v-118h-495v-186h554v-127h-705v700h705z" />
    <glyph glyph-name="Edieresis" unicode="&#xcb;" horiz-adv-x="868" 
d="M304 780c-60.667 0 -91 27.667 -91 83c0 56 30.333 84 91 84c62 0 93 -28 93 -84c0 -55.333 -31 -83 -93 -83zM542 779c-61.333 0 -92 27.667 -92 83c0 56 30.667 84 92 84c62 0 93 -28 93 -84c0 -55.333 -31 -83 -93 -83zM791 0h-705v700h705v-127h-554v-142h495v-118
h-495v-186h554v-127z" />
    <glyph glyph-name="Igrave" unicode="&#xcc;" horiz-adv-x="323" 
d="M168 838v-94l-287 150v116zM237 0h-151v700h151v-700z" />
    <glyph glyph-name="Iacute" unicode="&#xcd;" horiz-adv-x="323" 
d="M425 894l-287 -150v94l287 172v-116zM237 0h-151v700h151v-700z" />
    <glyph glyph-name="Icircumflex" unicode="&#xce;" horiz-adv-x="323" 
d="M-125 835l287 186l287 -186v-80l-287 164l-287 -164v80zM237 0h-151v700h151v-700z" />
    <glyph glyph-name="Idieresis" unicode="&#xcf;" horiz-adv-x="323" 
d="M44 780c-60.667 0 -91 27.667 -91 83c0 56 30.333 84 91 84c62 0 93 -28 93 -84c0 -55.333 -31 -83 -93 -83zM282 779c-61.333 0 -92 27.667 -92 83c0 56 30.667 84 92 84c62 0 93 -28 93 -84c0 -55.333 -31 -83 -93 -83zM237 0h-151v700h151v-700z" />
    <glyph glyph-name="Eth" unicode="&#xd0;" horiz-adv-x="868" 
d="M86 700h331c128 0 228 -30 300 -90s108 -146.667 108 -260c0 -114 -36 -200.833 -108 -260.5s-172 -89.5 -300 -89.5h-331v290h-66v121h66v289zM237 127h180c82 0 145.333 19.333 190 58s67 93.667 67 165c0 72 -22.333 127.167 -67 165.5s-108 57.5 -190 57.5h-180v-162
h283v-121h-283v-163z" />
    <glyph glyph-name="Ntilde" unicode="&#xd1;" horiz-adv-x="972" 
d="M574 772c-20.667 0 -39.3311 6 -55.998 18s-31.334 24 -44.001 36s-24.334 18 -35.001 18c-18.667 0 -33.5 -6 -44.5 -18s-16.833 -29.667 -17.5 -53h-61c0.666992 38.667 12.334 70 35.001 94s52 36 88 36c22.667 0 47 -12 73 -36s46.667 -36 62 -36
c41.333 0 62.333 23.667 63 71h60c-0.666992 -39.333 -12.334 -70.833 -35.001 -94.5s-52 -35.5 -88 -35.5zM237.003 0h-151v700h134l515 -488v488h150v-700h-134l-514 487v-487z" />
    <glyph glyph-name="Ograve" unicode="&#xd2;" horiz-adv-x="945" 
d="M496 838v-94l-287 150v116zM472 -16c-130 0 -234 33.5 -312 100.5s-117 155.5 -117 265.5s39 198.5 117 265.5s182 100.5 312 100.5s234.167 -33.5 312.5 -100.5s117.5 -155.5 117.5 -265.5s-39.167 -198.5 -117.5 -265.5s-182.5 -100.5 -312.5 -100.5zM472 111
c85.333 0 153.166 21.5 203.499 64.5s75.5 101.167 75.5 174.5s-25.167 131.5 -75.5 174.5s-118.166 64.5 -203.499 64.5s-153 -21.5 -203 -64.5s-75 -101.167 -75 -174.5s25 -131.5 75 -174.5s117.667 -64.5 203 -64.5z" />
    <glyph glyph-name="Oacute" unicode="&#xd3;" horiz-adv-x="945" 
d="M753 894l-287 -150v94l287 172v-116zM472 -16c-130 0 -234 33.5 -312 100.5s-117 155.5 -117 265.5s39 198.5 117 265.5s182 100.5 312 100.5s234.167 -33.5 312.5 -100.5s117.5 -155.5 117.5 -265.5s-39.167 -198.5 -117.5 -265.5s-182.5 -100.5 -312.5 -100.5zM472 111
c85.333 0 153.166 21.5 203.499 64.5s75.5 101.167 75.5 174.5s-25.167 131.5 -75.5 174.5s-118.166 64.5 -203.499 64.5s-153 -21.5 -203 -64.5s-75 -101.167 -75 -174.5s25 -131.5 75 -174.5s117.667 -64.5 203 -64.5z" />
    <glyph glyph-name="Ocircumflex" unicode="&#xd4;" horiz-adv-x="945" 
d="M777 835v-80l-287 164l-287 -164v80l287 186zM472 716c130 0 234.167 -33.5 312.5 -100.5s117.5 -155.5 117.5 -265.5s-39.167 -198.5 -117.5 -265.5s-182.5 -100.5 -312.5 -100.5s-234 33.5 -312 100.5s-117 155.5 -117 265.5s39 198.5 117 265.5s182 100.5 312 100.5z
M472 111c85.333 0 153.166 21.5 203.499 64.5s75.5 101.167 75.5 174.5s-25.167 131.5 -75.5 174.5s-118.166 64.5 -203.499 64.5s-153 -21.5 -203 -64.5s-75 -101.167 -75 -174.5s25 -131.5 75 -174.5s117.667 -64.5 203 -64.5z" />
    <glyph glyph-name="Otilde" unicode="&#xd5;" horiz-adv-x="945" 
d="M575 772c-20.667 0 -39.3311 6 -55.998 18s-31.334 24 -44.001 36s-24.334 18 -35.001 18c-18.667 0 -33.5 -6 -44.5 -18s-16.833 -29.667 -17.5 -53h-61c0.666992 38.667 12.334 70 35.001 94s52 36 88 36c22.667 0 47 -12 73 -36s46.667 -36 62 -36
c41.333 0 62.333 23.667 63 71h60c-0.666992 -39.333 -12.334 -70.833 -35.001 -94.5s-52 -35.5 -88 -35.5zM472.003 -16c-130 0 -234 33.5 -312 100.5s-117 155.5 -117 265.5s39 198.5 117 265.5s182 100.5 312 100.5s234.167 -33.5 312.5 -100.5
s117.5 -155.5 117.5 -265.5s-39.167 -198.5 -117.5 -265.5s-182.5 -100.5 -312.5 -100.5zM472.003 111c85.333 0 153.166 21.5 203.499 64.5s75.5 101.167 75.5 174.5s-25.167 131.5 -75.5 174.5s-118.166 64.5 -203.499 64.5s-153 -21.5 -203 -64.5
s-75 -101.167 -75 -174.5s25 -131.5 75 -174.5s117.667 -64.5 203 -64.5z" />
    <glyph glyph-name="Odieresis" unicode="&#xd6;" horiz-adv-x="945" 
d="M372 780c-60.667 0 -91 27.667 -91 83c0 56 30.333 84 91 84c62 0 93 -28 93 -84c0 -55.333 -31 -83 -93 -83zM610 779c-61.333 0 -92 27.667 -92 83c0 56 30.667 84 92 84c62 0 93 -28 93 -84c0 -55.333 -31 -83 -93 -83zM472 -16c-130 0 -234 33.5 -312 100.5
s-117 155.5 -117 265.5s39 198.5 117 265.5s182 100.5 312 100.5s234.167 -33.5 312.5 -100.5s117.5 -155.5 117.5 -265.5s-39.167 -198.5 -117.5 -265.5s-182.5 -100.5 -312.5 -100.5zM472 111c85.333 0 153.166 21.5 203.499 64.5s75.5 101.167 75.5 174.5
s-25.167 131.5 -75.5 174.5s-118.166 64.5 -203.499 64.5s-153 -21.5 -203 -64.5s-75 -101.167 -75 -174.5s25 -131.5 75 -174.5s117.667 -64.5 203 -64.5z" />
    <glyph glyph-name="multiply" unicode="&#xd7;" horiz-adv-x="600" 
d="M290 245l-141 -141l-85 86l140 141l-141 141l86 85l141 -140l141 141l85 -86l-140 -141l140 -141l-85 -86z" />
    <glyph glyph-name="Oslash" unicode="&#xd8;" horiz-adv-x="945" 
d="M831 700l145 0.000976562l-150 -126c50.667 -62 76 -136.667 76 -224c0 -110 -39.167 -198.5 -117.5 -265.5s-182.5 -100.5 -312.5 -100.5c-104.667 0 -193.667 22.667 -267 68l-61 -52h-145l133 112c-59.333 63.333 -89 142.666 -89 237.999c0 110 39 198.5 117 265.5
s182 100.5 312 100.5c114.667 0 209.667 -26.333 285 -79zM194 350.001c0 -57.333 16 -106 48 -146l405 341c-46.667 29.333 -105 44 -175 44c-85.333 0 -153 -21.5 -203 -64.5s-75 -101.167 -75 -174.5zM751 350.001c0 49.333 -11.999 92.667 -35.999 130l-399 -336
c45.333 -22 97.333 -33 156 -33c85.333 0 153.166 21.5 203.499 64.5s75.5 101.167 75.5 174.5z" />
    <glyph glyph-name="Ugrave" unicode="&#xd9;" horiz-adv-x="911" 
d="M462 838v-94l-287 150v116zM456 -16c-60 0 -111.668 6.33301 -155.001 19s-81.666 33.334 -114.999 62.001s-58.333 68.334 -75 119.001s-25 112.667 -25 186v330h151v-360c0 -150.667 73 -226 219 -226c145.333 0 218 75.333 218 226v360h151v-330
c0 -73.333 -8.33301 -135.333 -25 -186s-41.5 -90.334 -74.5 -119.001s-71.167 -49.334 -114.5 -62.001s-95 -19 -155 -19z" />
    <glyph glyph-name="Uacute" unicode="&#xda;" horiz-adv-x="911" 
d="M719 894l-287 -150v94l287 172v-116zM456 -16c-60 0 -111.668 6.33301 -155.001 19s-81.666 33.334 -114.999 62.001s-58.333 68.334 -75 119.001s-25 112.667 -25 186v330h151v-360c0 -150.667 73 -226 219 -226c145.333 0 218 75.333 218 226v360h151v-330
c0 -73.333 -8.33301 -135.333 -25 -186s-41.5 -90.334 -74.5 -119.001s-71.167 -49.334 -114.5 -62.001s-95 -19 -155 -19z" />
    <glyph glyph-name="Ucircumflex" unicode="&#xdb;" horiz-adv-x="911" 
d="M743 835v-80l-287 164l-287 -164v80l287 186zM674 340l-0.000976562 360h151v-330c0 -73.333 -8.33301 -135.333 -25 -186s-41.5 -90.334 -74.5 -119.001s-71.167 -49.334 -114.5 -62.001s-95 -19 -155 -19s-111.667 6.33301 -155 19s-81.666 33.334 -114.999 62.001
s-58.333 68.334 -75 119.001s-25 112.667 -25 186v330h151v-360c0 -150.667 73 -226 219 -226c145.333 0 218 75.333 218 226z" />
    <glyph glyph-name="Udieresis" unicode="&#xdc;" horiz-adv-x="911" 
d="M338 780c-60.667 0 -91 27.667 -91 83c0 56 30.333 84 91 84c62 0 93 -28 93 -84c0 -55.333 -31 -83 -93 -83zM576 779c-61.333 0 -92 27.667 -92 83c0 56 30.667 84 92 84c62 0 93 -28 93 -84c0 -55.333 -31 -83 -93 -83zM456 -16c-60 0 -111.668 6.33301 -155.001 19
s-81.666 33.334 -114.999 62.001s-58.333 68.334 -75 119.001s-25 112.667 -25 186v330h151v-360c0 -150.667 73 -226 219 -226c145.333 0 218 75.333 218 226v360h151v-330c0 -73.333 -8.33301 -135.333 -25 -186s-41.5 -90.334 -74.5 -119.001
s-71.167 -49.334 -114.5 -62.001s-95 -19 -155 -19z" />
    <glyph glyph-name="Yacute" unicode="&#xdd;" horiz-adv-x="926" 
d="M726 894l-287 -150v94l287 172v-116zM538 0h-150v226l-363 474h185l253 -347l253 347h185l-363 -473v-227z" />
    <glyph glyph-name="Thorn" unicode="&#xde;" horiz-adv-x="831" 
d="M240 500l336 0.000976562c70.667 0 127.5 -20.667 170.5 -62s64.5 -92 64.5 -152c0 -68.667 -21.667 -121.334 -65 -158.001s-100 -55 -170 -55h-335v-73h-155v700h154v-200zM241 190.001l310 0.000976562c32.667 0 59 8.66699 79 26s30 40.666 30 69.999
s-10 52.833 -30 70.5s-46.333 26.5 -79 26.5h-311z" />
    <glyph glyph-name="germandbls" unicode="&#xdf;" horiz-adv-x="866" 
d="M473 357l-0.000976562 -9.00293c122 -4 210.833 -18.833 266.5 -44.5s83.5 -64.5 83.5 -116.5c0 -33.333 -6.66699 -62.166 -20 -86.499s-31.5 -44 -54.5 -59s-52.5 -27 -88.5 -36s-73.667 -15 -113 -18s-84.666 -4.16699 -135.999 -3.5
c-44 1.33301 -77.667 2.66602 -101 3.99902v126c32 -2 62.333 -3 91 -3c101.333 0 173.333 5.83301 216 17.5s64 34.834 64 69.501c0 24 -9.66699 42.333 -29 55s-55 23.167 -107 31.5s-130.333 15.5 -235 21.5v91c99.333 6 173.833 13 223.5 21s83.334 18 101.001 30
s26.5 28.667 26.5 50c0 32 -20 53.5 -60 64.5s-107 16.5 -201 16.5h-189v-579h-150v700h349c36.667 0 66.667 -0.333008 90 -1s50.166 -2.16699 80.499 -4.5s55.166 -5.83301 74.499 -10.5s39.333 -11.167 60 -19.5s36.667 -18.666 48 -30.999s20.833 -27.666 28.5 -45.999
s11.5 -39.166 11.5 -62.499c0 -58.667 -26.167 -101.334 -78.5 -128.001s-136.166 -40 -251.499 -40z" />
    <glyph glyph-name="agrave" unicode="&#xe0;" horiz-adv-x="681" 
d="M376 638v-94l-287 150v116zM229 -16c-124 0 -186.003 44 -186.003 132c0 20 5.33301 38.167 16 54.5s23.834 30.166 39.501 41.499s36.667 21.5 63 30.5s50.833 16.167 73.5 21.5s50.834 10.333 84.501 15s61.334 7.83398 83.001 9.50098l81.5 6.5
c-0.666992 36 -11.834 61.5 -33.501 76.5s-56.167 22.5 -103.5 22.5c-77.333 0 -157.666 -18 -240.999 -54v122c97.333 36 191 54 281 54c164.667 0 247 -78 247 -234v-282h-147l26 169h-9c-16 -63.333 -46.667 -110 -92 -140s-106.333 -45 -183 -45zM291.997 89
c51.333 0 95.667 11.667 133 35s56.333 56 57 98c-102.667 -8 -167.667 -15 -195 -21c-58 -12.667 -87 -32.667 -87 -60c0 -16 8.33301 -28.667 25 -38s39 -14 67 -14z" />
    <glyph glyph-name="aacute" unicode="&#xe1;" horiz-adv-x="681" 
d="M633 694l-287 -150v94l287 172v-116zM229 -16c-124 0 -186.003 44 -186.003 132c0 20 5.33301 38.167 16 54.5s23.834 30.166 39.501 41.499s36.667 21.5 63 30.5s50.833 16.167 73.5 21.5s50.834 10.333 84.501 15s61.334 7.83398 83.001 9.50098l81.5 6.5
c-0.666992 36 -11.834 61.5 -33.501 76.5s-56.167 22.5 -103.5 22.5c-77.333 0 -157.666 -18 -240.999 -54v122c97.333 36 191 54 281 54c164.667 0 247 -78 247 -234v-282h-147l26 169h-9c-16 -63.333 -46.667 -110 -92 -140s-106.333 -45 -183 -45zM291.997 89
c51.333 0 95.667 11.667 133 35s56.333 56 57 98c-102.667 -8 -167.667 -15 -195 -21c-58 -12.667 -87 -32.667 -87 -60c0 -16 8.33301 -28.667 25 -38s39 -14 67 -14z" />
    <glyph glyph-name="acircumflex" unicode="&#xe2;" horiz-adv-x="681" 
d="M83 635l287 186l287 -186v-80l-287 164l-287 -164v80zM387 516c164.667 0 246.997 -78 246.997 -234v-282h-147l26 169h-9c-16 -63.333 -46.667 -110 -92 -140s-106.333 -45 -183 -45c-124 0 -186 44 -186 132c0 20 5.33301 38.167 16 54.5s23.834 30.166 39.501 41.499
s36.667 21.5 63 30.5s50.833 16.167 73.5 21.5s50.834 10.333 84.501 15s61.334 7.83398 83.001 9.50098l81.5 6.5c-0.666992 36 -11.834 61.5 -33.501 76.5s-56.167 22.5 -103.5 22.5c-77.333 0 -157.666 -18 -240.999 -54v122c97.333 36 191 54 281 54zM291.997 89
c51.333 0 95.667 11.667 133 35s56.333 56 57 98c-102.667 -8 -167.667 -15 -195 -21c-58 -12.667 -87 -32.667 -87 -60c0 -16 8.33301 -28.667 25 -38s39 -14 67 -14z" />
    <glyph glyph-name="atilde" unicode="&#xe3;" horiz-adv-x="681" 
d="M455 572c-20.667 0 -39.3311 6 -55.998 18s-31.334 24 -44.001 36s-24.334 18 -35.001 18c-18.667 0 -33.5 -6 -44.5 -18s-16.833 -29.667 -17.5 -53h-61c0.666992 38.667 12.334 70 35.001 94s52 36 88 36c22.667 0 47 -12 73 -36s46.667 -36 62 -36
c41.333 0 62.333 23.667 63 71h60c-0.666992 -39.333 -12.334 -70.833 -35.001 -94.5s-52 -35.5 -88 -35.5zM229.003 -16c-124 0 -186.003 44 -186.003 132c0 20 5.33301 38.167 16 54.5s23.834 30.166 39.501 41.499s36.667 21.5 63 30.5s50.833 16.167 73.5 21.5
s50.834 10.333 84.501 15s61.334 7.83398 83.001 9.50098l81.5 6.5c-0.666992 36 -11.834 61.5 -33.501 76.5s-56.167 22.5 -103.5 22.5c-77.333 0 -157.666 -18 -240.999 -54v122c97.333 36 191 54 281 54c164.667 0 247 -78 247 -234v-282h-147l26 169h-9
c-16 -63.333 -46.667 -110 -92 -140s-106.333 -45 -183 -45zM292 89c51.333 0 95.667 11.667 133 35s56.333 56 57 98c-102.667 -8 -167.667 -15 -195 -21c-58 -12.667 -87 -32.667 -87 -60c0 -16 8.33301 -28.667 25 -38s39 -14 67 -14z" />
    <glyph glyph-name="adieresis" unicode="&#xe4;" horiz-adv-x="681" 
d="M252 580c-60.667 0 -91 27.667 -91 83c0 56 30.333 84 91 84c62 0 93 -28 93 -84c0 -55.333 -31 -83 -93 -83zM490 579c-61.333 0 -92 27.667 -92 83c0 56 30.667 84 92 84c62 0 93 -28 93 -84c0 -55.333 -31 -83 -93 -83zM229 -16c-124 0 -186.003 44 -186.003 132
c0 20 5.33301 38.167 16 54.5s23.834 30.166 39.501 41.499s36.667 21.5 63 30.5s50.833 16.167 73.5 21.5s50.834 10.333 84.501 15s61.334 7.83398 83.001 9.50098l81.5 6.5c-0.666992 36 -11.834 61.5 -33.501 76.5s-56.167 22.5 -103.5 22.5
c-77.333 0 -157.666 -18 -240.999 -54v122c97.333 36 191 54 281 54c164.667 0 247 -78 247 -234v-282h-147l26 169h-9c-16 -63.333 -46.667 -110 -92 -140s-106.333 -45 -183 -45zM291.997 89c51.333 0 95.667 11.667 133 35s56.333 56 57 98
c-102.667 -8 -167.667 -15 -195 -21c-58 -12.667 -87 -32.667 -87 -60c0 -16 8.33301 -28.667 25 -38s39 -14 67 -14z" />
    <glyph glyph-name="aring" unicode="&#xe5;" horiz-adv-x="681" 
d="M370 538c-70 0 -129.667 9.66699 -179 29s-74 44 -74 74s24.667 54.667 74 74s109 29 179 29c75.333 0 136.333 -9.5 183 -28.5s70 -43.833 70 -74.5s-23.333 -55.5 -70 -74.5s-107.667 -28.5 -183 -28.5zM370 589c26.667 0 48.5 4.5 65.5 13.5s25.5 21.5 25.5 37.5
c0 35.333 -30.333 53 -91 53c-26.667 0 -48.167 -4.5 -64.5 -13.5s-24.5 -21.833 -24.5 -38.5s8.16699 -29.5 24.5 -38.5s37.833 -13.5 64.5 -13.5zM229 -16c-124 0 -186.003 44 -186.003 132c0 20 5.33301 38.167 16 54.5s23.834 30.166 39.501 41.499s36.667 21.5 63 30.5
s50.833 16.167 73.5 21.5s50.834 10.333 84.501 15s61.334 7.83398 83.001 9.50098l81.5 6.5c-0.666992 36 -11.834 61.5 -33.501 76.5s-56.167 22.5 -103.5 22.5c-77.333 0 -157.666 -18 -240.999 -54v122c97.333 36 191 54 281 54c164.667 0 247 -78 247 -234v-282h-147
l26 169h-9c-16 -63.333 -46.667 -110 -92 -140s-106.333 -45 -183 -45zM291.997 89c51.333 0 95.667 11.667 133 35s56.333 56 57 98c-102.667 -8 -167.667 -15 -195 -21c-58 -12.667 -87 -32.667 -87 -60c0 -16 8.33301 -28.667 25 -38s39 -14 67 -14z" />
    <glyph glyph-name="ae" unicode="&#xe6;" horiz-adv-x="1130" 
d="M229 -16c-124 0 -186.006 43.999 -186.006 131.999c0 28.667 10.5 53.667 31.5 75s45.833 37.5 74.5 48.5s64 20.167 106 27.5s77.5 12.166 106.5 14.499s60.833 4.5 95.5 6.5c10.667 0.666992 18.334 1 23.001 1c0 42.667 -9.83301 70.834 -29.5 84.501
s-54.167 20.5 -103.5 20.5c-79.333 0 -159.666 -17.667 -240.999 -53v121c97.333 36 191 54 281 54c85.333 0 147 -23.667 185 -71c54.667 47.333 126 71 214 71c89.333 0 161.5 -20.833 216.5 -62.5s83.167 -96.5 84.5 -164.5v-82h-457
c8.66699 -38 29.334 -65.5 62.001 -82.5s80.667 -25.5 144 -25.5c19.333 0 38 0.833008 56 2.5s32.833 3.66699 44.5 6s24.667 5.83301 39 10.5s24.833 8.33398 31.5 11.001s16.834 7 30.501 13l27.5 12v-121c-50 -18.667 -93.667 -31.5 -131 -38.5
s-86.666 -10.5 -147.999 -10.5c-73.333 0 -135.5 16.167 -186.5 48.5s-85.167 76.833 -102.5 133.5c-25.333 -121.333 -114.666 -182 -267.999 -182zM626.994 275.999l316.001 7c-1.33301 42 -14.833 71.833 -40.5 89.5s-64.5 26.5 -116.5 26.5
c-50 0 -87.833 -9.5 -113.5 -28.5s-40.834 -50.5 -45.501 -94.5zM291.995 88.999c50 0 93.167 11.499 129.5 34.499s54.833 55.167 55.5 96.5c-7.33301 -0.666992 -19.5 -1.5 -36.5 -2.5s-30.5 -1.83301 -40.5 -2.5s-23.333 -1.66699 -40 -3s-30.334 -3 -41.001 -5
s-23 -4.16699 -37 -6.5s-25.167 -5.5 -33.5 -9.5s-16.666 -8.33301 -24.999 -13s-14.333 -10.167 -18 -16.5s-5.5 -13.166 -5.5 -20.499c0 -16 8.33301 -28.667 25 -38s39 -14 67 -14z" />
    <glyph glyph-name="ccedilla" unicode="&#xe7;" horiz-adv-x="642" 
d="M388 -16l-27.9961 -52.998c97.333 -5.33301 173.666 -17.333 228.999 -36s83 -42.667 83 -72c0 -31.333 -39.333 -57.333 -118 -78s-181.334 -31.334 -308.001 -32.001v55c180.667 0.666992 271 19 271 55s-90.333 55.333 -271 58v53l33 58
c-71.333 14 -128.5 44 -171.5 90s-64.5 102 -64.5 168c0 80 29.667 144.333 89 193s138 73 236 73c78.667 0 155.667 -17 231 -51v-128c-72.667 41.333 -149.667 62 -231 62c-54.667 0 -98 -13.667 -130 -41s-48 -63.333 -48 -108s17 -80.667 51 -108s79.667 -41 137 -41
c83.333 0 157 19.667 221 59v-125c-40.667 -18 -75.834 -30.833 -105.501 -38.5s-64.834 -11.834 -105.501 -12.501z" />
    <glyph glyph-name="egrave" unicode="&#xe8;" horiz-adv-x="688" 
d="M367 638v-94l-287 150v116zM344 -16c-90.667 0 -163.503 24.332 -218.503 72.999s-82.5 113 -82.5 193s27.5 144.333 82.5 193s127.833 73 218.5 73c89.333 0 161.5 -20.833 216.5 -62.5s83.167 -96.5 84.5 -164.5v-82h-452c8 -38 27.833 -65.5 59.5 -82.5
s78.834 -25.5 141.501 -25.5c19.333 0 38 0.833008 56 2.5s32.833 3.66699 44.5 6s24.667 5.83301 39 10.5s24.833 8.33398 31.5 11.001s16.834 7 30.501 13l27.5 12v-121c-50 -18.667 -93.667 -31.5 -131 -38.5s-86.666 -10.5 -147.999 -10.5zM189.997 275.999l312 7
c-1.33301 35.333 -16.5 63.5 -45.5 84.5s-66.5 31.5 -112.5 31.5c-42.667 0 -78 -11 -106 -33s-44 -52 -48 -90z" />
    <glyph glyph-name="eacute" unicode="&#xe9;" horiz-adv-x="688" 
d="M607 694l-287 -150v94l287 172v-116zM344 -16c-90.667 0 -163.503 24.332 -218.503 72.999s-82.5 113 -82.5 193s27.5 144.333 82.5 193s127.833 73 218.5 73c89.333 0 161.5 -20.833 216.5 -62.5s83.167 -96.5 84.5 -164.5v-82h-452c8 -38 27.833 -65.5 59.5 -82.5
s78.834 -25.5 141.501 -25.5c19.333 0 38 0.833008 56 2.5s32.833 3.66699 44.5 6s24.667 5.83301 39 10.5s24.833 8.33398 31.5 11.001s16.834 7 30.501 13l27.5 12v-121c-50 -18.667 -93.667 -31.5 -131 -38.5s-86.666 -10.5 -147.999 -10.5zM189.997 275.999l312 7
c-1.33301 35.333 -16.5 63.5 -45.5 84.5s-66.5 31.5 -112.5 31.5c-42.667 0 -78 -11 -106 -33s-44 -52 -48 -90z" />
    <glyph glyph-name="ecircumflex" unicode="&#xea;" horiz-adv-x="688" 
d="M631 635v-80l-287 164l-287 -164v80l287 186zM645 289l-0.00292969 -82.001h-452c8 -38 27.833 -65.5 59.5 -82.5s78.834 -25.5 141.501 -25.5c19.333 0 38 0.833008 56 2.5s32.833 3.66699 44.5 6s24.667 5.83301 39 10.5s24.833 8.33398 31.5 11.001
s16.834 7 30.501 13l27.5 12v-121c-50 -18.667 -93.667 -31.5 -131 -38.5s-86.666 -10.5 -147.999 -10.5c-90.667 0 -163.5 24.333 -218.5 73s-82.5 113 -82.5 193s27.5 144.333 82.5 193s127.833 73 218.5 73c89.333 0 161.5 -20.833 216.5 -62.5s83.167 -96.5 84.5 -164.5
zM189.997 275.999l312 7c-1.33301 35.333 -16.5 63.5 -45.5 84.5s-66.5 31.5 -112.5 31.5c-42.667 0 -78 -11 -106 -33s-44 -52 -48 -90z" />
    <glyph glyph-name="edieresis" unicode="&#xeb;" horiz-adv-x="688" 
d="M227 580c-60.667 0 -91 27.667 -91 83c0 56 30.333 84 91 84c62 0 93 -28 93 -84c0 -55.333 -31 -83 -93 -83zM465 579c-61.333 0 -92 27.667 -92 83c0 56 30.667 84 92 84c62 0 93 -28 93 -84c0 -55.333 -31 -83 -93 -83zM344 -16
c-90.667 0 -163.503 24.332 -218.503 72.999s-82.5 113 -82.5 193s27.5 144.333 82.5 193s127.833 73 218.5 73c89.333 0 161.5 -20.833 216.5 -62.5s83.167 -96.5 84.5 -164.5v-82h-452c8 -38 27.833 -65.5 59.5 -82.5s78.834 -25.5 141.501 -25.5
c19.333 0 38 0.833008 56 2.5s32.833 3.66699 44.5 6s24.667 5.83301 39 10.5s24.833 8.33398 31.5 11.001s16.834 7 30.501 13l27.5 12v-121c-50 -18.667 -93.667 -31.5 -131 -38.5s-86.666 -10.5 -147.999 -10.5zM189.997 275.999l312 7
c-1.33301 35.333 -16.5 63.5 -45.5 84.5s-66.5 31.5 -112.5 31.5c-42.667 0 -78 -11 -106 -33s-44 -52 -48 -90z" />
    <glyph glyph-name="igrave" unicode="&#xec;" horiz-adv-x="265" 
d="M140 638v-94l-287 150v116zM209 0h-151v500h151v-500z" />
    <glyph glyph-name="iacute" unicode="&#xed;" horiz-adv-x="265" 
d="M397 694l-287 -150v94l287 172v-116zM209 0h-151v500h151v-500z" />
    <glyph glyph-name="icircumflex" unicode="&#xee;" horiz-adv-x="265" 
d="M-153 635l287 186l287 -186v-80l-287 164l-287 -164v80zM209 0h-151v500h151v-500z" />
    <glyph glyph-name="idieresis" unicode="&#xef;" horiz-adv-x="265" 
d="M16 580c-60.667 0 -91 27.667 -91 83c0 56 30.333 84 91 84c62.667 0 94 -28 94 -84c0 -55.333 -31.333 -83 -94 -83zM254 579c-60.667 0 -91 27.667 -91 83c0 56 30.333 84 91 84c62 0 93 -28 93 -84c0 -55.333 -31 -83 -93 -83zM209 0h-151v500h151v-500z" />
    <glyph glyph-name="eth" unicode="&#xf0;" horiz-adv-x="824" 
d="M778 714l28.999 -84.999l-98 -28c56 -67.333 84 -147 84 -239c0 -124.667 -34.667 -218.167 -104 -280.5s-167 -93.5 -293 -93.5c-115.333 0 -205.166 21.167 -269.499 63.5s-96.5 99.166 -96.5 170.499c0 72 26.667 129.667 80 173s133 65 239 65
c64.667 0 121.667 -13.167 171 -39.5s90 -58.5 122 -96.5c0.666992 8 1 20.667 1 38c0 74 -22.333 140.667 -67 200l-209 -61l-28 86l161 47c-46 29.333 -99.667 46 -161 50l4 71c112 0 208.333 -27.667 289 -83zM404.999 109.001c122.667 0 197.668 48.667 225.001 146
c-26.667 31.333 -64 57.666 -112 78.999s-96 32 -144 32c-58.667 0 -105.334 -11.667 -140.001 -35s-52 -54.666 -52 -93.999s20.667 -70.5 62 -93.5s95 -34.5 161 -34.5z" />
    <glyph glyph-name="ntilde" unicode="&#xf1;" 
d="M476 572c-20.667 0 -39.3311 6 -55.998 18s-31.334 24 -44.001 36s-24.334 18 -35.001 18c-18.667 0 -33.5 -6 -44.5 -18s-16.833 -29.667 -17.5 -53h-61c0.666992 38.667 12.334 70 35.001 94s52 36 88 36c22.667 0 47 -12 73 -36s46.667 -36 62 -36
c41.333 0 62.333 23.667 63 71h60c-0.666992 -39.333 -12.334 -70.833 -35.001 -94.5s-52 -35.5 -88 -35.5zM213.003 0l-150.001 0.00195312v500h164l-20 -206h9c24 148 106 222 246 222c72.667 -1.33301 125.334 -24.333 158.001 -69s49 -121.334 49 -230.001v-217h-150
v200c0 73.333 -10.5 125.5 -31.5 156.5s-55.167 46.5 -102.5 46.5c-52 0 -93.667 -23.833 -125 -71.5s-47 -110.834 -47 -189.501v-142z" />
    <glyph glyph-name="ograve" unicode="&#xf2;" 
d="M365 638v-94l-287 150v116zM358 -16c-94.667 0 -170.834 24.333 -228.501 73s-86.5 113 -86.5 193s28.833 144.333 86.5 193s133.834 73 228.501 73s170.667 -24.333 228 -73s86 -113 86 -193s-28.667 -144.333 -86 -193s-133.333 -73 -228 -73zM358 101
c52 0 94 13.667 126 41s48 63.333 48 108s-16 80.667 -48 108s-74 41 -126 41s-94 -13.667 -126 -41s-48 -63.333 -48 -108s16 -80.667 48 -108s74 -41 126 -41z" />
    <glyph glyph-name="oacute" unicode="&#xf3;" 
d="M622 694l-287 -150v94l287 172v-116zM358 -16c-94.667 0 -170.834 24.333 -228.501 73s-86.5 113 -86.5 193s28.833 144.333 86.5 193s133.834 73 228.501 73s170.667 -24.333 228 -73s86 -113 86 -193s-28.667 -144.333 -86 -193s-133.333 -73 -228 -73zM358 101
c52 0 94 13.667 126 41s48 63.333 48 108s-16 80.667 -48 108s-74 41 -126 41s-94 -13.667 -126 -41s-48 -63.333 -48 -108s16 -80.667 48 -108s74 -41 126 -41z" />
    <glyph glyph-name="ocircumflex" unicode="&#xf4;" 
d="M646 635v-80l-287 164l-287 -164v80l287 186zM358 516c94.667 0 170.667 -24.333 228 -73s86 -113 86 -193s-28.667 -144.333 -86 -193s-133.333 -73 -228 -73s-170.834 24.333 -228.501 73s-86.5 113 -86.5 193s28.833 144.333 86.5 193s133.834 73 228.501 73zM358 101
c52 0 94 13.667 126 41s48 63.333 48 108s-16 80.667 -48 108s-74 41 -126 41s-94 -13.667 -126 -41s-48 -63.333 -48 -108s16 -80.667 48 -108s74 -41 126 -41z" />
    <glyph glyph-name="otilde" unicode="&#xf5;" 
d="M444 572c-20.667 0 -39.3311 6 -55.998 18s-31.334 24 -44.001 36s-24.334 18 -35.001 18c-18.667 0 -33.5 -6 -44.5 -18s-16.833 -29.667 -17.5 -53h-61c0.666992 38.667 12.334 70 35.001 94s52 36 88 36c22.667 0 47 -12 73 -36s46.667 -36 62 -36
c41.333 0 62.333 23.667 63 71h60c-0.666992 -39.333 -12.334 -70.833 -35.001 -94.5s-52 -35.5 -88 -35.5zM358.003 -16c-94.667 0 -170.834 24.333 -228.501 73s-86.5 113 -86.5 193s28.833 144.333 86.5 193s133.834 73 228.501 73s170.667 -24.333 228 -73
s86 -113 86 -193s-28.667 -144.333 -86 -193s-133.333 -73 -228 -73zM358.003 101c52 0 94 13.667 126 41s48 63.333 48 108s-16 80.667 -48 108s-74 41 -126 41s-94 -13.667 -126 -41s-48 -63.333 -48 -108s16 -80.667 48 -108s74 -41 126 -41z" />
    <glyph glyph-name="odieresis" unicode="&#xf6;" 
d="M241 580c-61.333 0 -92 27.667 -92 83c0 56 30.667 84 92 84c62 0 93 -28 93 -84c0 -55.333 -31 -83 -93 -83zM478 579c-60.667 0 -91 27.667 -91 83c0 56 30.333 84 91 84c62.667 0 94 -28 94 -84c0 -55.333 -31.333 -83 -94 -83zM358 -16
c-94.667 0 -170.834 24.333 -228.501 73s-86.5 113 -86.5 193s28.833 144.333 86.5 193s133.834 73 228.501 73s170.667 -24.333 228 -73s86 -113 86 -193s-28.667 -144.333 -86 -193s-133.333 -73 -228 -73zM358 101c52 0 94 13.667 126 41s48 63.333 48 108
s-16 80.667 -48 108s-74 41 -126 41s-94 -13.667 -126 -41s-48 -63.333 -48 -108s16 -80.667 48 -108s74 -41 126 -41z" />
    <glyph glyph-name="divide" unicode="&#xf7;" horiz-adv-x="600" 
d="M297 445c-24.667 0 -45.166 7.5 -61.499 22.5s-24.5 34.5 -24.5 58.5s8.16699 43.667 24.5 59s36.833 23 61.5 23c25.333 0 46.166 -7.66699 62.499 -23s24.5 -35 24.5 -59s-8 -43.5 -24 -58.5s-37 -22.5 -63 -22.5zM556.001 243h-520v121h520v-121zM297.001 -14
c-24.667 0 -45.166 7.5 -61.499 22.5s-24.5 34.5 -24.5 58.5s8.16699 43.667 24.5 59s36.833 23 61.5 23c25.333 0 46.166 -7.66699 62.499 -23s24.5 -35 24.5 -59s-8 -43.5 -24 -58.5s-37 -22.5 -63 -22.5z" />
    <glyph glyph-name="oslash" unicode="&#xf8;" 
d="M586 500l144.999 -0.000976562l-110 -93c34 -43.333 51 -95.666 51 -156.999c0 -80 -28.667 -144.333 -86 -193s-133.333 -73 -228 -73c-72 0 -134.333 14.667 -187 44l-34 -28h-145l106 89c-36.667 45.333 -55 99 -55 161c0 80 28.833 144.333 86.5 193
s133.834 73 228.501 73c74 0 137.667 -15.667 191 -47zM183.999 249.999c0 -26.667 6.33301 -51 19 -73l243 205c-26 11.333 -55.333 17 -88 17c-52 0 -94 -13.667 -126 -41s-48 -63.333 -48 -108zM531.999 249.999c0 24.667 -5.33301 47.667 -16 69l-241 -203
c24 -10 51.667 -15 83 -15c52 0 94 13.667 126 41s48 63.333 48 108z" />
    <glyph glyph-name="ugrave" unicode="&#xf9;" 
d="M343 638v-94l-287 150v116zM503 500l150.001 -0.00195312v-500h-164l20 206h-8c-24 -148 -106.333 -222 -247 -222c-72.667 1.33301 -125.334 24.333 -158.001 69s-49 121.334 -49 230.001v217h150v-200c0 -73.333 10.5 -125.5 31.5 -156.5s55.5 -46.5 103.5 -46.5
c52 0 93.5 23.833 124.5 71.5s46.5 110.834 46.5 189.501v142z" />
    <glyph glyph-name="uacute" unicode="&#xfa;" 
d="M600 694l-287 -150v94l287 172v-116zM503 500l150.001 -0.00195312v-500h-164l20 206h-8c-24 -148 -106.333 -222 -247 -222c-72.667 1.33301 -125.334 24.333 -158.001 69s-49 121.334 -49 230.001v217h150v-200c0 -73.333 10.5 -125.5 31.5 -156.5
s55.5 -46.5 103.5 -46.5c52 0 93.5 23.833 124.5 71.5s46.5 110.834 46.5 189.501v142z" />
    <glyph glyph-name="ucircumflex" unicode="&#xfb;" 
d="M624 635v-80l-287 164l-287 -164v80l287 186zM503 358l0.000976562 141.998h150v-500h-164l20 206h-8c-24 -148 -106.333 -222 -247 -222c-72.667 1.33301 -125.334 24.333 -158.001 69s-49 121.334 -49 230.001v217h150v-200c0 -73.333 10.5 -125.5 31.5 -156.5
s55.5 -46.5 103.5 -46.5c52 0 93.5 23.833 124.5 71.5s46.5 110.834 46.5 189.501z" />
    <glyph glyph-name="udieresis" unicode="&#xfc;" 
d="M220 580c-60.667 0 -91 27.667 -91 83c0 56 30.333 84 91 84c62 0 93 -28 93 -84c0 -55.333 -31 -83 -93 -83zM458 579c-61.333 0 -92 27.667 -92 83c0 56 30.667 84 92 84c62 0 93 -28 93 -84c0 -55.333 -31 -83 -93 -83zM503 500l150.001 -0.00195312v-500h-164l20 206
h-8c-24 -148 -106.333 -222 -247 -222c-72.667 1.33301 -125.334 24.333 -158.001 69s-49 121.334 -49 230.001v217h150v-200c0 -73.333 10.5 -125.5 31.5 -156.5s55.5 -46.5 103.5 -46.5c52 0 93.5 23.833 124.5 71.5s46.5 110.834 46.5 189.501v142z" />
    <glyph glyph-name="yacute" unicode="&#xfd;" horiz-adv-x="777" 
d="M663 694l-287 -150v94l287 172v-116zM370 -200h-160l111 202l-296 498h168l200 -355l198 355h161z" />
    <glyph glyph-name="thorn" unicode="&#xfe;" horiz-adv-x="776" 
d="M476 516c72.667 0 133.666 -25.168 182.999 -75.501s74 -115.166 74 -194.499c0 -77.333 -24.833 -140.333 -74.5 -189s-111.167 -73 -184.5 -73c-64 0 -120 15.5 -168 46.5s-77.667 74.833 -89 131.5h-4v-362h-150v900h154l-22 -363h12
c11.333 57.333 42.333 101.5 93 132.5s109.334 46.5 176.001 46.5zM413.999 398.999c-48 0 -89 -13.665 -123 -40.998s-51 -64 -51 -110c0 -44.667 17 -80.334 51 -107.001s75 -40 123 -40c50 0 91.167 13.167 123.5 39.5s48.5 62.166 48.5 107.499
c0 46.667 -16.167 83.5 -48.5 110.5s-73.5 40.5 -123.5 40.5z" />
    <glyph glyph-name="ydieresis" unicode="&#xff;" horiz-adv-x="777" 
d="M283 580c-60.667 0 -91 27.667 -91 83c0 56 30.333 84 91 84c62 0 93 -28 93 -84c0 -55.333 -31 -83 -93 -83zM521 579c-61.333 0 -92 27.667 -92 83c0 56 30.667 84 92 84c62 0 93 -28 93 -84c0 -55.333 -31 -83 -93 -83zM370 -200h-160l111 202l-296 498h168l200 -355
l198 355h161z" />
    <glyph glyph-name="Amacron" unicode="&#x100;" horiz-adv-x="1092" 
d="M813 846h-532v54h532v-54zM206 0h-175l426 700h178l426 -700h-175l-83 144h-513zM547 589l-185 -318h368z" />
    <glyph glyph-name="amacron" unicode="&#x101;" horiz-adv-x="681" 
d="M636 646h-532v54h532v-54zM229 -16c-124 0 -186.003 44 -186.003 132c0 20 5.33301 38.167 16 54.5s23.834 30.166 39.501 41.499s36.667 21.5 63 30.5s50.833 16.167 73.5 21.5s50.834 10.333 84.501 15s61.334 7.83398 83.001 9.50098l81.5 6.5
c-0.666992 36 -11.834 61.5 -33.501 76.5s-56.167 22.5 -103.5 22.5c-77.333 0 -157.666 -18 -240.999 -54v122c97.333 36 191 54 281 54c164.667 0 247 -78 247 -234v-282h-147l26 169h-9c-16 -63.333 -46.667 -110 -92 -140s-106.333 -45 -183 -45zM291.997 89
c51.333 0 95.667 11.667 133 35s56.333 56 57 98c-102.667 -8 -167.667 -15 -195 -21c-58 -12.667 -87 -32.667 -87 -60c0 -16 8.33301 -28.667 25 -38s39 -14 67 -14z" />
    <glyph glyph-name="Abreve" unicode="&#x102;" horiz-adv-x="1092" 
d="M547 751c-62 0 -112.833 13.668 -152.5 41.001s-59.834 63.333 -60.501 108h105c0.666992 -26.667 10.834 -46.834 30.501 -60.501s45.5 -20.5 77.5 -20.5c69.333 0 106 27 110 81h103c-0.666992 -46 -19.5 -82.333 -56.5 -109s-89.167 -40 -156.5 -40zM206 0.000976562
h-175l426 700h178l426 -700h-175l-83 144h-513zM547 589.001l-185 -318h368z" />
    <glyph glyph-name="abreve" unicode="&#x103;" horiz-adv-x="681" 
d="M370 551c-62 0 -112.833 13.668 -152.5 41.001s-59.834 63.333 -60.501 108h105c0.666992 -26.667 10.834 -46.834 30.501 -60.501s45.5 -20.5 77.5 -20.5c69.333 0 106 27 110 81h103c-0.666992 -46 -19.5 -82.333 -56.5 -109s-89.167 -40 -156.5 -40zM229 -15.999
c-124 0 -186.003 44 -186.003 132c0 20 5.33301 38.167 16 54.5s23.834 30.166 39.501 41.499s36.667 21.5 63 30.5s50.833 16.167 73.5 21.5s50.834 10.333 84.501 15s61.334 7.83398 83.001 9.50098l81.5 6.5c-0.666992 36 -11.834 61.5 -33.501 76.5
s-56.167 22.5 -103.5 22.5c-77.333 0 -157.666 -18 -240.999 -54v122c97.333 36 191 54 281 54c164.667 0 247 -78 247 -234v-282h-147l26 169h-9c-16 -63.333 -46.667 -110 -92 -140s-106.333 -45 -183 -45zM291.997 89.001c51.333 0 95.667 11.667 133 35s56.333 56 57 98
c-102.667 -8 -167.667 -15 -195 -21c-58 -12.667 -87 -32.667 -87 -60c0 -16 8.33301 -28.667 25 -38s39 -14 67 -14z" />
    <glyph glyph-name="Aogonek" unicode="&#x104;" horiz-adv-x="1092" 
d="M1032 -140c28.667 0 56.667 3.33301 84 10l-3 -84c-34.667 -10.667 -71.667 -16 -111 -16c-59.333 0 -109.833 12.5 -151.5 37.5s-62.5 57.5 -62.5 97.5s22 82 66 126l9 9l-60 104h-513l-84 -144h-175l426 700h178l426 -700h-143c-20.667 -20.667 -31 -41 -31 -61
c0 -23.333 13.667 -42.333 41 -57s62 -22 104 -22zM547 589l-185 -318h368z" />
    <glyph glyph-name="aogonek" unicode="&#x105;" horiz-adv-x="681" 
d="M673 -140c28.667 0 56.665 3.33398 83.998 10.001l-3 -84c-34.667 -10.667 -71.334 -16 -110.001 -16c-59.333 0 -110 12.5 -152 37.5s-63 57.5 -63 97.5c0 37.333 20.667 77.666 62 120.999l22 143h-9c-16 -63.333 -46.667 -110 -92 -140s-106.333 -45 -183 -45
c-124 0 -186 44 -186 132c0 20 5.33301 38.167 16 54.5s23.834 30.166 39.501 41.499s36.667 21.5 63 30.5s50.833 16.167 73.5 21.5s50.834 10.333 84.501 15s61.334 7.83398 83.001 9.50098l81.5 6.5c-0.666992 36 -11.834 61.5 -33.501 76.5s-56.167 22.5 -103.5 22.5
c-77.333 0 -157.666 -18 -240.999 -54v122c97.333 36 191 54 281 54c164.667 0 247 -78 247 -234v-282h-75c-20 -20.667 -30 -41 -30 -61c0 -23.333 13.5 -42.333 40.5 -57s61.5 -22 103.5 -22zM291.998 89.001c51.333 0 95.667 11.667 133 35s56.333 56 57 98
c-102.667 -8 -167.667 -15 -195 -21c-58 -12.667 -87 -32.667 -87 -60c0 -16 8.33301 -28.667 25 -38s39 -14 67 -14z" />
    <glyph glyph-name="Cacute" unicode="&#x106;" horiz-adv-x="945" 
d="M735 894l-287 -150v94l287 172v-116zM472 -16c-130 0 -234 33.502 -312 100.502s-117 155.5 -117 265.5s39 198.5 117 265.5s182 100.5 312 100.5s234.167 -29.333 312.5 -88s117.5 -136.334 117.5 -233.001h-153c-3.33301 60 -30 107.333 -80 142s-115.667 52 -197 52
c-85.333 0 -153 -21.5 -203 -64.5s-75 -101.167 -75 -174.5s25 -131.5 75 -174.5s117.667 -64.5 203 -64.5c82 0 148 17.333 198 52s76.333 82 79 142h153c0 -96.667 -39.167 -174.334 -117.5 -233.001s-182.5 -88 -312.5 -88z" />
    <glyph glyph-name="cacute" unicode="&#x107;" horiz-adv-x="642" 
d="M631 694l-287 -150v94l287 172v-116zM367 -16c-94.667 0 -172.334 24.499 -233.001 73.499s-91 113.167 -91 192.5c0 80 29.667 144.333 89 193s138 73 236 73c78.667 0 155.667 -17 231 -51v-128c-72.667 41.333 -149.667 62 -231 62c-54.667 0 -98 -13.667 -130 -41
s-48 -63.333 -48 -108s17 -80.667 51 -108s79.667 -41 137 -41c83.333 0 157 19.667 221 59v-125c-42.667 -19.333 -80.167 -32.666 -112.5 -39.999s-72.166 -11 -119.499 -11z" />
    <glyph glyph-name="Cdotaccent" unicode="&#x10a;" horiz-adv-x="945" 
d="M515 780c-60.667 0 -91 27.667 -91 83c0 56 30.333 84 91 84c62 0 93 -28 93 -84c0 -55.333 -31 -83 -93 -83zM472 -16c-130 0 -234 33.502 -312 100.502s-117 155.5 -117 265.5s39 198.5 117 265.5s182 100.5 312 100.5s234.167 -29.333 312.5 -88
s117.5 -136.334 117.5 -233.001h-153c-3.33301 60 -30 107.333 -80 142s-115.667 52 -197 52c-85.333 0 -153 -21.5 -203 -64.5s-75 -101.167 -75 -174.5s25 -131.5 75 -174.5s117.667 -64.5 203 -64.5c82 0 148 17.333 198 52s76.333 82 79 142h153
c0 -96.667 -39.167 -174.334 -117.5 -233.001s-182.5 -88 -312.5 -88z" />
    <glyph glyph-name="cdotaccent" unicode="&#x10b;" horiz-adv-x="642" 
d="M368 580c-61.333 0 -92 27.667 -92 83c0 56 30.667 84 92 84c62 0 93 -28 93 -84c0 -55.333 -31 -83 -93 -83zM367 -16c-94.667 0 -172.334 24.499 -233.001 73.499s-91 113.167 -91 192.5c0 80 29.667 144.333 89 193s138 73 236 73c78.667 0 155.667 -17 231 -51v-128
c-72.667 41.333 -149.667 62 -231 62c-54.667 0 -98 -13.667 -130 -41s-48 -63.333 -48 -108s17 -80.667 51 -108s79.667 -41 137 -41c83.333 0 157 19.667 221 59v-125c-42.667 -19.333 -80.167 -32.666 -112.5 -39.999s-72.166 -11 -119.499 -11z" />
    <glyph glyph-name="Ccaron" unicode="&#x10c;" horiz-adv-x="945" 
d="M759 1021v-80l-287 -186l-287 186v80l287 -164zM472 111c82 0 148 17.335 198 52.002s76.333 82 79 142h153c0 -96.667 -39.167 -174.334 -117.5 -233.001s-182.5 -88 -312.5 -88s-234 33.5 -312 100.5s-117 155.5 -117 265.5s39 198.5 117 265.5s182 100.5 312 100.5
s234.167 -29.333 312.5 -88s117.5 -136.334 117.5 -233.001h-153c-3.33301 60 -30 107.333 -80 142s-115.667 52 -197 52c-85.333 0 -153 -21.5 -203 -64.5s-75 -101.167 -75 -174.5s25 -131.5 75 -174.5s117.667 -64.5 203 -64.5z" />
    <glyph glyph-name="ccaron" unicode="&#x10d;" horiz-adv-x="642" 
d="M81 821l287 -164l287 164v-80l-287 -186l-287 186v80zM43 250c0 80 29.667 144.332 89 192.999s138 73 236 73c78.667 0 155.667 -17 231 -51v-128c-72.667 41.333 -149.667 62 -231 62c-54.667 0 -98 -13.667 -130 -41s-48 -63.333 -48 -108s17 -80.667 51 -108
s79.667 -41 137 -41c83.333 0 157 19.667 221 59v-125c-42.667 -19.333 -80.167 -32.666 -112.5 -39.999s-72.166 -11 -119.499 -11c-94.667 0 -172.334 24.5 -233.001 73.5s-91 113.167 -91 192.5z" />
    <glyph glyph-name="Dcaron" unicode="&#x10e;" horiz-adv-x="868" 
d="M741 1021v-80l-287 -186l-287 186v80l287 -164zM86 700h331c128 0 228 -30 300 -90s108 -146.667 108 -260c0 -114 -36 -200.833 -108 -260.5s-172 -89.5 -300 -89.5h-331v700zM237 127h180c82 0 145.333 19.333 190 58s67 93.667 67 165c0 72 -22.333 127.167 -67 165.5
s-108 57.5 -190 57.5h-180v-446z" />
    <glyph glyph-name="dcaron" unicode="&#x10f;" horiz-adv-x="969" 
d="M320 -16c-82 0 -148.667 24.832 -200 74.499s-77 114.834 -77 195.501c0 77.333 24.833 140.333 74.5 189s111.5 73 185.5 73c64 0 119.833 -15.5 167.5 -46.5s77.167 -74.833 88.5 -131.5h4v362h151v-700h-155l22 163h-12c-12 -53.333 -41 -96.5 -87 -129.5
s-100 -49.5 -162 -49.5zM826 428.999h-81l63 270h131zM362 100.999c48 0 89.167 13.665 123.5 40.998s51.5 64 51.5 110c0 44.667 -17.167 80.334 -51.5 107.001s-75.5 40 -123.5 40c-50 0 -91.167 -13.167 -123.5 -39.5s-48.5 -62.166 -48.5 -107.499
c0 -46.667 16.167 -83.5 48.5 -110.5s73.5 -40.5 123.5 -40.5z" />
    <glyph glyph-name="Dcroat" unicode="&#x110;" horiz-adv-x="868" 
d="M86 700h331c128 0 228 -30 300 -90s108 -146.667 108 -260c0 -114 -36 -200.833 -108 -260.5s-172 -89.5 -300 -89.5h-331v290h-66v121h66v289zM237 127h180c82 0 145.333 19.333 190 58s67 93.667 67 165c0 72 -22.333 127.167 -67 165.5s-108 57.5 -190 57.5h-180v-162
h283v-121h-283v-163z" />
    <glyph glyph-name="dcroat" unicode="&#x111;" horiz-adv-x="786" 
d="M714 639l37 -0.000976562v-103h-37v-536h-155l22 163h-12c-12 -53.333 -41 -96.5 -87 -129.5s-100 -49.5 -162 -49.5c-82 0 -148.667 24.833 -200 74.5s-77 114.834 -77 195.501c0 77.333 24.833 140.333 74.5 189s111.5 73 185.5 73c64 0 119.833 -15.5 167.5 -46.5
s77.167 -74.833 88.5 -131.5h4v198h-270v103h270v61h151v-61zM362 100.999c48 0 89.167 13.665 123.5 40.998s51.5 64 51.5 110c0 44.667 -17.167 80.334 -51.5 107.001s-75.5 40 -123.5 40c-50 0 -91.167 -13.167 -123.5 -39.5s-48.5 -62.166 -48.5 -107.499
c0 -46.667 16.167 -83.5 48.5 -110.5s73.5 -40.5 123.5 -40.5z" />
    <glyph glyph-name="Emacron" unicode="&#x112;" horiz-adv-x="868" 
d="M688 846h-532v54h532v-54zM791 0h-705v700h705v-127h-554v-142h495v-118h-495v-186h554v-127z" />
    <glyph glyph-name="emacron" unicode="&#x113;" horiz-adv-x="688" 
d="M610 646h-532v54h532v-54zM344 -16c-90.667 0 -163.503 24.332 -218.503 72.999s-82.5 113 -82.5 193s27.5 144.333 82.5 193s127.833 73 218.5 73c89.333 0 161.5 -20.833 216.5 -62.5s83.167 -96.5 84.5 -164.5v-82h-452c8 -38 27.833 -65.5 59.5 -82.5
s78.834 -25.5 141.501 -25.5c19.333 0 38 0.833008 56 2.5s32.833 3.66699 44.5 6s24.667 5.83301 39 10.5s24.833 8.33398 31.5 11.001s16.834 7 30.501 13l27.5 12v-121c-50 -18.667 -93.667 -31.5 -131 -38.5s-86.666 -10.5 -147.999 -10.5zM189.997 275.999l312 7
c-1.33301 35.333 -16.5 63.5 -45.5 84.5s-66.5 31.5 -112.5 31.5c-42.667 0 -78 -11 -106 -33s-44 -52 -48 -90z" />
    <glyph glyph-name="Edotaccent" unicode="&#x116;" horiz-adv-x="868" 
d="M421 780c-60.667 0 -91 27.667 -91 83c0 56 30.333 84 91 84c62.667 0 94 -28 94 -84c0 -55.333 -31.333 -83 -94 -83zM791 0h-705v700h705v-127h-554v-142h495v-118h-495v-186h554v-127z" />
    <glyph glyph-name="edotaccent" unicode="&#x117;" horiz-adv-x="688" 
d="M344 580c-61.333 0 -92 27.667 -92 83c0 56 30.667 84 92 84c62 0 93 -28 93 -84c0 -55.333 -31 -83 -93 -83zM344 -16c-90.667 0 -163.503 24.332 -218.503 72.999s-82.5 113 -82.5 193s27.5 144.333 82.5 193s127.833 73 218.5 73c89.333 0 161.5 -20.833 216.5 -62.5
s83.167 -96.5 84.5 -164.5v-82h-452c8 -38 27.833 -65.5 59.5 -82.5s78.834 -25.5 141.501 -25.5c19.333 0 38 0.833008 56 2.5s32.833 3.66699 44.5 6s24.667 5.83301 39 10.5s24.833 8.33398 31.5 11.001s16.834 7 30.501 13l27.5 12v-121
c-50 -18.667 -93.667 -31.5 -131 -38.5s-86.666 -10.5 -147.999 -10.5zM189.997 275.999l312 7c-1.33301 35.333 -16.5 63.5 -45.5 84.5s-66.5 31.5 -112.5 31.5c-42.667 0 -78 -11 -106 -33s-44 -52 -48 -90z" />
    <glyph glyph-name="Eogonek" unicode="&#x118;" horiz-adv-x="829" 
d="M791 700v-127.001h-554v-142h495v-118h-495v-186h554v-127h-344c-20.667 -20.667 -31 -41 -31 -61c0 -23.333 13.667 -42.333 41 -57s62 -22 104 -22c28.667 0 56.667 3.33301 84 10l-3 -84c-34.667 -10.667 -71.667 -16 -111 -16c-59.333 0 -109.833 12.5 -151.5 37.5
s-62.5 57.5 -62.5 97.5c0 30.667 12.667 62.334 38 95.001h-269v700h705z" />
    <glyph glyph-name="eogonek" unicode="&#x119;" horiz-adv-x="688" 
d="M645 289l-0.00195312 -82h-452c8 -38 27.833 -65.5 59.5 -82.5s78.834 -25.5 141.501 -25.5c19.333 0 38 0.833008 56 2.5s32.833 3.66699 44.5 6s24.667 5.83301 39 10.5s24.833 8.33398 31.5 11.001s16.834 7 30.501 13l27.5 12v-121
c-44 -16.667 -82.5 -28.5 -115.5 -35.5s-72.833 -11.167 -119.5 -12.5c-12 -16.667 -18 -32 -18 -46c0 -23.333 13.667 -42.333 41 -57s62 -22 104 -22c28.667 0 56.667 3.33301 84 10l-3 -84c-34.667 -10.667 -71.667 -16 -111 -16c-59.333 0 -109.833 12.5 -151.5 37.5
s-62.5 57.5 -62.5 97.5c0 26 9.66699 53 29 81c-78.667 8 -141.167 35.667 -187.5 83s-69.5 107.666 -69.5 180.999c0 80 27.5 144.333 82.5 193s127.833 73 218.5 73c89.333 0 161.5 -20.833 216.5 -62.5s83.167 -96.5 84.5 -164.5zM189.998 276l312 7
c-1.33301 35.333 -16.5 63.5 -45.5 84.5s-66.5 31.5 -112.5 31.5c-42.667 0 -78 -11 -106 -33s-44 -52 -48 -90z" />
    <glyph glyph-name="Ecaron" unicode="&#x11a;" horiz-adv-x="868" 
d="M709 1021v-80l-287 -186l-287 186v80l287 -164zM791 700v-127h-554v-142h495v-118h-495v-186h554v-127h-705v700h705z" />
    <glyph glyph-name="ecaron" unicode="&#x11b;" horiz-adv-x="688" 
d="M631 821v-80l-287 -186l-287 186v80l287 -164zM645 289l-0.00292969 -82.001h-452c8 -38 27.833 -65.5 59.5 -82.5s78.834 -25.5 141.501 -25.5c19.333 0 38 0.833008 56 2.5s32.833 3.66699 44.5 6s24.667 5.83301 39 10.5s24.833 8.33398 31.5 11.001
s16.834 7 30.501 13l27.5 12v-121c-50 -18.667 -93.667 -31.5 -131 -38.5s-86.666 -10.5 -147.999 -10.5c-90.667 0 -163.5 24.333 -218.5 73s-82.5 113 -82.5 193s27.5 144.333 82.5 193s127.833 73 218.5 73c89.333 0 161.5 -20.833 216.5 -62.5s83.167 -96.5 84.5 -164.5
zM189.997 275.999l312 7c-1.33301 35.333 -16.5 63.5 -45.5 84.5s-66.5 31.5 -112.5 31.5c-42.667 0 -78 -11 -106 -33s-44 -52 -48 -90z" />
    <glyph glyph-name="Gbreve" unicode="&#x11e;" horiz-adv-x="968" 
d="M472 751c-62 0 -112.833 13.668 -152.5 41.001s-59.834 63.333 -60.501 108h105c0.666992 -26.667 10.834 -46.834 30.501 -60.501s45.5 -20.5 77.5 -20.5c69.333 0 106 27 110 81h103c-0.666992 -46 -19.5 -82.333 -56.5 -109s-89.167 -40 -156.5 -40zM43 350.001
c0 110 39 198.5 117 265.5s182 100.5 312 100.5c126 0 227 -24.833 303 -74.5s115.667 -115.5 119 -197.5h-153c-3.33301 45.333 -28.166 80.833 -74.499 106.5s-109.833 38.5 -190.5 38.5c-86.667 0 -155.334 -21.5 -206.001 -64.5s-76 -101.167 -76 -174.5
s25 -131.5 75 -174.5s117.667 -64.5 203 -64.5c77.333 0 141.666 14 192.999 42s81.333 66 90 114h-388v110h538v-377h-120l8 153h-9c-58 -112.667 -163 -169 -315 -169c-129.333 0 -232.666 33.5 -309.999 100.5s-116 155.5 -116 265.5z" />
    <glyph glyph-name="gbreve" unicode="&#x11f;" horiz-adv-x="779" 
d="M435 551c-62 0 -112.833 13.668 -152.5 41.001s-59.834 63.333 -60.501 108h105c0.666992 -26.667 10.834 -46.834 30.501 -60.501s45.5 -20.5 77.5 -20.5c69.333 0 106 27 110 81h103c-0.666992 -46 -19.5 -82.333 -56.5 -109s-89.167 -40 -156.5 -40zM388 -199.999
c-89.333 0 -176 14 -260 42v129c23.333 -16 57.5 -29 102.5 -39s92.167 -15 141.5 -15c70.667 0 121.334 13.833 152.001 41.5s47 71.5 49 131.5l3 59c-14.667 -50 -44.334 -88.833 -89.001 -116.5s-97 -41.5 -157 -41.5c-82.667 0 -149.5 23.833 -200.5 71.5
s-76.5 111.5 -76.5 191.5c0 77.333 24.833 140.333 74.5 189s111.5 73 185.5 73c64 0 119.833 -15.5 167.5 -46.5s77.167 -74.833 88.5 -131.5h15l-13 162h145v-440c0 -87.333 -29.333 -152.5 -88 -195.5s-138.667 -64.5 -240 -64.5zM372 101.001
c48 0 89.167 13.8311 123.5 41.498s51.5 64.167 51.5 109.5c0 44.667 -17.167 80.334 -51.5 107.001s-75.5 40 -123.5 40c-50 0 -91.167 -13.167 -123.5 -39.5s-48.5 -62.166 -48.5 -107.499c0 -46.667 16.167 -83.5 48.5 -110.5s73.5 -40.5 123.5 -40.5z" />
    <glyph glyph-name="Gdotaccent" unicode="&#x120;" horiz-adv-x="968" 
d="M472 780c-60.667 0 -91 27.667 -91 83c0 56 30.333 84 91 84c62.667 0 94 -28 94 -84c0 -55.333 -31.333 -83 -94 -83zM43 350c0 110 39 198.5 117 265.5s182 100.5 312 100.5c126 0 227 -24.833 303 -74.5s115.667 -115.5 119 -197.5h-153
c-3.33301 45.333 -28.166 80.833 -74.499 106.5s-109.833 38.5 -190.5 38.5c-86.667 0 -155.334 -21.5 -206.001 -64.5s-76 -101.167 -76 -174.5s25 -131.5 75 -174.5s117.667 -64.5 203 -64.5c77.333 0 141.666 14 192.999 42s81.333 66 90 114h-388v110h538v-377h-120
l8 153h-9c-58 -112.667 -163 -169 -315 -169c-129.333 0 -232.666 33.5 -309.999 100.5s-116 155.5 -116 265.5z" />
    <glyph glyph-name="gdotaccent" unicode="&#x121;" horiz-adv-x="779" 
d="M434 580c-60.667 0 -91 27.667 -91 83c0 56 30.333 84 91 84c62.667 0 94 -28 94 -84c0 -55.333 -31.333 -83 -94 -83zM388 -200c-89.333 0 -176 14 -260 42v129c23.333 -16 57.5 -29 102.5 -39s92.167 -15 141.5 -15c70.667 0 121.334 13.833 152.001 41.5
s47 71.5 49 131.5l3 59c-14.667 -50 -44.334 -88.833 -89.001 -116.5s-97 -41.5 -157 -41.5c-82.667 0 -149.5 23.833 -200.5 71.5s-76.5 111.5 -76.5 191.5c0 77.333 24.833 140.333 74.5 189s111.5 73 185.5 73c64 0 119.833 -15.5 167.5 -46.5
s77.167 -74.833 88.5 -131.5h15l-13 162h145v-440c0 -87.333 -29.333 -152.5 -88 -195.5s-138.667 -64.5 -240 -64.5zM372 101c48 0 89.167 13.8311 123.5 41.498s51.5 64.167 51.5 109.5c0 44.667 -17.167 80.334 -51.5 107.001s-75.5 40 -123.5 40
c-50 0 -91.167 -13.167 -123.5 -39.5s-48.5 -62.166 -48.5 -107.499c0 -46.667 16.167 -83.5 48.5 -110.5s73.5 -40.5 123.5 -40.5z" />
    <glyph glyph-name="uni0122" unicode="&#x122;" horiz-adv-x="968" 
d="M43 350c0 110 39 198.5 117 265.5s182 100.5 312 100.5c126 0 227 -24.833 303 -74.5s115.667 -115.5 119 -197.5h-153c-3.33301 45.333 -28.166 80.833 -74.499 106.5s-109.833 38.5 -190.5 38.5c-86.667 0 -155.334 -21.5 -206.001 -64.5s-76 -101.167 -76 -174.5
s25 -131.5 75 -174.5s117.667 -64.5 203 -64.5c77.333 0 141.666 14 192.999 42s81.333 66 90 114h-388v110h538v-377h-120l8 153h-9c-58 -112.667 -163 -169 -315 -169c-129.333 0 -232.666 33.5 -309.999 100.5s-116 155.5 -116 265.5zM452 -350h-82l63 270h132z" />
    <glyph glyph-name="uni0123" unicode="&#x123;" horiz-adv-x="779" 
d="M388 -200c-89.333 0 -176 14 -260 42v129c23.333 -16 57.5 -29 102.5 -39s92.167 -15 141.5 -15c70.667 0 121.334 13.833 152.001 41.5s47 71.5 49 131.5l3 59c-14.667 -50 -44.334 -88.833 -89.001 -116.5s-97 -41.5 -157 -41.5c-82.667 0 -149.5 23.833 -200.5 71.5
s-76.5 111.5 -76.5 191.5c0 77.333 24.833 140.333 74.5 189s111.5 73 185.5 73c64 0 119.833 -15.5 167.5 -46.5s77.167 -74.833 88.5 -131.5h15l-13 162h145v-440c0 -87.333 -29.333 -152.5 -88 -195.5s-138.667 -64.5 -240 -64.5zM372 101
c48 0 89.167 13.8311 123.5 41.498s51.5 64.167 51.5 109.5c0 44.667 -17.167 80.334 -51.5 107.001s-75.5 40 -123.5 40c-50 0 -91.167 -13.167 -123.5 -39.5s-48.5 -62.166 -48.5 -107.499c0 -46.667 16.167 -83.5 48.5 -110.5s73.5 -40.5 123.5 -40.5zM332 -532.002h-81
l63 270h131z" />
    <glyph glyph-name="Hbar" unicode="&#x126;" horiz-adv-x="936" 
d="M850 642h53v-107h-53v-535h-151v309h-462v-309h-151v535h-53v107h53v58h151v-58h462v58h151v-58zM237 436h462v99h-462v-99z" />
    <glyph glyph-name="hbar" unicode="&#x127;" 
d="M462 516c72.667 -1.33301 125.333 -24.3311 158 -68.998s49 -121.334 49 -230.001v-217h-150v200c0 73.333 -10.5 125.5 -31.5 156.5s-55.167 46.5 -102.5 46.5c-52 0 -93.667 -23.833 -125 -71.5s-47 -110.834 -47 -189.501v-142h-150v536h-48v103h48v61h164l-3 -61h249
v-103h-254l-12 -242h9c24 148 106 222 246 222z" />
    <glyph glyph-name="Imacron" unicode="&#x12a;" horiz-adv-x="323" 
d="M428 846h-532v54h532v-54zM237 0h-151v700h151v-700z" />
    <glyph glyph-name="imacron" unicode="&#x12b;" horiz-adv-x="265" 
d="M400 646h-532v54h532v-54zM209 0h-151v500h151v-500z" />
    <glyph glyph-name="Iogonek" unicode="&#x12e;" horiz-adv-x="323" 
d="M283 -140c28.667 0 56.667 3.33301 84 10l-3 -84c-34.667 -10.667 -71.667 -16 -111 -16c-59.333 0 -110 12.5 -152 37.5s-63 57.5 -63 97.5c0 32.667 16 68 48 106v689h151v-700h-68c-20.667 -20.667 -31 -41 -31 -61c0 -23.333 13.667 -42.333 41 -57s62 -22 104 -22z
" />
    <glyph glyph-name="iogonek" unicode="&#x12f;" horiz-adv-x="292" 
d="M145 580c-60.667 0 -91 27.667 -91 83c0 56 30.333 84 91 84c62 0 93 -28 93 -84c0 -55.333 -31 -83 -93 -83zM258 -140c28.667 0 56.668 3.33301 84.001 10l-3 -84c-34.667 -10.667 -71.334 -16 -110.001 -16c-59.333 0 -110 12.5 -152 37.5s-63 57.5 -63 97.5
c0 36 19.333 75.333 58 118v477h150v-500h-78c-20 -20.667 -30 -41 -30 -61c0 -23.333 13.5 -42.333 40.5 -57s61.5 -22 103.5 -22z" />
    <glyph glyph-name="Idotaccent" unicode="&#x130;" horiz-adv-x="323" 
d="M210 780c-60.667 0 -91 27.667 -91 83c0 56 30.333 84 91 84c62 0 93 -28 93 -84c0 -55.333 -31 -83 -93 -83zM237 0h-151v700h151v-700z" />
    <glyph glyph-name="dotlessi" unicode="&#x131;" horiz-adv-x="265" 
d="M209 0h-151v500h151v-500z" />
    <glyph glyph-name="uni0136" unicode="&#x136;" horiz-adv-x="966" 
d="M237 0h-151v700h151v-377l448 377h213l-339 -289l364 -411h-198l-274 322l-214 -174v-148zM413 -350h-81l63 270h131z" />
    <glyph glyph-name="uni0137" unicode="&#x137;" horiz-adv-x="728" 
d="M213 0h-150v700h150v-422l256 222h211l-226 -185l235 -315h-179l-161 226l-136 -109v-117zM305 -350h-82l63 270h132z" />
    <glyph glyph-name="Lacute" unicode="&#x139;" horiz-adv-x="755" 
d="M438 894l-287 -150v94l287 172v-116zM719 0h-633v700h151v-573h482v-127z" />
    <glyph glyph-name="lacute" unicode="&#x13a;" horiz-adv-x="302" 
d="M415 894l-287 -150v94l287 172v-116zM226 0h-150v700h150v-700z" />
    <glyph glyph-name="uni013B" unicode="&#x13b;" horiz-adv-x="755" 
d="M719 0h-633v700h151v-573h482v-127zM350 -350h-81l63 270h131z" />
    <glyph glyph-name="uni013C" unicode="&#x13c;" horiz-adv-x="302" 
d="M226 0h-150v700h150v-700zM104 -350h-82l63 270h132z" />
    <glyph glyph-name="Lcaron" unicode="&#x13d;" horiz-adv-x="755" 
d="M719 0h-633v700h151v-573h482v-127zM419 429h-81l63 270h131z" />
    <glyph glyph-name="lcaron" unicode="&#x13e;" horiz-adv-x="467" 
d="M226 0h-150v700h150v-700zM325 429h-82l63 270h132z" />
    <glyph glyph-name="Lslash" unicode="&#x141;" horiz-adv-x="755" 
d="M237 383v-256h482v-127h-633v296l-70 -40l-55 96l125 72v276h151v-190l189 109l56 -95z" />
    <glyph glyph-name="lslash" unicode="&#x142;" horiz-adv-x="541" 
d="M478 619l50 -87l-178 -102v-430h-150v343l-138 -79l-49 88l187 107v241h150v-154z" />
    <glyph glyph-name="Nacute" unicode="&#x143;" horiz-adv-x="972" 
d="M752 894l-287 -150v94l287 172v-116zM237 0h-151v700h134l515 -488v488h150v-700h-134l-514 487v-487z" />
    <glyph glyph-name="nacute" unicode="&#x144;" 
d="M654 694l-287 -150v94l287 172v-116zM213 0l-150.001 0.00195312v500h164l-20 -206h9c24 148 106 222 246 222c72.667 -1.33301 125.334 -24.333 158.001 -69s49 -121.334 49 -230.001v-217h-150v200c0 73.333 -10.5 125.5 -31.5 156.5s-55.167 46.5 -102.5 46.5
c-52 0 -93.667 -23.833 -125 -71.5s-47 -110.834 -47 -189.501v-142z" />
    <glyph glyph-name="uni0145" unicode="&#x145;" horiz-adv-x="972" 
d="M237 0h-151v700h134l515 -488v488h150v-700h-134l-514 487v-487zM446 -350h-82l63 270h132z" />
    <glyph glyph-name="uni0146" unicode="&#x146;" 
d="M213 0l-150.001 0.00195312v500h164l-20 -206h9c24 148 106 222 246 222c72.667 -1.33301 125.334 -24.333 158.001 -69s49 -121.334 49 -230.001v-217h-150v200c0 73.333 -10.5 125.5 -31.5 156.5s-55.167 46.5 -102.5 46.5c-52 0 -93.667 -23.833 -125 -71.5
s-47 -110.834 -47 -189.501v-142zM315.999 -349.998h-82l63 270h132z" />
    <glyph glyph-name="Ncaron" unicode="&#x147;" horiz-adv-x="972" 
d="M776 1021v-80l-287 -186l-287 186v80l287 -164zM735 212v488h150v-700h-134l-514 487v-487h-151v700h134z" />
    <glyph glyph-name="ncaron" unicode="&#x148;" 
d="M104 821l287 -164l287 164v-80l-287 -186l-287 186v80zM462 516c72.667 -1.33301 125.333 -24.3311 158 -68.998s49 -121.334 49 -230.001v-217h-150v200c0 73.333 -10.5 125.5 -31.5 156.5s-55.167 46.5 -102.5 46.5c-52 0 -93.667 -23.833 -125 -71.5
s-47 -110.834 -47 -189.501v-142h-150v500h164l-20 -206h9c24 148 106 222 246 222z" />
    <glyph glyph-name="Eng" unicode="&#x14a;" horiz-adv-x="972" 
d="M735 212l-0.000976562 488h150v-700c0 -54.667 -12.333 -96 -37 -124s-66.667 -47.667 -126 -59s-147.666 -17 -264.999 -17v89c100.667 0 178 6.5 232 19.5s81 31.167 81 54.5c0 12 -6.33301 24.333 -19 37l-514 487v-487h-151v700h134z" />
    <glyph glyph-name="eng" unicode="&#x14b;" 
d="M462 516c72.667 -1.33301 125.331 -24.332 157.998 -68.999s49 -121.334 49 -230.001v-217c0 -30.667 -1.66699 -55.5 -5 -74.5s-10.666 -36.667 -21.999 -53s-25.666 -28.666 -42.999 -36.999s-42.833 -15.5 -76.5 -21.5s-71.334 -9.83301 -113.001 -11.5
s-95.167 -2.5 -160.5 -2.5v89c104.667 0 175.834 4.66699 213.501 14s56.5 31 56.5 65v32v200c0 73.333 -10.5 125.5 -31.5 156.5s-55.167 46.5 -102.5 46.5c-52 0 -93.667 -23.833 -125 -71.5s-47 -110.834 -47 -189.501v-142h-150v500h164l-20 -206h9
c24 148 106 222 246 222z" />
    <glyph glyph-name="Omacron" unicode="&#x14c;" horiz-adv-x="945" 
d="M756 846h-532v54h532v-54zM472 -16c-130 0 -234 33.5 -312 100.5s-117 155.5 -117 265.5s39 198.5 117 265.5s182 100.5 312 100.5s234.167 -33.5 312.5 -100.5s117.5 -155.5 117.5 -265.5s-39.167 -198.5 -117.5 -265.5s-182.5 -100.5 -312.5 -100.5zM472 111
c85.333 0 153.166 21.5 203.499 64.5s75.5 101.167 75.5 174.5s-25.167 131.5 -75.5 174.5s-118.166 64.5 -203.499 64.5s-153 -21.5 -203 -64.5s-75 -101.167 -75 -174.5s25 -131.5 75 -174.5s117.667 -64.5 203 -64.5z" />
    <glyph glyph-name="omacron" unicode="&#x14d;" 
d="M634 646h-532v54h532v-54zM358 -16c-94.667 0 -170.834 24.333 -228.501 73s-86.5 113 -86.5 193s28.833 144.333 86.5 193s133.834 73 228.501 73s170.667 -24.333 228 -73s86 -113 86 -193s-28.667 -144.333 -86 -193s-133.333 -73 -228 -73zM358 101
c52 0 94 13.667 126 41s48 63.333 48 108s-16 80.667 -48 108s-74 41 -126 41s-94 -13.667 -126 -41s-48 -63.333 -48 -108s16 -80.667 48 -108s74 -41 126 -41z" />
    <glyph glyph-name="Ohungarumlaut" unicode="&#x150;" horiz-adv-x="945" 
d="M641 908l-287 -164v80l287 186v-102zM891 908l-287 -164v80l287 186v-102zM472 -16c-130 0 -234 33.5 -312 100.5s-117 155.5 -117 265.5s39 198.5 117 265.5s182 100.5 312 100.5s234.167 -33.5 312.5 -100.5s117.5 -155.5 117.5 -265.5s-39.167 -198.5 -117.5 -265.5
s-182.5 -100.5 -312.5 -100.5zM472 111c85.333 0 153.166 21.5 203.499 64.5s75.5 101.167 75.5 174.5s-25.167 131.5 -75.5 174.5s-118.166 64.5 -203.499 64.5s-153 -21.5 -203 -64.5s-75 -101.167 -75 -174.5s25 -131.5 75 -174.5s117.667 -64.5 203 -64.5z" />
    <glyph glyph-name="ohungarumlaut" unicode="&#x151;" 
d="M510 708l-287 -164v80l287 186v-102zM760 708l-287 -164v80l287 186v-102zM358 -16c-94.667 0 -170.834 24.333 -228.501 73s-86.5 113 -86.5 193s28.833 144.333 86.5 193s133.834 73 228.501 73s170.667 -24.333 228 -73s86 -113 86 -193s-28.667 -144.333 -86 -193
s-133.333 -73 -228 -73zM358 101c52 0 94 13.667 126 41s48 63.333 48 108s-16 80.667 -48 108s-74 41 -126 41s-94 -13.667 -126 -41s-48 -63.333 -48 -108s16 -80.667 48 -108s74 -41 126 -41z" />
    <glyph glyph-name="OE" unicode="&#x152;" horiz-adv-x="1575" 
d="M1499 700v-127h-554v-142h495v-118h-495v-186h554v-127h-705v93c-78.667 -72.667 -186 -109 -322 -109c-130 0 -234 33.5 -312 100.5s-117 155.5 -117 265.5s39 198.5 117 265.5s182 100.5 312 100.5c136 0 243.333 -36.333 322 -109v93h705zM472 111
c85.333 0 153.166 21.5 203.499 64.5s75.5 101.167 75.5 174.5s-25.167 131.5 -75.5 174.5s-118.166 64.5 -203.499 64.5s-153 -21.5 -203 -64.5s-75 -101.167 -75 -174.5s25 -131.5 75 -174.5s117.667 -64.5 203 -64.5z" />
    <glyph glyph-name="oe" unicode="&#x153;" horiz-adv-x="1181" 
d="M1138 289l-0.00292969 -82.001h-452c8 -38 27.833 -65.5 59.5 -82.5s78.834 -25.5 141.501 -25.5c19.333 0 38 0.833008 56 2.5s32.833 3.66699 44.5 6s24.667 5.83301 39 10.5s24.833 8.33398 31.5 11.001s16.834 7 30.501 13l27.5 12v-121
c-50 -18.667 -93.667 -31.5 -131 -38.5s-86.666 -10.5 -147.999 -10.5c-102 0 -180 29.667 -234 89c-57.333 -59.333 -139 -89 -245 -89c-94.667 0 -170.834 24.333 -228.501 73s-86.5 113 -86.5 193s28.833 144.333 86.5 193s133.834 73 228.501 73
c106 0 187.667 -29.667 245 -89c54 59.333 132 89 234 89c89.333 0 161.5 -20.833 216.5 -62.5s83.167 -96.5 84.5 -164.5zM357.997 100.999c52 0 94 13.667 126 41s48 63.333 48 108s-16 80.667 -48 108s-74 41 -126 41s-94 -13.667 -126 -41s-48 -63.333 -48 -108
s16 -80.667 48 -108s74 -41 126 -41zM682.997 275.999l311 7c-1.33301 35.333 -16.5 63.5 -45.5 84.5s-66.167 31.5 -111.5 31.5c-42.667 0 -78 -11 -106 -33s-44 -52 -48 -90z" />
    <glyph glyph-name="Racute" unicode="&#x154;" horiz-adv-x="941" 
d="M715 894l-287 -150v94l287 172v-116zM237 0h-151.002v700h553c70.667 0 125.834 -17 165.501 -51s59.5 -78.667 59.5 -134s-20.5 -98.5 -61.5 -129.5s-95.5 -46.5 -163.5 -46.5l-74 -1v-4c33.333 -2 63.333 -8 90 -18s50.667 -22.667 72 -38s42.833 -37.333 64.5 -66
s41.667 -58.667 60 -90s40.5 -72 66.5 -122h-176l-45.5 80.5l-36.5 63c-15.333 26.333 -26.666 44.166 -33.999 53.499l-30 37c-12.667 15.333 -23 25.333 -31 30s-18.333 10.334 -31 17.001s-25 10.667 -37 12s-26 2 -42 2h-219zM234.998 577l1 -161h368
c72.667 0 109 25.333 109 76c0 29.333 -8.66699 50.833 -26 64.5s-45 20.5 -83 20.5h-369z" />
    <glyph glyph-name="racute" unicode="&#x155;" horiz-adv-x="535" 
d="M554 694l-287 -150v94l287 172v-116zM213 0h-149.999v500h164l-20 -186h10c13.333 72.667 41.666 124.5 84.999 155.5s110.333 46.5 201 46.5v-127c-104 0 -178.333 -16.833 -223 -50.5s-67 -90.5 -67 -170.5v-168z" />
    <glyph glyph-name="uni0156" unicode="&#x156;" horiz-adv-x="941" 
d="M237 0h-151.002v700h553c70.667 0 125.834 -17 165.501 -51s59.5 -78.667 59.5 -134s-20.5 -98.5 -61.5 -129.5s-95.5 -46.5 -163.5 -46.5l-74 -1v-4c33.333 -2 63.333 -8 90 -18s50.667 -22.667 72 -38s42.833 -37.333 64.5 -66s41.667 -58.667 60 -90
s40.5 -72 66.5 -122h-176l-45.5 80.5l-36.5 63c-15.333 26.333 -26.666 44.166 -33.999 53.499l-30 37c-12.667 15.333 -23 25.333 -31 30s-18.333 10.334 -31 17.001s-25 10.667 -37 12s-26 2 -42 2h-219zM234.998 577l1 -161h368c72.667 0 109 25.333 109 76
c0 29.333 -8.66699 50.833 -26 64.5s-45 20.5 -83 20.5h-369zM410.998 -350h-82l63 270h132z" />
    <glyph glyph-name="uni0157" unicode="&#x157;" horiz-adv-x="535" 
d="M213 0h-149.999v500h164l-20 -186h10c13.333 72.667 41.666 124.5 84.999 155.5s110.333 46.5 201 46.5v-127c-104 0 -178.333 -16.833 -223 -50.5s-67 -90.5 -67 -170.5v-168zM88.001 -350h-82l63 270h132z" />
    <glyph glyph-name="Rcaron" unicode="&#x158;" horiz-adv-x="941" 
d="M739 1021v-80l-287 -186l-287 186v80l287 -164zM565 338l-0.00195312 -4c33.333 -2 63.333 -8 90 -18s50.667 -22.667 72 -38s42.833 -37.333 64.5 -66s41.667 -58.667 60 -90s40.5 -72 66.5 -122h-176l-45.5 80.5l-36.5 63
c-15.333 26.333 -26.666 44.166 -33.999 53.499l-30 37c-12.667 15.333 -23 25.333 -31 30s-18.333 10.334 -31 17.001s-25 10.667 -37 12s-26 2 -42 2h-219l1 -295h-151v700h553c70.667 0 125.834 -17 165.501 -51s59.5 -78.667 59.5 -134s-20.5 -98.5 -61.5 -129.5
s-95.5 -46.5 -163.5 -46.5zM234.998 577l1 -161h368c72.667 0 109 25.333 109 76c0 29.333 -8.66699 50.833 -26 64.5s-45 20.5 -83 20.5h-369z" />
    <glyph glyph-name="rcaron" unicode="&#x159;" horiz-adv-x="535" 
d="M4 821l287 -164l287 164v-80l-287 -186l-287 186v80zM207 314h10.001c13.333 72.667 41.666 124.5 84.999 155.5s110.333 46.5 201 46.5v-127c-104 0 -178.333 -16.833 -223 -50.5s-67 -90.5 -67 -170.5v-168h-150v500h164z" />
    <glyph glyph-name="Sacute" unicode="&#x15a;" horiz-adv-x="870" 
d="M701 894l-287 -150v94l287 172v-116zM432 -16c-119.333 0 -214.334 22.3301 -285.001 66.9971s-105.334 103 -104.001 175h158c-0.666992 -34.667 19.166 -62.5 59.499 -83.5s96.166 -31.5 167.499 -31.5c164.667 0 247 30 247 90c0 24.667 -11.333 43.334 -34 56.001
s-52 20.834 -88 24.501s-75.667 6.16699 -119 7.5s-86.833 4.5 -130.5 9.5s-83.5 13.333 -119.5 25s-65.333 31.834 -88 60.501s-34 65.334 -34 110.001c0 70 33.833 124.5 101.5 163.5s157.167 58.5 268.5 58.5c114 0 205.5 -22.167 274.5 -66.5
s103.833 -102.833 104.5 -175.5h-154c0.666992 35.333 -18.833 63.333 -58.5 84s-93.834 31 -162.501 31c-148 0 -222 -28 -222 -84c0 -22.667 11.333 -40.167 34 -52.5s51.834 -20.333 87.501 -24s75.334 -6.33398 119.001 -8.00098s87.334 -5.5 131.001 -11.5
s83.334 -15.333 119.001 -28s64.834 -33.667 87.501 -63s34 -66.333 34 -111c0 -72 -34.833 -127.167 -104.5 -165.5s-166.167 -57.5 -289.5 -57.5z" />
    <glyph glyph-name="sacute" unicode="&#x15b;" horiz-adv-x="683" 
d="M605 694l-287 -150v94l287 172v-116zM340 -16c-88.667 0 -178.001 13.001 -268.001 39.001v126c82 -31.333 163.333 -47 244 -47c60.667 0 104.334 3.66699 131.001 11s40 20.333 40 39c0 16 -15 27.333 -45 34s-66.5 11.167 -109.5 13.5s-85.833 6.5 -128.5 12.5
s-79 20.167 -109 42.5s-45 53.5 -45 93.5c0 55.333 26.333 97.166 79 125.499s124.334 42.5 215.001 42.5c71.333 0 154.666 -9.33301 249.999 -28v-121c-91.333 19.333 -169 29 -233 29c-109.333 0 -164 -16 -164 -48c0 -15.333 15 -26 45 -32s66.5 -10.333 109.5 -13
s85.833 -7.16699 128.5 -13.5s79 -21 109 -44s45 -54.833 45 -95.5c0 -56.667 -26 -98.5 -78 -125.5s-124 -40.5 -216 -40.5z" />
    <glyph glyph-name="Scedilla" unicode="&#x15e;" horiz-adv-x="870" 
d="M497 -14l-28.999 -55.0029c97.333 -5.33301 173.666 -17.333 228.999 -36s83 -42.667 83 -72c0 -31.333 -39.333 -57.333 -118 -78s-181.334 -31.334 -308.001 -32.001v55c180.667 0.666992 271 19 271 55s-90.333 55.333 -271 58v53l30 51
c-105.333 6.66699 -188.833 31.834 -250.5 75.501s-91.834 98.834 -90.501 165.501h158c-0.666992 -34.667 19.166 -62.5 59.499 -83.5s96.166 -31.5 167.499 -31.5c164.667 0 247 30 247 90c0 24.667 -11.333 43.334 -34 56.001s-52 20.834 -88 24.501
s-75.667 6.16699 -119 7.5s-86.833 4.5 -130.5 9.5s-83.5 13.333 -119.5 25s-65.333 31.834 -88 60.501s-34 65.334 -34 110.001c0 70 33.833 124.5 101.5 163.5s157.167 58.5 268.5 58.5c114 0 205.5 -22.167 274.5 -66.5s103.833 -102.833 104.5 -175.5h-154
c0.666992 35.333 -18.833 63.333 -58.5 84s-93.834 31 -162.501 31c-148 0 -222 -28 -222 -84c0 -22.667 11.333 -40.167 34 -52.5s51.834 -20.333 87.501 -24s75.334 -6.33398 119.001 -8.00098s87.334 -5.5 131.001 -11.5s83.334 -15.333 119.001 -28
s64.834 -33.667 87.501 -63s34 -66.333 34 -111c0 -65.333 -28.833 -116.833 -86.5 -154.5s-138.5 -59.834 -242.5 -66.501z" />
    <glyph glyph-name="scedilla" unicode="&#x15f;" horiz-adv-x="683" 
d="M390 -15l-29 -53.998c97.333 -5.33301 173.666 -17.333 228.999 -36s83 -42.667 83 -72c0 -31.333 -39.333 -57.333 -118 -78s-181.334 -31.334 -308.001 -32.001v55c180.667 0.666992 271 19 271 55s-90.333 55.333 -271 58v53l30 53
c-73.333 5.33301 -141.666 17.333 -204.999 36v126c82 -31.333 163.333 -47 244 -47c60.667 0 104.334 3.66699 131.001 11s40 20.333 40 39c0 16 -15 27.333 -45 34s-66.5 11.167 -109.5 13.5s-85.833 6.5 -128.5 12.5s-79 20.167 -109 42.5s-45 53.5 -45 93.5
c0 55.333 26.333 97.166 79 125.499s124.334 42.5 215.001 42.5c71.333 0 154.666 -9.33301 249.999 -28v-121c-91.333 19.333 -169 29 -233 29c-109.333 0 -164 -16 -164 -48c0 -15.333 15 -26 45 -32s66.5 -10.333 109.5 -13s85.833 -7.16699 128.5 -13.5s79 -21 109 -44
s45 -54.833 45 -95.5c0 -100 -81.333 -155 -244 -165z" />
    <glyph glyph-name="Scaron" unicode="&#x160;" horiz-adv-x="870" 
d="M725 1021v-80l-287 -186l-287 186v80l287 -164zM214 505c0 -22.667 11.332 -40.1699 33.999 -52.5029s51.834 -20.333 87.501 -24s75.334 -6.33398 119.001 -8.00098s87.334 -5.5 131.001 -11.5s83.334 -15.333 119.001 -28s64.834 -33.667 87.501 -63
s34 -66.333 34 -111c0 -72 -34.833 -127.167 -104.5 -165.5s-166.167 -57.5 -289.5 -57.5c-119.333 0 -214.333 22.333 -285 67s-105.334 103 -104.001 175h158c-0.666992 -34.667 19.166 -62.5 59.499 -83.5s96.166 -31.5 167.499 -31.5c164.667 0 247 30 247 90
c0 24.667 -11.333 43.334 -34 56.001s-52 20.834 -88 24.501s-75.667 6.16699 -119 7.5s-86.833 4.5 -130.5 9.5s-83.5 13.333 -119.5 25s-65.333 31.834 -88 60.501s-34 65.334 -34 110.001c0 70 33.833 124.5 101.5 163.5s157.167 58.5 268.5 58.5
c114 0 205.5 -22.167 274.5 -66.5s103.833 -102.833 104.5 -175.5h-154c0.666992 35.333 -18.833 63.333 -58.5 84s-93.834 31 -162.501 31c-148 0 -222 -28 -222 -84z" />
    <glyph glyph-name="scaron" unicode="&#x161;" horiz-adv-x="683" 
d="M629 821v-80l-287 -186l-287 186v80l287 -164zM197 348c0 -15.333 14.999 -25.999 44.999 -31.999s66.5 -10.333 109.5 -13s85.833 -7.16699 128.5 -13.5s79 -21 109 -44s45 -54.833 45 -95.5c0 -56.667 -26 -98.5 -78 -125.5s-124 -40.5 -216 -40.5
c-88.667 0 -178 13 -268 39v126c82 -31.333 163.333 -47 244 -47c60.667 0 104.334 3.66699 131.001 11s40 20.333 40 39c0 16 -15 27.333 -45 34s-66.5 11.167 -109.5 13.5s-85.833 6.5 -128.5 12.5s-79 20.167 -109 42.5s-45 53.5 -45 93.5
c0 55.333 26.333 97.166 79 125.499s124.334 42.5 215.001 42.5c71.333 0 154.666 -9.33301 249.999 -28v-121c-91.333 19.333 -169 29 -233 29c-109.333 0 -164 -16 -164 -48z" />
    <glyph glyph-name="uni0162" unicode="&#x162;" horiz-adv-x="826" 
d="M794 700l0.00195312 -126.999h-306v-538h7l-7 -14v-21h-11l-36 -69c97.333 -5.33301 173.666 -17.333 228.999 -36s83 -42.667 83 -72c0 -31.333 -39.333 -57.333 -118 -78s-181.334 -31.334 -308.001 -32.001v55c180.667 0.666992 271 19 271 55s-90.333 55.333 -271 58
v53l38 66h-28v573h-306v127h763z" />
    <glyph glyph-name="uni0163" unicode="&#x163;" horiz-adv-x="431" 
d="M264 -10l-30.998 -58.9961c97.333 -5.33301 173.666 -17.333 228.999 -36s83 -42.667 83 -72c0 -31.333 -39.333 -57.333 -118 -78s-181.334 -31.334 -308.001 -32.001v55c180.667 0.666992 271 19 271 55s-90.333 55.333 -271 58v53l42 73
c-22 11.333 -36.667 30.166 -44 56.499s-11 65.166 -11 116.499v211h-70v109h79v120l142 20v-140h137v-109h-137v-181c0 -52 4.16699 -85.167 12.5 -99.5s33.166 -21.5 74.499 -21.5c8 0 24.667 0.666992 50 2v-81c-39.333 -12.667 -82.666 -19.334 -129.999 -20.001z" />
    <glyph glyph-name="Tcaron" unicode="&#x164;" horiz-adv-x="826" 
d="M700 1021v-80l-287 -186l-287 186v80l287 -164zM31 573v127h763v-127h-306v-573h-151v573h-306z" />
    <glyph glyph-name="tcaron" unicode="&#x165;" horiz-adv-x="614" 
d="M490 429h-81l63 270h131zM256 -10c-62.667 0 -103.332 13 -121.999 39s-28 76.333 -28 151v211h-70v109h79v120l142 20v-140h137v-109h-137v-181c0 -52 4.16699 -85.167 12.5 -99.5s33.166 -21.5 74.499 -21.5c8 0 24.667 0.666992 50 2v-81
c-40.667 -13.333 -86.667 -20 -138 -20z" />
    <glyph glyph-name="Tbar" unicode="&#x166;" horiz-adv-x="826" 
d="M794 700v-127h-306v-182h175v-121h-175v-270h-151v270h-174v121h174v182h-306v127h763z" />
    <glyph glyph-name="tbar" unicode="&#x167;" horiz-adv-x="431" 
d="M394 500v-109h-137v-74h132v-111h-132c0 -50 4.33301 -82 13 -96s33.334 -21 74.001 -21c8 0 24.667 0.666992 50 2v-81c-40.667 -13.333 -86.667 -20 -138 -20c-62.667 0 -103.334 13 -122.001 39s-28 76.333 -28 151v26h-69v111h69v74h-70v109h79v120l142 20v-140h137z
" />
    <glyph glyph-name="Umacron" unicode="&#x16a;" horiz-adv-x="911" 
d="M722 846h-532v54h532v-54zM456 -16c-60 0 -111.668 6.33301 -155.001 19s-81.666 33.334 -114.999 62.001s-58.333 68.334 -75 119.001s-25 112.667 -25 186v330h151v-360c0 -150.667 73 -226 219 -226c145.333 0 218 75.333 218 226v360h151v-330
c0 -73.333 -8.33301 -135.333 -25 -186s-41.5 -90.334 -74.5 -119.001s-71.167 -49.334 -114.5 -62.001s-95 -19 -155 -19z" />
    <glyph glyph-name="umacron" unicode="&#x16b;" 
d="M625 646h-532v54h532v-54zM503 500l150.001 -0.00195312v-500h-164l20 206h-8c-24 -148 -106.333 -222 -247 -222c-72.667 1.33301 -125.334 24.333 -158.001 69s-49 121.334 -49 230.001v217h150v-200c0 -73.333 10.5 -125.5 31.5 -156.5s55.5 -46.5 103.5 -46.5
c52 0 93.5 23.833 124.5 71.5s46.5 110.834 46.5 189.501v142z" />
    <glyph glyph-name="Uring" unicode="&#x16e;" horiz-adv-x="911" 
d="M456 738c-70 0 -129.667 9.66699 -179 29s-74 44 -74 74s24.667 54.667 74 74s109 29 179 29c75.333 0 136.333 -9.5 183 -28.5s70 -43.833 70 -74.5s-23.333 -55.5 -70 -74.5s-107.667 -28.5 -183 -28.5zM456 789c26.667 0 48.5 4.5 65.5 13.5s25.5 21.5 25.5 37.5
c0 35.333 -30.333 53 -91 53c-26.667 0 -48.167 -4.5 -64.5 -13.5s-24.5 -21.833 -24.5 -38.5s8.16699 -29.5 24.5 -38.5s37.833 -13.5 64.5 -13.5zM456 -16c-60 0 -111.668 6.33301 -155.001 19s-81.666 33.334 -114.999 62.001s-58.333 68.334 -75 119.001
s-25 112.667 -25 186v330h151v-360c0 -150.667 73 -226 219 -226c145.333 0 218 75.333 218 226v360h151v-330c0 -73.333 -8.33301 -135.333 -25 -186s-41.5 -90.334 -74.5 -119.001s-71.167 -49.334 -114.5 -62.001s-95 -19 -155 -19z" />
    <glyph glyph-name="uring" unicode="&#x16f;" 
d="M337 538c-70 0 -129.667 9.66699 -179 29s-74 44 -74 74s24.667 54.667 74 74s109 29 179 29c75.333 0 136.333 -9.5 183 -28.5s70 -43.833 70 -74.5s-23.333 -55.5 -70 -74.5s-107.667 -28.5 -183 -28.5zM337 589c26.667 0 48.5 4.5 65.5 13.5s25.5 21.5 25.5 37.5
c0 35.333 -30.333 53 -91 53c-26.667 0 -48.167 -4.5 -64.5 -13.5s-24.5 -21.833 -24.5 -38.5s8.16699 -29.5 24.5 -38.5s37.833 -13.5 64.5 -13.5zM503 500l150.001 -0.00195312v-500h-164l20 206h-8c-24 -148 -106.333 -222 -247 -222
c-72.667 1.33301 -125.334 24.333 -158.001 69s-49 121.334 -49 230.001v217h150v-200c0 -73.333 10.5 -125.5 31.5 -156.5s55.5 -46.5 103.5 -46.5c52 0 93.5 23.833 124.5 71.5s46.5 110.834 46.5 189.501v142z" />
    <glyph glyph-name="Uhungarumlaut" unicode="&#x170;" horiz-adv-x="911" 
d="M607 908l-287 -164v80l287 186v-102zM857 908l-287 -164v80l287 186v-102zM456 -16c-60 0 -111.668 6.33301 -155.001 19s-81.666 33.334 -114.999 62.001s-58.333 68.334 -75 119.001s-25 112.667 -25 186v330h151v-360c0 -150.667 73 -226 219 -226
c145.333 0 218 75.333 218 226v360h151v-330c0 -73.333 -8.33301 -135.333 -25 -186s-41.5 -90.334 -74.5 -119.001s-71.167 -49.334 -114.5 -62.001s-95 -19 -155 -19z" />
    <glyph glyph-name="uhungarumlaut" unicode="&#x171;" 
d="M488 708l-287 -164v80l287 186v-102zM738 708l-287 -164v80l287 186v-102zM503 500l150.001 -0.00195312v-500h-164l20 206h-8c-24 -148 -106.333 -222 -247 -222c-72.667 1.33301 -125.334 24.333 -158.001 69s-49 121.334 -49 230.001v217h150v-200
c0 -73.333 10.5 -125.5 31.5 -156.5s55.5 -46.5 103.5 -46.5c52 0 93.5 23.833 124.5 71.5s46.5 110.834 46.5 189.501v142z" />
    <glyph glyph-name="Uogonek" unicode="&#x172;" horiz-adv-x="911" 
d="M674 340l0.000976562 360.002h151v-330c0 -132.667 -27 -228.334 -81 -287.001s-134 -91.334 -240 -98.001c-12 -16 -18 -31.333 -18 -46c0 -23.333 13.5 -42.333 40.5 -57s61.5 -22 103.5 -22c28.667 0 56.667 3.33301 84 10l-3 -84
c-34.667 -10.667 -71.334 -16 -110.001 -16c-59.333 0 -110 12.5 -152 37.5s-63 57.5 -63 97.5c0 24.667 9.33301 51.334 28 80.001c-52.667 2.66699 -98.5 11.167 -137.5 25.5s-73.167 36.166 -102.5 65.499s-51.333 68.5 -66 117.5s-22 107.833 -22 176.5v330h151v-360
c0 -150.667 73 -226 219 -226c145.333 0 218 75.333 218 226z" />
    <glyph glyph-name="uogonek" unicode="&#x173;" 
d="M682 -140c28.667 0 56.668 3.33105 84.001 9.99805l-3 -84c-34.667 -10.667 -71.667 -16 -111 -16c-59.333 0 -110 12.5 -152 37.5s-63 57.5 -63 97.5c0 34.667 18 72 54 112l18 189h-8c-24 -148 -106.333 -222 -247 -222c-72.667 1.33301 -125.334 24.333 -158.001 69
s-49 121.334 -49 230.001v217h150v-200c0 -73.333 10.5 -125.5 31.5 -156.5s55.5 -46.5 103.5 -46.5c52 0 93.5 23.833 124.5 71.5s46.5 110.834 46.5 189.501v142h150v-500h-85c-20.667 -20.667 -31 -41 -31 -61c0 -23.333 13.667 -42.333 41 -57s62 -22 104 -22z" />
    <glyph glyph-name="Wcircumflex" unicode="&#x174;" horiz-adv-x="1268" 
d="M922 835v-80l-287 164l-287 -164v80l287 186zM879 198l180 502h165l-259 -700h-171l-159 472l-160 -472h-172l-259 700h165l181 -502l168 502h152z" />
    <glyph glyph-name="wcircumflex" unicode="&#x175;" horiz-adv-x="1082" 
d="M823 635v-80l-287 164l-287 -164v80l287 186zM752 134l154 366h151l-214 -500h-189l-116 282l-109 -282h-190l-214 500h151l154 -363l145 363h122z" />
    <glyph glyph-name="Ycircumflex" unicode="&#x176;" horiz-adv-x="926" 
d="M750 835v-80l-287 164l-287 -164v80l287 186zM463 353l253 347h185l-363 -473v-227h-150v226l-363 474h185z" />
    <glyph glyph-name="ycircumflex" unicode="&#x177;" horiz-adv-x="777" 
d="M687 635v-80l-287 164l-287 -164v80l287 186zM393 145l198 355h161l-382 -700h-160l111 202l-296 498h168z" />
    <glyph glyph-name="Ydieresis" unicode="&#x178;" horiz-adv-x="926" 
d="M345 780c-60.667 0 -91 27.667 -91 83c0 56 30.333 84 91 84c62 0 93 -28 93 -84c0 -55.333 -31 -83 -93 -83zM583 779c-61.333 0 -92 27.667 -92 83c0 56 30.667 84 92 84c62 0 93 -28 93 -84c0 -55.333 -31 -83 -93 -83zM538 0h-150v226l-363 474h185l253 -347l253 347
h185l-363 -473v-227z" />
    <glyph glyph-name="Zacute" unicode="&#x179;" horiz-adv-x="820" 
d="M674 894l-287 -150v94l287 172v-116zM779 0h-738v90l494 483h-486v127h720v-91l-490 -482h500v-127z" />
    <glyph glyph-name="zacute" unicode="&#x17a;" horiz-adv-x="657" 
d="M636 694l-287 -150v94l287 172v-116zM617 0h-587v67l374 320h-366v113h589v-65l-372 -322h362v-113z" />
    <glyph glyph-name="Zdotaccent" unicode="&#x17b;" horiz-adv-x="820" 
d="M410 780c-60.667 0 -91 27.667 -91 83c0 56 30.333 84 91 84c62.667 0 94 -28 94 -84c0 -55.333 -31.333 -83 -94 -83zM779 0h-738v90l494 483h-486v127h720v-91l-490 -482h500v-127z" />
    <glyph glyph-name="zdotaccent" unicode="&#x17c;" horiz-adv-x="657" 
d="M373 580c-61.333 0 -92 27.667 -92 83c0 56 30.667 84 92 84c62 0 93 -28 93 -84c0 -55.333 -31 -83 -93 -83zM617 0h-587v67l374 320h-366v113h589v-65l-372 -322h362v-113z" />
    <glyph glyph-name="Zcaron" unicode="&#x17d;" horiz-adv-x="820" 
d="M698 1021v-80l-287 -186l-287 186v80l287 -164zM769 609l-490 -482h500v-127h-738v90l494 483h-486v127h720v-91z" />
    <glyph glyph-name="zcaron" unicode="&#x17e;" horiz-adv-x="657" 
d="M86 821l287 -164l287 164v-80l-287 -186l-287 186v80zM404 387h-366v113h589v-65l-372 -322h362v-113h-587v67z" />
    <glyph glyph-name="uni0218" unicode="&#x218;" horiz-adv-x="870" 
d="M432 -16c-119.333 0 -214.334 22.3301 -285.001 66.9971s-105.334 103 -104.001 175h158c-0.666992 -34.667 19.166 -62.5 59.499 -83.5s96.166 -31.5 167.499 -31.5c164.667 0 247 30 247 90c0 24.667 -11.333 43.334 -34 56.001s-52 20.834 -88 24.501
s-75.667 6.16699 -119 7.5s-86.833 4.5 -130.5 9.5s-83.5 13.333 -119.5 25s-65.333 31.834 -88 60.501s-34 65.334 -34 110.001c0 70 33.833 124.5 101.5 163.5s157.167 58.5 268.5 58.5c114 0 205.5 -22.167 274.5 -66.5s103.833 -102.833 104.5 -175.5h-154
c0.666992 35.333 -18.833 63.333 -58.5 84s-93.834 31 -162.501 31c-148 0 -222 -28 -222 -84c0 -22.667 11.333 -40.167 34 -52.5s51.834 -20.333 87.501 -24s75.334 -6.33398 119.001 -8.00098s87.334 -5.5 131.001 -11.5s83.334 -15.333 119.001 -28
s64.834 -33.667 87.501 -63s34 -66.333 34 -111c0 -72 -34.833 -127.167 -104.5 -165.5s-166.167 -57.5 -289.5 -57.5zM406.999 -350.003h-82l63 270h132z" />
    <glyph glyph-name="uni0219" unicode="&#x219;" horiz-adv-x="683" 
d="M340 -16c-88.667 0 -178.001 13.001 -268.001 39.001v126c82 -31.333 163.333 -47 244 -47c60.667 0 104.334 3.66699 131.001 11s40 20.333 40 39c0 16 -15 27.333 -45 34s-66.5 11.167 -109.5 13.5s-85.833 6.5 -128.5 12.5s-79 20.167 -109 42.5s-45 53.5 -45 93.5
c0 55.333 26.333 97.166 79 125.499s124.334 42.5 215.001 42.5c71.333 0 154.666 -9.33301 249.999 -28v-121c-91.333 19.333 -169 29 -233 29c-109.333 0 -164 -16 -164 -48c0 -15.333 15 -26 45 -32s66.5 -10.333 109.5 -13s85.833 -7.16699 128.5 -13.5s79 -21 109 -44
s45 -54.833 45 -95.5c0 -56.667 -26 -98.5 -78 -125.5s-124 -40.5 -216 -40.5zM307.999 -340.999h-82l63 270h132z" />
    <glyph glyph-name="uni021A" unicode="&#x21a;" horiz-adv-x="826" 
d="M488 0h-151v573h-306v127h763v-127h-306v-573zM394 -350h-81l63 270h131z" />
    <glyph glyph-name="uni021B" unicode="&#x21b;" horiz-adv-x="431" 
d="M256 -10c-62.667 0 -103.332 13 -121.999 39s-28 76.333 -28 151v211h-70v109h79v120l142 20v-140h137v-109h-137v-181c0 -52 4.16699 -85.167 12.5 -99.5s33.166 -21.5 74.499 -21.5c8 0 24.667 0.666992 50 2v-81c-40.667 -13.333 -86.667 -20 -138 -20zM189.002 -341
h-82l63 270h132z" />
    <glyph glyph-name="uni02BC" unicode="&#x2bc;" horiz-adv-x="209" 
d="M179 430h-149v270h149v-270z" />
    <glyph glyph-name="circumflex" unicode="&#x2c6;" horiz-adv-x="674" 
d="M50 635l287 186l287 -186v-80l-287 164l-287 -164v80z" />
    <glyph glyph-name="caron" unicode="&#x2c7;" horiz-adv-x="674" 
d="M50 821l287 -164l287 164v-80l-287 -186l-287 186v80z" />
    <glyph glyph-name="breve" unicode="&#x2d8;" horiz-adv-x="526" 
d="M263 551c-62 0 -112.833 13.668 -152.5 41.001s-59.834 63.333 -60.501 108h105c0.666992 -26.667 10.834 -46.834 30.501 -60.501s45.5 -20.5 77.5 -20.5c69.333 0 106 27 110 81h103c-0.666992 -46 -19.5 -82.333 -56.5 -109s-89.167 -40 -156.5 -40z" />
    <glyph glyph-name="dotaccent" unicode="&#x2d9;" horiz-adv-x="298" 
d="M145 580c-60.667 0 -91 27.667 -91 83c0 56 30.333 84 91 84c62 0 93 -28 93 -84c0 -55.333 -31 -83 -93 -83z" />
    <glyph glyph-name="ring" unicode="&#x2da;" horiz-adv-x="606" 
d="M303 538c-70 0 -129.667 9.66699 -179 29s-74 44 -74 74s24.667 54.667 74 74s109 29 179 29c75.333 0 136.333 -9.5 183 -28.5s70 -43.833 70 -74.5s-23.333 -55.5 -70 -74.5s-107.667 -28.5 -183 -28.5zM303 589c26.667 0 48.5 4.5 65.5 13.5s25.5 21.5 25.5 37.5
c0 35.333 -30.333 53 -91 53c-26.667 0 -48.167 -4.5 -64.5 -13.5s-24.5 -21.833 -24.5 -38.5s8.16699 -29.5 24.5 -38.5s37.833 -13.5 64.5 -13.5z" />
    <glyph glyph-name="ogonek" unicode="&#x2db;" horiz-adv-x="445" 
d="M268 -230c-59.333 0 -109.833 12.5 -151.5 37.5s-62.5 57.5 -62.5 97.5c0 39.333 22 81.333 66 126c20 20 38 30 54 30c9.33301 0 16.833 -2.83301 22.5 -8.5s8.5 -12.167 8.5 -19.5c0 -8 -3 -15 -9 -21c-28.667 -26.667 -43 -51 -43 -73
c0 -23.333 13.667 -42.333 41 -57s62 -22 104 -22c28.667 0 56.667 3.33301 84 10l-3 -84c-34.667 -10.667 -71.667 -16 -111 -16z" />
    <glyph glyph-name="tilde" unicode="&#x2dc;" horiz-adv-x="481" 
d="M308 572c-20.667 0 -39.3311 6 -55.998 18s-31.334 24 -44.001 36s-24.334 18 -35.001 18c-18.667 0 -33.5 -6 -44.5 -18s-16.833 -29.667 -17.5 -53h-61c0.666992 38.667 12.334 70 35.001 94s52 36 88 36c22.667 0 47 -12 73 -36s46.667 -36 62 -36
c41.333 0 62.333 23.667 63 71h60c-0.666992 -39.333 -12.334 -70.833 -35.001 -94.5s-52 -35.5 -88 -35.5z" />
    <glyph glyph-name="hungarumlaut" unicode="&#x2dd;" horiz-adv-x="637" 
d="M337 708l-287 -164v80l287 186v-102zM587 708l-287 -164v80l287 186v-102z" />
    <glyph glyph-name="gravecomb" unicode="&#x300;" horiz-adv-x="0" 
d="M-50 638v-94l-287 150v116z" />
    <glyph glyph-name="acutecomb" unicode="&#x301;" horiz-adv-x="0" 
d="M-50 694l-287 -150v94l287 172v-116z" />
    <glyph glyph-name="uni0302" unicode="&#x302;" horiz-adv-x="0" 
d="M-624 635l287 186l287 -186v-80l-287 164l-287 -164v80z" />
    <glyph glyph-name="tildecomb" unicode="&#x303;" horiz-adv-x="0" 
d="M-173 572c-20.667 0 -39.3311 6 -55.998 18s-31.334 24 -44.001 36s-24.334 18 -35.001 18c-18.667 0 -33.5 -6 -44.5 -18s-16.833 -29.667 -17.5 -53h-61c0.666992 38.667 12.334 70 35.001 94s52 36 88 36c22.667 0 47 -12 73 -36s46.667 -36 62 -36
c41.333 0 62.333 23.667 63 71h60c-0.666992 -39.333 -12.334 -70.833 -35.001 -94.5s-52 -35.5 -88 -35.5z" />
    <glyph glyph-name="uni0304" unicode="&#x304;" horiz-adv-x="0" 
d="M-50 646h-532v54h532v-54z" />
    <glyph glyph-name="uni0306" unicode="&#x306;" horiz-adv-x="0" 
d="M-263 551c-62 0 -112.833 13.668 -152.5 41.001s-59.834 63.333 -60.501 108h105c0.666992 -26.667 10.834 -46.834 30.501 -60.501s45.5 -20.5 77.5 -20.5c69.333 0 106 27 110 81h103c-0.666992 -46 -19.5 -82.333 -56.5 -109s-89.167 -40 -156.5 -40z" />
    <glyph glyph-name="uni0307" unicode="&#x307;" horiz-adv-x="0" 
d="M-154 580c-60.667 0 -91 27.667 -91 83c0 56 30.333 84 91 84c62.667 0 94 -28 94 -84c0 -55.333 -31.333 -83 -94 -83z" />
    <glyph glyph-name="uni0308" unicode="&#x308;" horiz-adv-x="0" 
d="M-360 580c-60.667 0 -91 27.667 -91 83c0 56 30.333 84 91 84c62.667 0 94 -28 94 -84c0 -55.333 -31.333 -83 -94 -83zM-122 579c-60.667 0 -91 27.667 -91 83c0 56 30.333 84 91 84c62 0 93 -28 93 -84c0 -55.333 -31 -83 -93 -83z" />
    <glyph glyph-name="uni030A" unicode="&#x30a;" horiz-adv-x="0" 
d="M-303 538c-70 0 -129.667 9.66699 -179 29s-74 44 -74 74s24.667 54.667 74 74s109 29 179 29c75.333 0 136.333 -9.5 183 -28.5s70 -43.833 70 -74.5s-23.333 -55.5 -70 -74.5s-107.667 -28.5 -183 -28.5zM-303 589c26.667 0 48.5 4.5 65.5 13.5s25.5 21.5 25.5 37.5
c0 35.333 -30.333 53 -91 53c-26.667 0 -48.167 -4.5 -64.5 -13.5s-24.5 -21.833 -24.5 -38.5s8.16699 -29.5 24.5 -38.5s37.833 -13.5 64.5 -13.5z" />
    <glyph glyph-name="uni030B" unicode="&#x30b;" horiz-adv-x="0" 
d="M-300 708l-287 -164v80l287 186v-102zM-50 708l-287 -164v80l287 186v-102z" />
    <glyph glyph-name="uni030C" unicode="&#x30c;" horiz-adv-x="0" 
d="M-624 821l287 -164l287 164v-80l-287 -186l-287 186v80z" />
    <glyph glyph-name="uni0312" unicode="&#x312;" horiz-adv-x="0" 
d="M-131 798h81l-63 -270h-131z" />
    <glyph glyph-name="uni0326" unicode="&#x326;" horiz-adv-x="0" 
d="M-176 -341h-81l63 270h131z" />
    <glyph glyph-name="uni0327" unicode="&#x327;" horiz-adv-x="0" 
d="M-308 35l-53.998 -103.999c97.333 -5.33301 173.666 -17.333 228.999 -36s83 -42.667 83 -72c0 -31.333 -39.333 -57.333 -118 -78s-181.334 -31.334 -308.001 -32.001v55c180.667 0.666992 271 19 271 55s-90.333 55.333 -271 58v53l58 101h110z" />
    <glyph glyph-name="uni0328" unicode="&#x328;" horiz-adv-x="0" 
d="M-177 -230c-59.333 0 -109.833 12.5 -151.5 37.5s-62.5 57.5 -62.5 97.5s22 82 66 126c20 20 38 30 54 30c8.66699 0 16 -2.83301 22 -8.5s9 -12.167 9 -19.5c0 -8 -3 -15 -9 -21c-28.667 -26.667 -43 -51 -43 -73c0 -23.333 13.667 -42.333 41 -57s62 -22 104 -22
c28.667 0 56.667 3.33301 84 10l-3 -84c-34.667 -10.667 -71.667 -16 -111 -16z" />
    <glyph glyph-name="uni0335" unicode="&#x335;" horiz-adv-x="0" 
d="M-50 270h-500v121h500v-121z" />
    <glyph glyph-name="uni0336" unicode="&#x336;" horiz-adv-x="0" 
d="M-50 270h-1000v121h1000v-121z" />
    <glyph glyph-name="uni0337" unicode="&#x337;" horiz-adv-x="0" 
d="M-644 0h-145l594 500h145z" />
    <glyph glyph-name="uni0338" unicode="&#x338;" horiz-adv-x="0" 
d="M-882 0h-145l832 700h145z" />
    <glyph glyph-name="uni0401" unicode="&#x401;" horiz-adv-x="868" 
d="M304 780c-60.667 0 -91 27.667 -91 83c0 56 30.333 84 91 84c62.667 0 94 -28 94 -84c0 -55.333 -31.333 -83 -94 -83zM542 779c-60.667 0 -91 27.667 -91 83c0 56 30.333 84 91 84c62 0 93 -28 93 -84c0 -55.333 -31 -83 -93 -83zM791 0h-705v700h705v-127h-554v-142
h495v-118h-495v-186h554v-127z" />
    <glyph glyph-name="uni0404" unicode="&#x404;" horiz-adv-x="930" 
d="M472 111c82 0 148 17.335 198 52.002s76.333 82 79 142h153c0 -96.667 -39.167 -174.334 -117.5 -233.001s-182.5 -88 -312.5 -88s-234 33.5 -312 100.5s-117 155.5 -117 265.5s39 198.5 117 265.5s182 100.5 312 100.5s234.167 -29.333 312.5 -88
s117.5 -136.334 117.5 -233.001h-153c-3.33301 60 -30 107.333 -80 142s-115.667 52 -197 52c-72 0 -131.833 -15.5 -179.5 -46.5s-78.167 -74.167 -91.5 -129.5h348v-127h-347c13.333 -54.667 43.833 -97.5 91.5 -128.5s107.167 -46.5 178.5 -46.5z" />
    <glyph glyph-name="uni0406" unicode="&#x406;" horiz-adv-x="323" 
d="M237 0h-151v700h151v-700z" />
    <glyph glyph-name="uni0407" unicode="&#x407;" horiz-adv-x="323" 
d="M44 780c-60.667 0 -91 27.667 -91 83c0 56 30.333 84 91 84c62.667 0 94 -28 94 -84c0 -55.333 -31.333 -83 -94 -83zM282 779c-60.667 0 -91 27.667 -91 83c0 56 30.333 84 91 84c62 0 93 -28 93 -84c0 -55.333 -31 -83 -93 -83zM237 0h-151v700h151v-700z" />
    <glyph glyph-name="uni0410" unicode="&#x410;" horiz-adv-x="1092" 
d="M206 0h-175l426 700h178l426 -700h-175l-83 144h-513zM547 589l-185 -318h368z" />
    <glyph glyph-name="uni0411" unicode="&#x411;" horiz-adv-x="876" 
d="M237 427l352 0.000976562c70 0 126.667 -18.333 170 -55s65 -89.334 65 -158.001c0 -60 -21.5 -110.667 -64.5 -152s-99.833 -62 -170.5 -62h-503v700h647v-127h-496v-146zM236 123.001l328 0.000976562c37.333 0 64.833 7.33301 82.5 22s26.5 37.667 26.5 69
s-8.83301 54.166 -26.5 68.499s-45.167 21.5 -82.5 21.5h-328v-181z" />
    <glyph glyph-name="uni0412" unicode="&#x412;" horiz-adv-x="926" 
d="M631 0l-544.998 0.000976562v700h523c71.333 0 126.666 -15.833 165.999 -47.5s59 -74.834 59 -129.501c0 -45.333 -17.333 -80 -52 -104s-87.667 -38.667 -159 -44v-5c77.333 -4 135.666 -21.167 174.999 -51.5s59 -71.833 59 -124.5
c0 -56.667 -20.833 -103.167 -62.5 -139.5s-96.167 -54.5 -163.5 -54.5zM236.002 573.001l1 -151h337c36.667 0 64 5.5 82 16.5s27 30.167 27 57.5c0 28 -9 47.833 -27 59.5s-45.333 17.5 -82 17.5h-338zM237.002 320.001l1 -192h354c36.667 0 64.667 8.5 84 25.5
s29 41.167 29 72.5c0 30 -9.66699 53.167 -29 69.5s-47.333 24.5 -84 24.5h-355z" />
    <glyph glyph-name="uni0413" unicode="&#x413;" horiz-adv-x="739" 
d="M237 0h-151v700h643v-127h-492v-573z" />
    <glyph glyph-name="uni0414" unicode="&#x414;" horiz-adv-x="927" 
d="M163 -103h-151v205c70 0 107 27 111 81l45 518l624 -1v-598h115v-205h-151v103h-593v-103zM254 127h387.999v446h-333l-33 -381c-3.33301 -26 -10.666 -47.667 -21.999 -65z" />
    <glyph glyph-name="uni0415" unicode="&#x415;" horiz-adv-x="868" 
d="M791 0h-705v700h705v-127h-554v-142h495v-118h-495v-186h554v-127z" />
    <glyph glyph-name="uni0416" unicode="&#x416;" horiz-adv-x="1341" 
d="M227 0h-217l431 351l-427 349h213l368 -322v322h151v-322l368 322h213l-427 -349l431 -351h-217l-368 322v-322h-151v322z" />
    <glyph glyph-name="uni0417" unicode="&#x417;" horiz-adv-x="811" 
d="M391 -16c-65.333 0 -130.666 5.00293 -195.999 15.0029s-118.333 24 -159 42v132c32.667 -17.333 83.167 -32 151.5 -44s128.833 -18 181.5 -18c186.667 0 280 26 280 78c0 36.667 -33 63 -99 79s-182.333 25 -349 27v112c114.667 5.33301 202.5 11.666 263.5 18.999
s103.667 16.833 128 28.5s36.5 27.167 36.5 46.5c0 59.333 -87 89 -261 89c-50 0 -109.333 -6.33301 -178 -19s-120 -27 -154 -43v131c39.333 18 92.833 32.167 160.5 42.5s128.167 15.5 181.5 15.5c125.333 0 222.166 -14.833 290.499 -44.5s102.5 -78.834 102.5 -147.501
c0 -112 -100 -168.667 -300 -170v-4c60 0 112.833 -5 158.5 -15s84 -28.167 115 -54.5s46.5 -59.833 46.5 -100.5c0 -132.667 -133.333 -198.334 -400 -197.001z" />
    <glyph glyph-name="uni0418" unicode="&#x418;" horiz-adv-x="972" 
d="M886 700v-700h-151v487l-514 -487h-134v700h150v-488l515 488h134z" />
    <glyph glyph-name="uni0419" unicode="&#x419;" horiz-adv-x="972" 
d="M483 751c-62 0 -112.833 13.668 -152.5 41.001s-59.834 63.333 -60.501 108h105c0.666992 -26.667 10.834 -46.834 30.501 -60.501s45.5 -20.5 77.5 -20.5c69.333 0 106 27 110 81h103c-0.666992 -46 -19.5 -82.333 -56.5 -109s-89.167 -40 -156.5 -40zM886 700.001v-700
h-151v487l-514 -487h-134v700h150v-488l515 488h134z" />
    <glyph glyph-name="uni041A" unicode="&#x41a;" horiz-adv-x="839" 
d="M237 0h-151v700h151v-321l368 321h214l-427 -349l430 -351h-217l-368 321v-321z" />
    <glyph glyph-name="uni041B" unicode="&#x41b;" horiz-adv-x="882" 
d="M42 -16c-14 0 -24.666 0.333008 -31.999 1l7 80c2 0 4.66699 -0.166992 8 -0.5s5.66602 -0.5 6.99902 -0.5c27.333 0 48.833 7.33301 64.5 22s24.5 34.667 26.5 60l47 554h622v-700h-150v573h-332l-34 -418c-4.66699 -54 -28.5 -96 -71.5 -126s-97.167 -45 -162.5 -45z
" />
    <glyph glyph-name="uni041C" unicode="&#x41c;" horiz-adv-x="1055" 
d="M237 0h-151v700h149l292 -481l293 481h148v-700h-150v454l-276 -454h-29l-276 452v-452z" />
    <glyph glyph-name="uni041D" unicode="&#x41d;" horiz-adv-x="936" 
d="M237 0h-151v700h151v-264h462v264h151v-700h-151v309h-462v-309z" />
    <glyph glyph-name="uni041E" unicode="&#x41e;" horiz-adv-x="945" 
d="M472 -16c-130 0 -234 33.5 -312 100.5s-117 155.5 -117 265.5s39 198.5 117 265.5s182 100.5 312 100.5s234.167 -33.5 312.5 -100.5s117.5 -155.5 117.5 -265.5s-39.167 -198.5 -117.5 -265.5s-182.5 -100.5 -312.5 -100.5zM472 111c85.333 0 153.166 21.5 203.499 64.5
s75.5 101.167 75.5 174.5s-25.167 131.5 -75.5 174.5s-118.166 64.5 -203.499 64.5s-153 -21.5 -203 -64.5s-75 -101.167 -75 -174.5s25 -131.5 75 -174.5s117.667 -64.5 203 -64.5z" />
    <glyph glyph-name="uni041F" unicode="&#x41f;" horiz-adv-x="825" 
d="M237 0h-151v700h653v-700h-151v573h-351v-573z" />
    <glyph glyph-name="uni0420" unicode="&#x420;" horiz-adv-x="876" 
d="M237 0l-151 0.000976562v700h503c70.667 0 127.5 -20.667 170.5 -62s64.5 -92 64.5 -152c0 -68.667 -21.667 -121.334 -65 -158.001s-100 -55 -170 -55h-352v-273zM236 577.001v-180.999h328c37.333 0 64.833 7.16699 82.5 21.5s26.5 37.166 26.5 68.499
s-8.83301 54.333 -26.5 69s-45.167 22 -82.5 22h-328z" />
    <glyph glyph-name="uni0421" unicode="&#x421;" horiz-adv-x="945" 
d="M472 -16c-130 0 -234 33.502 -312 100.502s-117 155.5 -117 265.5s39 198.5 117 265.5s182 100.5 312 100.5s234.167 -29.333 312.5 -88s117.5 -136.334 117.5 -233.001h-153c-3.33301 60 -30 107.333 -80 142s-115.667 52 -197 52c-85.333 0 -153 -21.5 -203 -64.5
s-75 -101.167 -75 -174.5s25 -131.5 75 -174.5s117.667 -64.5 203 -64.5c82 0 148 17.333 198 52s76.333 82 79 142h153c0 -96.667 -39.167 -174.334 -117.5 -233.001s-182.5 -88 -312.5 -88z" />
    <glyph glyph-name="uni0422" unicode="&#x422;" horiz-adv-x="826" 
d="M488 0h-151v573h-306v127h763v-127h-306v-573z" />
    <glyph glyph-name="uni0423" unicode="&#x423;" horiz-adv-x="777" 
d="M370 -1h-160l111 202l-296 498h168l200 -355l198 355h161z" />
    <glyph glyph-name="uni0424" unicode="&#x424;" 
d="M672 355c0 -70.667 -22.833 -129.5 -68.5 -176.5s-107.167 -75.5 -184.5 -85.5v-93h-122v93c-78 10 -139.833 38.5 -185.5 85.5s-68.5 105.833 -68.5 176.5s22.833 129.5 68.5 176.5s107.5 75.5 185.5 85.5v83h122v-83c77.333 -10 138.833 -38.5 184.5 -85.5
s68.5 -105.833 68.5 -176.5zM184 355c0 -34.667 10.167 -64.5 30.5 -89.5s47.833 -42.167 82.5 -51.5v282c-34.667 -9.33301 -62.167 -26.5 -82.5 -51.5s-30.5 -54.833 -30.5 -89.5zM419 496v-282c34.667 9.33301 62.167 26.5 82.5 51.5s30.5 54.833 30.5 89.5
s-10.167 64.5 -30.5 89.5s-47.833 42.167 -82.5 51.5z" />
    <glyph glyph-name="uni0425" unicode="&#x425;" horiz-adv-x="942" 
d="M243 0h-195l320 352l-319 348h199l224 -244l224 244h198l-324 -354l316 -346h-196l-223 243z" />
    <glyph glyph-name="uni0426" unicode="&#x426;" horiz-adv-x="821" 
d="M807 -103h-151v103h-566v700h151v-573h293v573h151v-573h122v-230z" />
    <glyph glyph-name="uni0427" unicode="&#x427;" 
d="M503 700l150.001 -0.00195312v-700h-164l20 406h-8c-24 -148 -106.333 -222 -247 -222c-72.667 1.33301 -125.334 24.333 -158.001 69s-49 121.334 -49 230.001v217h150v-200c0 -73.333 10.5 -125.5 31.5 -156.5s55.5 -46.5 103.5 -46.5c52 0 93.5 23.833 124.5 71.5
s46.5 110.834 46.5 189.501v142z" />
    <glyph glyph-name="uni0428" unicode="&#x428;" horiz-adv-x="1135" 
d="M1049 0h-963v700h151v-573h255v573h151v-573h255v573h151v-700z" />
    <glyph glyph-name="uni0429" unicode="&#x429;" horiz-adv-x="1188" 
d="M1174 -103h-150v103h-934v700h151v-573h255v573h150v-573h256v573h150v-573h122v-230z" />
    <glyph glyph-name="uni042A" unicode="&#x42a;" horiz-adv-x="876" 
d="M237 427l352 0.000976562c70 0 126.667 -18.333 170 -55s65 -89.334 65 -158.001c0 -60 -21.5 -110.667 -64.5 -152s-99.833 -62 -170.5 -62h-503v598h-115v102h266v-273zM236 123.001l328 0.000976562c37.333 0 64.833 7.33301 82.5 22s26.5 37.667 26.5 69
s-8.83301 54.166 -26.5 68.499s-45.167 21.5 -82.5 21.5h-328v-181z" />
    <glyph glyph-name="uni042B" unicode="&#x42b;" horiz-adv-x="1200" 
d="M86 0v700.001h151v-273h352c70 0 126.667 -18.333 170 -55s65 -89.334 65 -158.001c0 -60 -21.5 -110.667 -64.5 -152s-99.833 -62 -170.5 -62h-503zM1114 0.000976562h-151v700h151v-700zM564 304.001l-328 0.000976562v-181h328c37.333 0 64.833 7.33301 82.5 22
s26.5 37.667 26.5 69s-8.83301 54.166 -26.5 68.499s-45.167 21.5 -82.5 21.5z" />
    <glyph glyph-name="uni042C" unicode="&#x42c;" horiz-adv-x="876" 
d="M86 0v700.001h151v-273h352c70 0 126.667 -18.333 170 -55s65 -89.334 65 -158.001c0 -60 -21.5 -110.667 -64.5 -152s-99.833 -62 -170.5 -62h-503zM564 304.001l-328 0.000976562v-181h328c37.333 0 64.833 7.33301 82.5 22s26.5 37.667 26.5 69
s-8.83301 54.166 -26.5 68.499s-45.167 21.5 -82.5 21.5z" />
    <glyph glyph-name="uni042D" unicode="&#x42d;" horiz-adv-x="930" 
d="M458 716c130 0 234 -33.502 312 -100.502s117 -155.5 117 -265.5s-39 -198.5 -117 -265.5s-182 -100.5 -312 -100.5s-234 29.333 -312 88s-117 136.334 -117 233.001h153c2.66699 -60 28.834 -107.333 78.501 -142s115.5 -52 197.5 -52c72 0 131.833 15.5 179.5 46.5
s78.167 73.833 91.5 128.5h-348v127h349c-13.333 55.333 -44 98.5 -92 129.5s-108 46.5 -180 46.5c-82 0 -147.833 -17.333 -197.5 -52s-75.834 -82 -78.501 -142h-153c0 96.667 39 174.334 117 233.001s182 88 312 88z" />
    <glyph glyph-name="uni042E" unicode="&#x42e;" horiz-adv-x="1343" 
d="M844 716c130 0 233.997 -33.501 311.997 -100.501s117 -155.5 117 -265.5s-39 -198.5 -117 -265.5s-182 -100.5 -312 -100.5c-116.667 0 -212.667 27.167 -288 81.5s-120.666 127.833 -135.999 220.5h-179v-286h-151v700h151v-287h179
c14.667 92.667 59.834 166.334 135.501 221.001s171.834 82 288.501 82zM843.997 110.999c85.333 0 153.166 21.5 203.499 64.5s75.5 101.167 75.5 174.5s-25.167 131.5 -75.5 174.5s-118.166 64.5 -203.499 64.5s-153.166 -21.5 -203.499 -64.5
s-75.5 -101.167 -75.5 -174.5s25.167 -131.5 75.5 -174.5s118.166 -64.5 203.499 -64.5z" />
    <glyph glyph-name="uni042F" unicode="&#x42f;" horiz-adv-x="941" 
d="M855 700l-0.00195312 -700h-151l1 295h-219c-16 0 -30 -0.666992 -42 -2s-24.333 -5.33301 -37 -12s-23 -12.334 -31 -17.001s-18.333 -14.667 -31 -30l-30 -37c-7.33301 -9.33301 -18.666 -27.166 -33.999 -53.499l-36.5 -63l-45.5 -80.5h-176
c26 50 48.167 90.667 66.5 122s38.333 61.333 60 90s43.167 50.667 64.5 66s45.333 28 72 38s56.667 16 90 18v4l-74 1c-68 0 -122.5 15.5 -163.5 46.5s-61.5 74.167 -61.5 129.5s19.833 100 59.5 134s94.834 51 165.501 51h553zM336.998 416h368l1 161h-369
c-38 0 -65.667 -6.83301 -83 -20.5s-26 -35.167 -26 -64.5c0 -50.667 36.333 -76 109 -76z" />
    <glyph glyph-name="uni0430" unicode="&#x430;" horiz-adv-x="681" 
d="M229 -16c-124 0 -186.003 44 -186.003 132c0 20 5.33301 38.167 16 54.5s23.834 30.166 39.501 41.499s36.667 21.5 63 30.5s50.833 16.167 73.5 21.5s50.834 10.333 84.501 15s61.334 7.83398 83.001 9.50098l81.5 6.5c-0.666992 36 -11.834 61.5 -33.501 76.5
s-56.167 22.5 -103.5 22.5c-77.333 0 -157.666 -18 -240.999 -54v122c97.333 36 191 54 281 54c164.667 0 247 -78 247 -234v-282h-147l26 169h-9c-16 -63.333 -46.667 -110 -92 -140s-106.333 -45 -183 -45zM291.997 89c51.333 0 95.667 11.667 133 35s56.333 56 57 98
c-102.667 -8 -167.667 -15 -195 -21c-58 -12.667 -87 -32.667 -87 -60c0 -16 8.33301 -28.667 25 -38s39 -14 67 -14z" />
    <glyph glyph-name="uni0431" unicode="&#x431;" horiz-adv-x="862" 
d="M453 -12c-126.667 0 -226.67 31.332 -300.003 93.999s-110 156 -110 280c0 113.333 39.833 200.5 119.5 261.5s186.167 91.5 319.5 91.5h57h54.5c9 0 23.5 0.333008 43.5 1s35.333 1.5 46 2.5s23.5 2.83301 38.5 5.5s29.5 5.66699 43.5 9v-140
c-23.333 -7.33301 -50.166 -11.333 -80.499 -12s-67.666 0.333008 -111.999 3s-77.5 4 -99.5 4c-88.667 0 -157.334 -21.167 -206.001 -63.5s-73 -102.5 -73 -180.5c36 32.667 80.333 60.167 133 82.5s110.334 33.5 173.001 33.5c106 0 185.667 -21.667 239 -65
s80 -101 80 -173c0 -71.333 -32.167 -128.166 -96.5 -170.499s-154.166 -63.5 -269.499 -63.5zM443.997 114.999c149.333 0 224.001 38.667 224.001 116s-64.333 116 -193 116c-46.667 0 -95.834 -8.83301 -147.501 -26.5s-91.167 -40.167 -118.5 -67.5
c30 -92 108.333 -138 235 -138z" />
    <glyph glyph-name="uni0432" unicode="&#x432;" horiz-adv-x="799" 
d="M537 0l-446.999 -0.00195312v500h425c79.333 0 136.666 -10.667 171.999 -32s53 -55.666 53 -102.999c0 -35.333 -14.667 -61.666 -44 -78.999s-76 -27.333 -140 -30c72 -1.33301 124.5 -11.5 157.5 -30.5s49.5 -48.833 49.5 -89.5c0 -47.333 -18 -81.833 -54 -103.5
s-93.333 -32.5 -172 -32.5zM240.001 397.998l0.000976562 -103.001h211c92 0 138 16.333 138 49c0 18.667 -10.833 32.334 -32.5 41.001s-56.834 13 -105.501 13h-211zM241.002 215.997l-0.000976562 -113h232c48.667 0 83.834 4.66699 105.501 14s32.5 24.333 32.5 45
c0 36 -46 54 -138 54h-232z" />
    <glyph glyph-name="uni0433" unicode="&#x433;" horiz-adv-x="583" 
d="M241 0h-151v500h473v-127h-322v-373z" />
    <glyph glyph-name="uni0434" unicode="&#x434;" horiz-adv-x="846" 
d="M163 -103h-151v205c70 0 107 27 111 81l29 340h559v-421h115v-205h-151v103h-512v-103zM254 127h305.999v269h-267l-17 -204c-3.33301 -26 -10.666 -47.667 -21.999 -65z" />
    <glyph glyph-name="uni0435" unicode="&#x435;" horiz-adv-x="688" 
d="M344 -16c-90.667 0 -163.503 24.332 -218.503 72.999s-82.5 113 -82.5 193s27.5 144.333 82.5 193s127.833 73 218.5 73c89.333 0 161.5 -20.833 216.5 -62.5s83.167 -96.5 84.5 -164.5v-82h-452c8 -38 27.833 -65.5 59.5 -82.5s78.834 -25.5 141.501 -25.5
c19.333 0 38 0.833008 56 2.5s32.833 3.66699 44.5 6s24.667 5.83301 39 10.5s24.833 8.33398 31.5 11.001s16.834 7 30.501 13l27.5 12v-121c-50 -18.667 -93.667 -31.5 -131 -38.5s-86.666 -10.5 -147.999 -10.5zM189.997 275.999l312 7
c-1.33301 35.333 -16.5 63.5 -45.5 84.5s-66.5 31.5 -112.5 31.5c-42.667 0 -78 -11 -106 -33s-44 -52 -48 -90z" />
    <glyph glyph-name="uni0436" unicode="&#x436;" horiz-adv-x="1204" 
d="M233 0h-223l397 251l-387 249h213l294 -198v198h150v-198l294 198h213l-387 -249l397 -251h-223l-294 198v-198h-150v198z" />
    <glyph glyph-name="uni0437" unicode="&#x437;" horiz-adv-x="818" 
d="M385 -15c-151.333 0 -266.331 14.666 -344.998 43.999v127c32 -13.333 78.833 -24 140.5 -32s120.167 -12 175.5 -12c69.333 0 123.666 1.33301 162.999 4s67 6.66699 83 12s24 12.666 24 21.999c0 20 -35.5 34.5 -106.5 43.5s-218.167 18.167 -441.5 27.5v61
c216 8 358 16 426 24s102 21 102 39c0 16 -18 27.167 -54 33.5s-101.667 9.5 -197 9.5c-52.667 0 -110.167 -4.16699 -172.5 -12.5s-109.833 -19.166 -142.5 -32.499v127c39.333 14.667 90 25.834 152 33.501s119.667 11.5 173 11.5c57.333 0 108 -1.83301 152 -5.5
s85 -10.167 123 -19.5s67.167 -22.666 87.5 -39.999s30.5 -38.666 30.5 -63.999c0 -20.667 -7 -39 -21 -55s-33.833 -28.333 -59.5 -37s-49.5 -15.834 -71.5 -21.501s-48.667 -9.33398 -80 -11.001s-51.833 -2.66699 -61.5 -3s-21.834 -0.5 -36.501 -0.5v-9h37
c22.667 0 42.334 -0.5 59.001 -1.5s38.5 -2.66699 65.5 -5s50.333 -6.33301 70 -12s39.167 -12.667 58.5 -21s34.166 -19.5 44.499 -33.5s15.5 -30 15.5 -48c0 -95.333 -131 -143 -393 -143z" />
    <glyph glyph-name="uni0438" unicode="&#x438;" horiz-adv-x="877" 
d="M224 0h-134v500h151v-337l412 337h134v-500h-151v338z" />
    <glyph glyph-name="uni0439" unicode="&#x439;" horiz-adv-x="877" 
d="M443 551c-62 0 -112.833 13.668 -152.5 41.001s-59.834 63.333 -60.501 108h105c0.666992 -26.667 10.834 -46.834 30.501 -60.501s45.5 -20.5 77.5 -20.5c69.333 0 106 27 110 81h103c-0.666992 -46 -19.5 -82.333 -56.5 -109s-89.167 -40 -156.5 -40zM224 0.000976562
h-134v500h151v-337l412 337h134v-500h-151v338z" />
    <glyph glyph-name="uni043A" unicode="&#x43a;" horiz-adv-x="756" 
d="M237 0h-151v500h151v-198l294 198h213l-387 -249l397 -251h-223l-294 198v-198z" />
    <glyph glyph-name="uni043B" unicode="&#x43b;" horiz-adv-x="724" 
d="M49 -13c-14 0 -24.666 0.333008 -31.999 1l-3 80c66.667 0 102 27 106 81l30 351h529v-500h-150v373h-239l-17 -215c-4.66699 -54 -27.334 -96 -68.001 -126s-92.667 -45 -156 -45z" />
    <glyph glyph-name="uni043C" unicode="&#x43c;" horiz-adv-x="991" 
d="M241 0h-151v500h155l250 -316l250 316h156v-500h-151v296l-244 -296h-22l-243 299v-299z" />
    <glyph glyph-name="uni043D" unicode="&#x43d;" horiz-adv-x="855" 
d="M241 0h-151v500h151v-175h373v175h151v-500h-151v198h-373v-198z" />
    <glyph glyph-name="uni043E" unicode="&#x43e;" 
d="M358 -16c-94.667 0 -170.834 24.333 -228.501 73s-86.5 113 -86.5 193s28.833 144.333 86.5 193s133.834 73 228.501 73s170.667 -24.333 228 -73s86 -113 86 -193s-28.667 -144.333 -86 -193s-133.333 -73 -228 -73zM358 101c52 0 94 13.667 126 41s48 63.333 48 108
s-16 80.667 -48 108s-74 41 -126 41s-94 -13.667 -126 -41s-48 -63.333 -48 -108s16 -80.667 48 -108s74 -41 126 -41z" />
    <glyph glyph-name="uni043F" unicode="&#x43f;" horiz-adv-x="788" 
d="M237 0h-151v500h615v-500h-150v369h-314v-369z" />
    <glyph glyph-name="uni0440" unicode="&#x440;" horiz-adv-x="789" 
d="M469 516c82 0 148.667 -24.832 200 -74.499s77 -114.834 77 -195.501c0 -77.333 -24.833 -140.333 -74.5 -189s-111.167 -73 -184.5 -73c-64 0 -120 15.5 -168 46.5s-77.667 74.833 -89 131.5h-4v-362h-150v700h154l-22 -163h12c12 53.333 41 96.5 87 129.5
s100 49.5 162 49.5zM427 399.001c-48 0 -89 -13.665 -123 -40.998s-51 -64 -51 -110c0 -44.667 17 -80.334 51 -107.001s75 -40 123 -40c50 0 91.167 13.167 123.5 39.5s48.5 62.166 48.5 107.499c0 46.667 -16.167 83.5 -48.5 110.5s-73.5 40.5 -123.5 40.5z" />
    <glyph glyph-name="uni0441" unicode="&#x441;" horiz-adv-x="642" 
d="M367 -16c-94.667 0 -172.334 24.499 -233.001 73.499s-91 113.167 -91 192.5c0 80 29.667 144.333 89 193s138 73 236 73c78.667 0 155.667 -17 231 -51v-128c-72.667 41.333 -149.667 62 -231 62c-54.667 0 -98 -13.667 -130 -41s-48 -63.333 -48 -108
s17 -80.667 51 -108s79.667 -41 137 -41c83.333 0 157 19.667 221 59v-125c-42.667 -19.333 -80.167 -32.666 -112.5 -39.999s-72.166 -11 -119.499 -11z" />
    <glyph glyph-name="uni0442" unicode="&#x442;" horiz-adv-x="726" 
d="M439 0h-151v373h-257v127h663v-127h-255v-373z" />
    <glyph glyph-name="uni0443" unicode="&#x443;" horiz-adv-x="777" 
d="M370 -200h-160l111 202l-296 498h168l200 -355l198 355h161z" />
    <glyph glyph-name="uni0444" unicode="&#x444;" 
d="M672 250c0 -70.667 -22.833 -129.5 -68.5 -176.5s-107.167 -75.5 -184.5 -85.5v-84h-122v84c-78 10 -139.833 38.5 -185.5 85.5s-68.5 105.833 -68.5 176.5s22.833 129.5 68.5 176.5s107.5 75.5 185.5 85.5v92h122v-92c77.333 -10 138.833 -38.5 184.5 -85.5
s68.5 -105.833 68.5 -176.5zM184 250c0 -34.667 10.167 -64.5 30.5 -89.5s47.833 -42.167 82.5 -51.5v282c-34.667 -9.33301 -62.167 -26.5 -82.5 -51.5s-30.5 -54.833 -30.5 -89.5zM419 391v-282c34.667 9.33301 62.167 26.5 82.5 51.5s30.5 54.833 30.5 89.5
s-10.167 64.5 -30.5 89.5s-47.833 42.167 -82.5 51.5z" />
    <glyph glyph-name="uni0445" unicode="&#x445;" horiz-adv-x="798" 
d="M218 0h-192l269 251l-269 249h194l178 -166l180 166h194l-277 -256l263 -244h-192l-174 160z" />
    <glyph glyph-name="uni0446" unicode="&#x446;" horiz-adv-x="788" 
d="M774 -103h-150v103h-534v500h151v-373h261v373h150v-373h122v-230z" />
    <glyph glyph-name="uni0447" unicode="&#x447;" horiz-adv-x="713" 
d="M650 0l-165 -0.000976562l16 317h-4c-24 -148 -106 -222 -246 -222c-72.667 1.33301 -125.5 24.333 -158.5 69s-49.5 121.334 -49.5 230.001v106h151v-89c0 -73.333 10.333 -125.5 31 -156.5s55 -46.5 103 -46.5c52 0 93.5 23.833 124.5 71.5s46.5 110.5 46.5 188.5v32
h151v-500z" />
    <glyph glyph-name="uni0448" unicode="&#x448;" horiz-adv-x="1115" 
d="M1025 0h-935v500h151v-373h241v373h151v-373h242v373h150v-500z" />
    <glyph glyph-name="uni0449" unicode="&#x449;" horiz-adv-x="1161" 
d="M1147 -103h-150v103h-907v500h151v-373h241v373h151v-373h242v373h150v-373h122v-230z" />
    <glyph glyph-name="uni044A" unicode="&#x44a;" horiz-adv-x="829" 
d="M519 0h-433v373h-116v127h267v-113h282c156.667 0 235 -64.333 235 -193c0 -58.667 -21.167 -105.667 -63.5 -141s-99.5 -53 -171.5 -53zM237 264v-141h257c38 0 65.667 5.66699 83 17s26 29.333 26 54s-8.5 42.5 -25.5 53.5s-44.833 16.5 -83.5 16.5h-257z" />
    <glyph glyph-name="uni044B" unicode="&#x44b;" horiz-adv-x="1134" 
d="M519 0h-433v500h151v-113h282c156.667 0 235 -64.333 235 -193c0 -58.667 -21.167 -105.667 -63.5 -141s-99.5 -53 -171.5 -53zM1044 0h-151v500h151v-500zM237 264v-141h257c38 0 65.667 5.66699 83 17s26 29.333 26 54s-8.5 42.5 -25.5 53.5s-44.833 16.5 -83.5 16.5
h-257z" />
    <glyph glyph-name="uni044C" unicode="&#x44c;" horiz-adv-x="829" 
d="M519 0h-433v500h151v-113h282c156.667 0 235 -64.333 235 -193c0 -58.667 -21.167 -105.667 -63.5 -141s-99.5 -53 -171.5 -53zM237 264v-141h257c38 0 65.667 5.66699 83 17s26 29.333 26 54s-8.5 42.5 -25.5 53.5s-44.833 16.5 -83.5 16.5h-257z" />
    <glyph glyph-name="uni044D" unicode="&#x44d;" horiz-adv-x="629" 
d="M261 516c98 0 176.668 -24.332 236.001 -72.999s89 -113 89 -193c0 -79.333 -30.333 -143.5 -91 -192.5s-138.334 -73.5 -233.001 -73.5c-47.333 0 -87.166 3.66699 -119.499 11s-69.833 20.666 -112.5 39.999v125c64 -39.333 137.667 -59 221 -59
c45.333 0 83.5 8.66699 114.5 26s52.5 41.333 64.5 72h-251v102h252c-10.667 30.667 -30.834 54.667 -60.501 72s-66.167 26 -109.5 26c-82 0 -159 -20.667 -231 -62v128c75.333 34 152.333 51 231 51z" />
    <glyph glyph-name="uni044E" unicode="&#x44e;" horiz-adv-x="1005" 
d="M618 516c94.667 0 170.667 -24.333 228 -73s86 -113 86 -193s-28.667 -144.333 -86 -193s-133.333 -73 -228 -73c-81.333 0 -149.333 18.167 -204 54.5s-89.334 85.833 -104.001 148.5h-84v-187h-150v500h150v-186h84c15.333 62 50.333 111.167 105 147.5
s122.334 54.5 203.001 54.5zM618 101c52 0 94 13.667 126 41s48 63.333 48 108s-16 80.667 -48 108s-74 41 -126 41s-94 -13.667 -126 -41s-48 -63.333 -48 -108s16 -80.667 48 -108s74 -41 126 -41z" />
    <glyph glyph-name="uni044F" unicode="&#x44f;" horiz-adv-x="811" 
d="M204 0l-174 -0.000976562c60 75.333 112.167 126.5 156.5 153.5s103.166 42.167 176.499 45.5h-57c-79.333 0 -136.666 11.833 -171.999 35.5s-53 61.834 -53 114.501c0 48.667 17.667 83.834 53 105.501s92.666 32.5 171.999 32.5h415v-487h-151l1 162h-102
c-37.333 0 -66.333 -2.83301 -87 -8.5s-44.667 -19.834 -72 -42.501s-62.666 -59.667 -105.999 -111zM370 271.999l202 0.000976562v106h-202c-50 0 -85.5 -3.33301 -106.5 -10s-31.5 -19.334 -31.5 -38.001c0 -22 10.5 -37.167 31.5 -45.5s56.5 -12.5 106.5 -12.5z" />
    <glyph glyph-name="uni0451" unicode="&#x451;" horiz-adv-x="688" 
d="M226 580c-60.667 0 -91 27.667 -91 83c0 56 30.333 84 91 84c62.667 0 94 -28 94 -84c0 -55.333 -31.333 -83 -94 -83zM464 579c-60.667 0 -91 27.667 -91 83c0 56 30.333 84 91 84c62 0 93 -28 93 -84c0 -55.333 -31 -83 -93 -83zM344 -16
c-90.667 0 -163.503 24.332 -218.503 72.999s-82.5 113 -82.5 193s27.5 144.333 82.5 193s127.833 73 218.5 73c89.333 0 161.5 -20.833 216.5 -62.5s83.167 -96.5 84.5 -164.5v-82h-452c8 -38 27.833 -65.5 59.5 -82.5s78.834 -25.5 141.501 -25.5
c19.333 0 38 0.833008 56 2.5s32.833 3.66699 44.5 6s24.667 5.83301 39 10.5s24.833 8.33398 31.5 11.001s16.834 7 30.501 13l27.5 12v-121c-50 -18.667 -93.667 -31.5 -131 -38.5s-86.666 -10.5 -147.999 -10.5zM189.997 275.999l312 7
c-1.33301 35.333 -16.5 63.5 -45.5 84.5s-66.5 31.5 -112.5 31.5c-42.667 0 -78 -11 -106 -33s-44 -52 -48 -90z" />
    <glyph glyph-name="uni0454" unicode="&#x454;" horiz-adv-x="629" 
d="M368 399c-43.333 0 -79.832 -8.66797 -109.499 -26.001s-49.834 -41.333 -60.501 -72h252v-102h-251c12 -30.667 33.5 -54.667 64.5 -72s69.167 -26 114.5 -26c83.333 0 157 19.667 221 59v-125c-42.667 -19.333 -80.167 -32.666 -112.5 -39.999
s-72.166 -11 -119.499 -11c-94.667 0 -172.334 24.5 -233.001 73.5s-91 113.167 -91 192.5c0 80 29.667 144.333 89 193s138 73 236 73c78.667 0 155.667 -17 231 -51v-128c-72.667 41.333 -149.667 62 -231 62z" />
    <glyph glyph-name="uni0456" unicode="&#x456;" horiz-adv-x="292" 
d="M145 580c-60.667 0 -91 27.667 -91 83c0 56 30.333 84 91 84c62 0 93 -28 93 -84c0 -55.333 -31 -83 -93 -83zM222 0h-150v500h150v-500z" />
    <glyph glyph-name="uni0457" unicode="&#x457;" horiz-adv-x="265" 
d="M16 580c-60.667 0 -91 27.667 -91 83c0 56 30.333 84 91 84c62.667 0 94 -28 94 -84c0 -55.333 -31.333 -83 -94 -83zM254 579c-60.667 0 -91 27.667 -91 83c0 56 30.333 84 91 84c62 0 93 -28 93 -84c0 -55.333 -31 -83 -93 -83zM209 0h-151v500h151v-500z" />
    <glyph glyph-name="uni0490" unicode="&#x490;" horiz-adv-x="739" 
d="M581 700v168h148v-295h-492v-573h-151v700h495z" />
    <glyph glyph-name="uni0491" unicode="&#x491;" horiz-adv-x="583" 
d="M414 500v200h149v-327h-322v-373h-151v500h324z" />
    <glyph glyph-name="Wgrave" unicode="&#x1e80;" horiz-adv-x="1268" 
d="M641 838v-94l-287 150v116zM475 0h-172l-259 700h165l181 -502l168 502h152l169 -502l180 502h165l-259 -700h-171l-159 472z" />
    <glyph glyph-name="wgrave" unicode="&#x1e81;" horiz-adv-x="1082" 
d="M542 638v-94l-287 150v116zM429 0h-190l-214 500h151l154 -363l145 363h122l155 -366l154 366h151l-214 -500h-189l-116 282z" />
    <glyph glyph-name="Wacute" unicode="&#x1e82;" horiz-adv-x="1268" 
d="M898 894l-287 -150v94l287 172v-116zM475 0h-172l-259 700h165l181 -502l168 502h152l169 -502l180 502h165l-259 -700h-171l-159 472z" />
    <glyph glyph-name="wacute" unicode="&#x1e83;" horiz-adv-x="1082" 
d="M799 694l-287 -150v94l287 172v-116zM429 0h-190l-214 500h151l154 -363l145 363h122l155 -366l154 366h151l-214 -500h-189l-116 282z" />
    <glyph glyph-name="Wdieresis" unicode="&#x1e84;" horiz-adv-x="1268" 
d="M517 780c-60.667 0 -91 27.667 -91 83c0 56 30.333 84 91 84c62 0 93 -28 93 -84c0 -55.333 -31 -83 -93 -83zM755 779c-61.333 0 -92 27.667 -92 83c0 56 30.667 84 92 84c62 0 93 -28 93 -84c0 -55.333 -31 -83 -93 -83zM475 0h-172l-259 700h165l181 -502l168 502h152
l169 -502l180 502h165l-259 -700h-171l-159 472z" />
    <glyph glyph-name="wdieresis" unicode="&#x1e85;" horiz-adv-x="1082" 
d="M360 580c-61.333 0 -92 27.667 -92 83c0 56 30.667 84 92 84c62 0 93 -28 93 -84c0 -55.333 -31 -83 -93 -83zM597 579c-60.667 0 -91 27.667 -91 83c0 56 30.333 84 91 84c62 0 93 -28 93 -84c0 -55.333 -31 -83 -93 -83zM429 0h-190l-214 500h151l154 -363l145 363h122
l155 -366l154 366h151l-214 -500h-189l-116 282z" />
    <glyph glyph-name="Ygrave" unicode="&#x1ef2;" horiz-adv-x="926" 
d="M469 838v-94l-287 150v116zM538 0h-150v226l-363 474h185l253 -347l253 347h185l-363 -473v-227z" />
    <glyph glyph-name="ygrave" unicode="&#x1ef3;" horiz-adv-x="777" 
d="M406 638v-94l-287 150v116zM370 -200h-160l111 202l-296 498h168l200 -355l198 355h161z" />
    <glyph glyph-name="endash" unicode="&#x2013;" horiz-adv-x="560" 
d="M530 270h-500v121h500v-121z" />
    <glyph glyph-name="emdash" unicode="&#x2014;" horiz-adv-x="1060" 
d="M1030 270h-1000v121h1000v-121z" />
    <glyph glyph-name="quoteleft" unicode="&#x2018;" horiz-adv-x="293" 
d="M182 700h81l-63 -270h-131z" />
    <glyph glyph-name="quoteright" unicode="&#x2019;" horiz-adv-x="293" 
d="M111 430h-81l63 270h131z" />
    <glyph glyph-name="quotesinglbase" unicode="&#x201a;" horiz-adv-x="293" 
d="M111 -169h-81l63 270h131z" />
    <glyph glyph-name="quotedblleft" unicode="&#x201c;" horiz-adv-x="515" 
d="M182 700h81l-63 -270h-131zM404 700h81l-63 -270h-131z" />
    <glyph glyph-name="quotedblright" unicode="&#x201d;" horiz-adv-x="515" 
d="M111 430h-81l63 270h131zM333 430h-81l63 270h131z" />
    <glyph glyph-name="quotedblbase" unicode="&#x201e;" horiz-adv-x="494" 
d="M111 -169h-81l63 270h131zM333 -169h-81l63 270h131z" />
    <glyph glyph-name="dagger" unicode="&#x2020;" horiz-adv-x="580" 
d="M365 -170h-150v547h-185v122h185v221h150v-221h185v-122h-185v-547z" />
    <glyph glyph-name="daggerdbl" unicode="&#x2021;" horiz-adv-x="600" 
d="M365 -170h-150v170h-185v122h185v255h-185v122h185v221h150v-221h185v-122h-185v-255h185v-122h-185v-170z" />
    <glyph glyph-name="bullet" unicode="&#x2022;" horiz-adv-x="580" 
d="M288 63c-64.667 0 -118.333 20 -161 60s-64 91.333 -64 154s21.333 114 64 154s96.334 60 161.001 60c65.333 0 119.666 -20 162.999 -60s65 -91.333 65 -154c0 -63.333 -21 -114.833 -63 -154.5s-97 -59.5 -165 -59.5z" />
    <glyph glyph-name="ellipsis" unicode="&#x2026;" horiz-adv-x="905" 
d="M129 -14c-24.667 0 -45.166 7.5 -61.499 22.5s-24.5 34.5 -24.5 58.5s8.16699 43.667 24.5 59s36.833 23 61.5 23c25.333 0 46.166 -7.66699 62.499 -23s24.5 -35 24.5 -59s-8 -43.5 -24 -58.5s-37 -22.5 -63 -22.5zM429.001 -14c-24.667 0 -45.166 7.5 -61.499 22.5
s-24.5 34.5 -24.5 58.5s8.16699 43.667 24.5 59s36.833 23 61.5 23c25.333 0 46.166 -7.66699 62.499 -23s24.5 -35 24.5 -59s-8 -43.5 -24 -58.5s-37 -22.5 -63 -22.5zM729.002 -14c-24.667 0 -45.166 7.5 -61.499 22.5s-24.5 34.5 -24.5 58.5s8.16699 43.667 24.5 59
s36.833 23 61.5 23c25.333 0 46.166 -7.66699 62.499 -23s24.5 -35 24.5 -59s-8 -43.5 -24 -58.5s-37 -22.5 -63 -22.5z" />
    <glyph glyph-name="perthousand" unicode="&#x2030;" horiz-adv-x="1519" 
d="M259 460c-57.333 0 -106.5 11.667 -147.5 35s-61.5 53.333 -61.5 90s20.5 66.667 61.5 90s90.167 35 147.5 35c62 0 112.333 -11.5 151 -34.5s58 -53.167 58 -90.5s-19.333 -67.5 -58 -90.5s-89 -34.5 -151 -34.5zM238 0h-128l701 700h128zM259 509
c30 0 54.333 6.66699 73 20s28 31.333 28 54c0 24 -9.33301 43 -28 57s-43 21 -73 21s-54.167 -6.83301 -72.5 -20.5s-27.5 -32.167 -27.5 -55.5s9.16699 -41.833 27.5 -55.5s42.5 -20.5 72.5 -20.5zM781 -11c-57.333 0 -106.5 11.667 -147.5 35s-61.5 53.333 -61.5 90
s20.5 66.667 61.5 90s90.167 35 147.5 35c62 0 112.333 -11.5 151 -34.5s58 -53.167 58 -90.5s-19.333 -67.5 -58 -90.5s-89 -34.5 -151 -34.5zM1260 -11c-57.333 0 -106.5 11.667 -147.5 35s-61.5 53.333 -61.5 90s20.5 66.667 61.5 90s90.167 35 147.5 35
c62 0 112.333 -11.5 151 -34.5s58 -53.167 58 -90.5s-19.333 -67.5 -58 -90.5s-89 -34.5 -151 -34.5zM781 39c30 0 54.167 6.66602 72.5 19.999s27.5 31 27.5 53c0 24 -9 43 -27 57s-42.333 21 -73 21c-30 0 -54.167 -6.83301 -72.5 -20.5s-27.5 -32.167 -27.5 -55.5
s9.16699 -41.666 27.5 -54.999s42.5 -20 72.5 -20zM1260 38.999c30 0 54.333 6.66602 73 19.999s28 31 28 53c0 24 -9.16699 43 -27.5 57s-42.833 21 -73.5 21c-30 0 -54.167 -6.83301 -72.5 -20.5s-27.5 -32.167 -27.5 -55.5s9.16699 -41.666 27.5 -54.999
s42.5 -20 72.5 -20z" />
    <glyph glyph-name="guilsinglleft" unicode="&#x2039;" horiz-adv-x="455" 
d="M236 500h189l-214 -250l214 -250h-189l-206 250z" />
    <glyph glyph-name="guilsinglright" unicode="&#x203a;" horiz-adv-x="455" 
d="M30 500h189l206 -250l-206 -250h-189l214 250z" />
    <glyph glyph-name="fraction" unicode="&#x2044;" horiz-adv-x="1057" 
d="M185 -100h-145l832 900h145z" />
    <glyph glyph-name="Euro" unicode="&#x20ac;" horiz-adv-x="1017" 
d="M559 111c82 0 147.999 17.335 197.999 52.002s76.333 82 79 142h153c0 -96.667 -39.167 -174.334 -117.5 -233.001s-182.5 -88 -312.5 -88c-103.333 0 -191 21.833 -263 65.5s-121 103.5 -147 179.5h-132v102h113v19c0 10 0.333008 17.333 1 22h-114v102h133
c26 75.333 75 134.5 147 177.5s159.333 64.5 262 64.5c130 0 234.167 -29.333 312.5 -88s117.5 -136.334 117.5 -233.001h-153c-3.33301 60 -30 107.333 -80 142s-115.667 52 -197 52c-57.333 0 -107.166 -10 -149.499 -30s-74.5 -48.333 -96.5 -85h334v-102h-365
c-0.666992 -4.66699 -1 -12 -1 -22c0 -8.66699 0.333008 -15 1 -19h365v-102h-336c46 -78.667 128.667 -118 248 -118z" />
    <glyph glyph-name="trademark" unicode="&#x2122;" horiz-adv-x="1308" 
d="M380 222h-103v391h-209v87h522v-87h-210v-391zM777 222h-103v478h101l200 -329l200 329h101v-478h-102v310l-189 -310h-20l-188 308v-308z" />
    <glyph glyph-name="oneeighth" unicode="&#x215b;" horiz-adv-x="1704" 
d="M540 -22h-120l688 744h120zM391 161h-103v385l-231 -148v102l272 139h62v-478zM1118 186c0 30.667 13.833 55.167 41.5 73.5s63.5 30.166 107.5 35.499v2c-40.667 8 -73.334 22.167 -98.001 42.5s-37 46.166 -37 77.499c0 41.333 22.333 73.5 67 96.5
s106.334 34.5 185.001 34.5c77.333 0 138.833 -11.333 184.5 -34s68.5 -55 68.5 -97c0 -31.333 -12.5 -57.166 -37.5 -77.499s-57.5 -34.5 -97.5 -42.5v-2c44 -5.33301 79.833 -17.166 107.5 -35.499s41.5 -42.833 41.5 -73.5c0 -43.333 -23.5 -77.333 -70.5 -102
s-110.5 -37 -190.5 -37c-84.667 0 -151.167 12.167 -199.5 36.5s-72.5 58.5 -72.5 102.5zM1235 401c0 -41.333 49.666 -62 148.999 -62c100 0 150 20.667 150 62c0 20.667 -13.667 36.334 -41 47.001s-63.666 16 -108.999 16c-44.667 0 -80.667 -5.33301 -108 -16
s-41 -26.334 -41 -47.001zM1221 193c0 -40.667 54.667 -61 164 -61c108 0 162 20.333 162 61s-54.333 61 -163 61s-163 -20.333 -163 -61z" />
    <glyph glyph-name="threeeighths" unicode="&#x215c;" horiz-adv-x="1711" 
d="M536 -22h-120l688 744h120zM287 150c-103.333 0 -184 13 -242 39v90c22 -11.333 56.333 -21.166 103 -29.499s88 -12.5 124 -12.5c127.333 0 191 17.667 191 53c0 25.333 -22.5 43.5 -67.5 54.5s-124.5 16.833 -238.5 17.5v77c115.333 4.66699 193 11.5 233 20.5
s60 23.5 60 43.5c0 40.667 -59.667 61 -179 61c-34 0 -74.333 -4.5 -121 -13.5s-81.667 -18.833 -105 -29.5v90c26.667 12 63.167 21.667 109.5 29s87.5 11 123.5 11c178.667 0 268 -43.667 268 -131c0 -76.667 -68 -115.667 -204 -117v-2c64 0 116.333 -9.33301 157 -28
s61 -48.334 61 -89.001c0 -89.333 -91 -134 -273 -134zM1125 183c0 30.667 13.833 55.167 41.5 73.5s63.5 30.166 107.5 35.499v2c-40.667 8 -73.334 22.167 -98.001 42.5s-37 46.166 -37 77.499c0 41.333 22.333 73.5 67 96.5s106.334 34.5 185.001 34.5
c77.333 0 138.833 -11.333 184.5 -34s68.5 -55 68.5 -97c0 -31.333 -12.5 -57.166 -37.5 -77.499s-57.5 -34.5 -97.5 -42.5v-2c44 -5.33301 79.833 -17.166 107.5 -35.499s41.5 -42.833 41.5 -73.5c0 -43.333 -23.5 -77.333 -70.5 -102s-110.5 -37 -190.5 -37
c-84.667 0 -151.167 12.167 -199.5 36.5s-72.5 58.5 -72.5 102.5zM1242 398c0 -41.333 49.666 -62 148.999 -62c100 0 150 20.667 150 62c0 20.667 -13.667 36.334 -41 47.001s-63.666 16 -108.999 16c-44.667 0 -80.667 -5.33301 -108 -16s-41 -26.334 -41 -47.001z
M1228 190c0 -40.667 54.667 -61 164 -61c108 0 162 20.333 162 61s-54.333 61 -163 61s-163 -20.333 -163 -61z" />
    <glyph glyph-name="fiveeighths" unicode="&#x215d;" horiz-adv-x="1751" 
d="M580 -22h-120l688 744h120zM275 147c-91.333 0 -165.001 13.3311 -221.001 39.998v95c59.333 -32 134.333 -48 225 -48c51.333 0 91.333 6.66699 120 20s43 32.333 43 57c0 51.333 -52 77 -156 77c-61.333 0 -122.333 -13.667 -183 -41l-50 45l34 244h441v-87h-363
l-23 -112c44.667 20.667 107.334 31 188.001 31c65.333 0 117.5 -13.167 156.5 -39.5s58.5 -66.166 58.5 -119.499c0 -51.333 -24 -91.166 -72 -119.499s-114 -42.5 -198 -42.5zM1165 182.998c0 30.667 13.833 55.167 41.5 73.5s63.5 30.166 107.5 35.499v2
c-40.667 8 -73.334 22.167 -98.001 42.5s-37 46.166 -37 77.499c0 41.333 22.333 73.5 67 96.5s106.334 34.5 185.001 34.5c77.333 0 138.833 -11.333 184.5 -34s68.5 -55 68.5 -97c0 -31.333 -12.5 -57.166 -37.5 -77.499s-57.5 -34.5 -97.5 -42.5v-2
c44 -5.33301 79.833 -17.166 107.5 -35.499s41.5 -42.833 41.5 -73.5c0 -43.333 -23.5 -77.333 -70.5 -102s-110.5 -37 -190.5 -37c-84.667 0 -151.167 12.167 -199.5 36.5s-72.5 58.5 -72.5 102.5zM1282 397.998c0 -41.333 49.666 -62 148.999 -62c100 0 150 20.667 150 62
c0 20.667 -13.667 36.334 -41 47.001s-63.666 16 -108.999 16c-44.667 0 -80.667 -5.33301 -108 -16s-41 -26.334 -41 -47.001zM1268 189.998c0 -40.667 54.667 -61 164 -61c108 0 162 20.333 162 61s-54.333 61 -163 61s-163 -20.333 -163 -61z" />
    <glyph glyph-name="seveneighths" unicode="&#x215e;" horiz-adv-x="1618" 
d="M434 -22h-120l688 744h120zM243 158h-135l315 391h-394v87h540v-43zM1032 183c0 30.667 13.833 55.167 41.5 73.5s63.5 30.166 107.5 35.499v2c-40.667 8 -73.334 22.167 -98.001 42.5s-37 46.166 -37 77.499c0 41.333 22.333 73.5 67 96.5s106.334 34.5 185.001 34.5
c77.333 0 138.833 -11.333 184.5 -34s68.5 -55 68.5 -97c0 -31.333 -12.5 -57.166 -37.5 -77.499s-57.5 -34.5 -97.5 -42.5v-2c44 -5.33301 79.833 -17.166 107.5 -35.499s41.5 -42.833 41.5 -73.5c0 -43.333 -23.5 -77.333 -70.5 -102s-110.5 -37 -190.5 -37
c-84.667 0 -151.167 12.167 -199.5 36.5s-72.5 58.5 -72.5 102.5zM1149 398c0 -41.333 49.666 -62 148.999 -62c100 0 150 20.667 150 62c0 20.667 -13.667 36.334 -41 47.001s-63.666 16 -108.999 16c-44.667 0 -80.667 -5.33301 -108 -16s-41 -26.334 -41 -47.001z
M1135 190c0 -40.667 54.667 -61 164 -61c108 0 162 20.333 162 61s-54.333 61 -163 61s-163 -20.333 -163 -61z" />
    <glyph glyph-name="arrowleft" unicode="&#x2190;" horiz-adv-x="830" 
d="M800 397v-134h-559l156 -183l-161 1l-206 250l206 250h161l-156 -184h559z" />
    <glyph glyph-name="arrowup" unicode="&#x2191;" horiz-adv-x="561" 
d="M348 -58h-135v559l-183 -156l1 161l250 206l250 -206v-161l-183 156v-559z" />
    <glyph glyph-name="arrowright" unicode="&#x2192;" horiz-adv-x="830" 
d="M30 263v135h559l-156 183l161 -1l206 -250l-206 -250h-161l156 183h-559z" />
    <glyph glyph-name="arrowdown" unicode="&#x2193;" horiz-adv-x="561" 
d="M213 699h135v-559l183 156l-1 -161l-250 -206l-250 206v161l183 -156v559z" />
    <glyph glyph-name="partialdiff" unicode="&#x2202;" horiz-adv-x="836" 
d="M396 -12c-115.333 0 -205.168 21.167 -269.501 63.5s-96.5 99.166 -96.5 170.499c0 72 26.667 129.667 80 173s133 65 239 65c64.667 0 121.667 -13.167 171 -39.5s89.666 -58.166 120.999 -95.499c5.33301 98 -19.167 177.167 -73.5 237.5
s-130.166 93.166 -227.499 98.499l3 94c130.667 0 238.334 -36.667 323.001 -110s127 -167.666 127 -282.999c0 -124.667 -34.667 -218.167 -104 -280.5s-167 -93.5 -293 -93.5zM404.998 109c118.667 0 192.668 45.999 222.001 137.999c-26 33.333 -62.667 61.5 -110 84.5
s-95 34.5 -143 34.5c-58.667 0 -105.334 -11.667 -140.001 -35s-52 -54.666 -52 -93.999s20.667 -70.5 62 -93.5s95 -34.5 161 -34.5z" />
    <glyph glyph-name="emptyset" unicode="&#x2205;" horiz-adv-x="702" 
d="M656 572l80.999 -76l-112 -95c31.333 -42.667 47 -93 47 -151c0 -80 -28.667 -144.333 -86 -193s-133.333 -73 -228 -73c-68 0 -128.333 13.667 -181 41l-129 -109l-76 80l120 101c-32.667 42.667 -49 93.667 -49 153c0 80 28.833 144.333 86.5 193
s133.834 73 228.501 73c69.333 0 130 -14 182 -42zM183.999 250c0 -22.667 4.66699 -44 14 -64l237 200c-24 8.66699 -49.667 13 -77 13c-52 0 -94 -13.667 -126 -41s-48 -63.333 -48 -108zM531.999 250c0 22 -4.33301 42.667 -13 62l-237 -199c22.667 -8 48 -12 76 -12
c52 0 94 13.667 126 41s48 63.333 48 108z" />
    <glyph glyph-name="product" unicode="&#x220f;" horiz-adv-x="790" 
d="M260 -170h-151v748h-79v122h730v-122h-79v-748h-151v748h-270v-748z" />
    <glyph glyph-name="summation" unicode="&#x2211;" horiz-adv-x="790" 
d="M760 0h-730v122l299 218l-299 238v122h730v-122h-509l299 -238l-299 -218h509v-122z" />
    <glyph glyph-name="minus" unicode="&#x2212;" horiz-adv-x="580" 
d="M550 270h-520v121h520v-121z" />
    <glyph glyph-name="radical" unicode="&#x221a;" horiz-adv-x="1109" 
d="M511 0h-242l-264 501h168l217 -413l322 612h367v-122h-263z" />
    <glyph glyph-name="infinity" unicode="&#x221e;" horiz-adv-x="988" 
d="M278 77c-72.667 0 -132.165 22.667 -178.498 68s-69.5 98.666 -69.5 159.999c0 62.667 23.833 117.667 71.5 165s107.167 71 178.5 71c63.333 0 113.333 -14.833 150 -44.5s58 -70.5 64 -122.5c6 52.667 27.667 93.667 65 123s87 44 149 44
c71.333 0 130.833 -23.667 178.5 -71s71.5 -102.333 71.5 -165c0 -61.333 -23.167 -114.666 -69.5 -159.999s-105.833 -68 -178.5 -68c-64.667 0 -115.334 13.667 -152.001 41s-58 66 -64 116c-6 -50 -27.333 -88.667 -64 -116s-87.334 -41 -152.001 -41zM290.002 197
c34.667 4 61.167 15.667 79.5 35s27.5 44 27.5 74c0 31.333 -10.333 56.666 -31 75.999s-49.667 29 -87 29c-33.333 0 -60.5 -10.167 -81.5 -30.5s-31.5 -45.166 -31.5 -74.499c0 -32 11.667 -58.833 35 -80.5s53 -31.167 89 -28.5zM698.002 197
c36 -2.66699 65.667 6.83301 89 28.5s35 48.5 35 80.5c0 29.333 -10.5 54.166 -31.5 74.499s-48.167 30.5 -81.5 30.5c-37.333 0 -66.333 -9.66699 -87 -29s-31 -44.666 -31 -75.999c0 -30 9.16699 -54.667 27.5 -74s44.833 -31 79.5 -35z" />
    <glyph glyph-name="integral" unicode="&#x222b;" horiz-adv-x="686" 
d="M10 -140l13 58.001c36.667 0 68.667 8.16699 96 24.5s43.666 36.166 48.999 59.499l138 587c5.33301 21.333 14.5 40 27.5 56s33 30.833 60 44.5s64.167 24 111.5 31s104.333 10.5 171 10.5l-13 -58c-36.667 0 -68.667 -8 -96 -24s-43.666 -36 -48.999 -60l-138 -587
c-7.33301 -28.667 -21.5 -52.667 -42.5 -72s-58.833 -35.833 -113.5 -49.5s-126 -20.5 -214 -20.5z" />
    <glyph glyph-name="approxequal" unicode="&#x2248;" horiz-adv-x="441" 
d="M288 310c-20.667 0 -39.3311 6 -55.998 18s-31.334 24 -44.001 36s-24.334 18 -35.001 18c-18.667 0 -33.5 -6 -44.5 -18s-16.833 -29.667 -17.5 -53h-61c0.666992 38.667 12.334 70 35.001 94s52 36 88 36c22.667 0 47 -12 73 -36s46.667 -36 62 -36
c41.333 0 62.333 23.667 63 71h60c-0.666992 -39.333 -12.334 -70.833 -35.001 -94.5s-52 -35.5 -88 -35.5zM288.003 140c-20.667 0 -39.3311 6 -55.998 18s-31.334 24 -44.001 36s-24.334 18 -35.001 18c-18.667 0 -33.5 -6 -44.5 -18s-16.833 -29.667 -17.5 -53h-61
c0.666992 38.667 12.334 70 35.001 94s52 36 88 36c22.667 0 47 -12 73 -36s46.667 -36 62 -36c41.333 0 62.333 23.667 63 71h60c-0.666992 -39.333 -12.334 -70.833 -35.001 -94.5s-52 -35.5 -88 -35.5z" />
    <glyph glyph-name="notequal" unicode="&#x2260;" horiz-adv-x="580" 
d="M179 20h-119l66 120h-96v121h164l73 132h-237v121h305l59 106h119l-59 -106h96v-121h-163l-73 -132h236v-121h-304z" />
    <glyph glyph-name="lessequal" unicode="&#x2264;" horiz-adv-x="600" 
d="M544 204h-239l-249 141l249 141h239l-259 -141zM573 0h-494v82h494v-82z" />
    <glyph glyph-name="greaterequal" unicode="&#x2265;" horiz-adv-x="600" 
d="M324 204h-240l259 141l-259 141h240l249 -141zM550 0h-494v82h494v-82z" />
    <glyph glyph-name="lozenge" unicode="&#x25ca;" horiz-adv-x="726" 
d="M490 0h-254l-206 250l206 250h254l206 -250zM211 250l152 -178l152 178l-152 178z" />
    <glyph glyph-name=".null" horiz-adv-x="0" 
 />
    <glyph glyph-name="nonmarkingreturn" horiz-adv-x="333" 
 />
    <glyph glyph-name="A.001" horiz-adv-x="1092" 
d="M209 0h-178l392 700h246l392 -700h-178l-75 144h-524zM546 647l-200 -383h400z" />
    <glyph glyph-name="B.001" horiz-adv-x="926" 
d="M631 0h-545.001v700h523c70.667 0 125.834 -16.833 165.501 -50.5s59.5 -76.5 59.5 -128.5c0 -106 -75 -159 -225 -159h-41v-14h63c70.667 0 126 -13.833 166 -41.5s60 -69.834 60 -126.501c0 -53.333 -20.833 -96.666 -62.5 -129.999s-96.167 -50 -163.5 -50z
M236.999 573l1 -164h329c40 0 69.333 6 88 18s28 31 28 57c0 31.333 -9.33301 54 -28 68s-48 21 -88 21h-330zM237.999 302l1 -174h350c40 0 69.333 7.16699 88 21.5s28 37.5 28 69.5c0 55.333 -38.667 83 -116 83h-351z" />
    <glyph glyph-name="C.001" horiz-adv-x="853" 
d="M515 -16c-149.333 0 -265.333 33 -348 99s-124 155 -124 267s41.333 201 124 267s198.667 99 348 99c116 -0.666992 214.333 -18.667 295 -54v-137c-84 42.667 -182.333 64 -295 64c-100.667 0 -179.334 -21 -236.001 -63s-85 -100.667 -85 -176s28.333 -134 85 -176
s135.334 -63 236.001 -63c112.667 0 211 21.333 295 64v-137c-80.667 -35.333 -179 -53.333 -295 -54z" />
    <glyph glyph-name="G.001" horiz-adv-x="891" 
d="M515 -16c-149.333 0 -265.333 33.001 -348 99.001s-124 155 -124 267s41.333 201 124 267s198.667 99 348 99c126 -1.33301 229.333 -19.333 310 -54v-137c-39.333 20 -87 35.667 -143 47s-111.667 17 -167 17c-100.667 0 -179.334 -21 -236.001 -63
s-85 -100.667 -85 -176s28.333 -134 85 -176s135.334 -63 236.001 -63c64 0 128.667 7.66699 194 23v149h-362v118h498v-343c-96.667 -48.667 -206.667 -73.334 -330 -74.001z" />
    <glyph glyph-name="J.001" horiz-adv-x="703" 
d="M287 -16c-59.333 0.666992 -109.833 4.83301 -151.5 12.5s-85.167 21.5 -130.5 41.5v147c98.667 -49.333 192.667 -74 282 -74c61.333 0 106.5 17.5 135.5 52.5s43.5 93.5 43.5 175.5v361h150v-361c0 -124 -27 -214.167 -81 -270.5s-136.667 -84.5 -248 -84.5z" />
    <glyph glyph-name="R.001" horiz-adv-x="918" 
d="M237 0l-151 0.00195312v700h533c71.333 0 126.666 -15.833 165.999 -47.5s59 -74.834 59 -129.501s-20.167 -96.667 -60.5 -126s-95.166 -44 -164.499 -44h-85v-15c77.333 0 142.833 -25.333 196.5 -76s110.834 -138 171.501 -262h-189
c-66.667 119.333 -120.334 200.166 -161.001 242.499s-88 63.5 -142 63.5h-174zM235 577.002l1 -148h342c42 0 71.833 5.33301 89.5 16s26.5 29 26.5 55c0 28 -8.83301 47.833 -26.5 59.5s-47.5 17.5 -89.5 17.5h-343z" />
    <glyph glyph-name="S.001" horiz-adv-x="885" 
d="M436 -15c-72 0 -141.666 8.00195 -208.999 24.002s-120 32.667 -158 50v140c38 -20 92 -39.5 162 -58.5s133 -28.5 189 -28.5c95.333 0 164.5 7.33301 207.5 22s64.5 37.334 64.5 68.001c0 22.667 -12 40.667 -36 54s-55 22.666 -93 27.999s-80 9.83301 -126 13.5
s-92.167 8.83398 -138.5 15.501s-88.5 16.167 -126.5 28.5s-69 31.833 -93 58.5s-36 60 -36 100c0 37.333 10.667 70.166 32 98.499s50.5 50.833 87.5 67.5s78 29 123 37s93.5 12 145.5 12c152.667 0 269.667 -18 351 -54v-137c-37.333 18.667 -89.333 34 -156 46
s-126.667 18 -180 18c-168 0 -252 -29 -252 -87c0 -20 11.833 -35.667 35.5 -47s54.667 -19.5 93 -24.5s80.5 -9.33301 126.5 -13s92 -9.33398 138 -17.001s88.167 -17.834 126.5 -30.501s69.333 -32.5 93 -59.5s35.5 -60.167 35.5 -99.5c0 -42 -12.167 -78.333 -36.5 -109
s-57 -54 -98 -70s-83.833 -27.667 -128.5 -35s-92.334 -11 -143.001 -11z" />
    <glyph glyph-name="i.loclTRK" horiz-adv-x="265" 
d="M179 578c-60.667 0 -91 27.667 -91 83c0 56 30.333 84 91 84c62 0 93 -28 93 -84c0 -55.333 -31 -83 -93 -83zM209 0h-151v500h151v-500z" />
    <glyph glyph-name="zero.tf" horiz-adv-x="951" 
d="M475 -16c-134.667 0 -240.332 33.167 -316.999 99.5s-115 155.166 -115 266.499c0 110.667 38.667 199.334 116 266.001s182.666 100 315.999 100c136 0 242.167 -32.833 318.5 -98.5s114.5 -154.834 114.5 -267.501c0 -111.333 -38.333 -200.166 -115 -266.499
s-182.667 -99.5 -318 -99.5zM476.002 11c132 0 232.501 31.167 301.501 93.5s103.5 144.833 103.5 247.5c0 101.333 -34.833 182.833 -104.5 244.5s-169.834 92.5 -300.501 92.5c-128 0 -227.667 -31.5 -299 -94.5s-107 -145.167 -107 -246.5c0 -100 36 -181.167 108 -243.5
s171.333 -93.5 298 -93.5zM477.003 123c-84.667 0 -151.667 20.667 -201 62s-74 96.333 -74 165s24.667 123.834 74 165.501s116.333 62.5 201 62.5s151.667 -20.833 201 -62.5s74 -96.834 74 -165.501s-24.667 -123.667 -74 -165s-116.333 -62 -201 -62zM477.003 202
c56 0 100.167 13 132.5 39s48.5 62.333 48.5 109s-16.167 83.167 -48.5 109.5s-76.5 39.5 -132.5 39.5s-100.167 -13.167 -132.5 -39.5s-48.5 -62.833 -48.5 -109.5s16.167 -83 48.5 -109s76.5 -39 132.5 -39z" />
    <glyph glyph-name="one.tf" horiz-adv-x="951" 
d="M475 -16c-134.667 0 -240.332 33.167 -316.999 99.5s-115 155.166 -115 266.499c0 110.667 38.667 199.334 116 266.001s182.666 100 315.999 100c136 0 242.167 -32.833 318.5 -98.5s114.5 -154.834 114.5 -267.501c0 -111.333 -38.333 -200.166 -115 -266.499
s-182.667 -99.5 -318 -99.5zM475.002 11c132 0 232.501 31.167 301.501 93.5s103.5 144.833 103.5 247.5c0 101.333 -34.833 182.833 -104.5 244.5s-169.834 92.5 -300.501 92.5c-128 0 -227.667 -31.5 -299 -94.5s-107 -145.167 -107 -246.5c0 -100 36 -181.167 108 -243.5
s171.333 -93.5 298 -93.5zM554.003 133h-94v350l-210 -135v93l248 127h56v-435z" />
    <glyph glyph-name="two.tf" horiz-adv-x="951" 
d="M475 -16c-134.667 0 -240.334 33.168 -317.001 99.501s-115 155.166 -115 266.499c0 110 38.833 198.5 116.5 265.5s182.834 100.5 315.501 100.5c136 0 242.167 -32.833 318.5 -98.5s114.5 -154.834 114.5 -267.501c0 -111.333 -38.333 -200.166 -115 -266.499
s-182.667 -99.5 -318 -99.5zM476 11.001c132 0 232.501 31.167 301.501 93.5s103.5 144.833 103.5 247.5c0 101.333 -34.833 182.833 -104.5 244.5s-169.834 92.5 -300.501 92.5c-128 0 -227.667 -31.5 -299 -94.5s-107 -145.167 -107 -246.5c0 -100 36 -181.167 108 -243.5
s171.333 -93.5 298 -93.5zM703.001 136.001l-454.003 0.00195312v55c0.666992 30.667 13.834 57.5 39.501 80.5s56.334 41.167 92.001 54.5s71.334 25.166 107.001 35.499s65.834 21.666 90.501 33.999s37 25.833 37 40.5c0 23.333 -11.333 39.833 -34 49.5
s-60.334 14.5 -113.001 14.5c-38.667 0 -77.834 -3.83301 -117.501 -11.5s-68.834 -15.834 -87.501 -24.501v82c51.333 22.667 125.333 34 222 34c77.333 0 134.833 -9.83301 172.5 -29.5s56.5 -51.834 56.5 -96.501c0 -32.667 -11.167 -60.5 -33.5 -83.5
s-50.166 -40.5 -83.499 -52.5s-67 -22.667 -101 -32s-65.167 -19.666 -93.5 -30.999s-46.166 -24.666 -53.499 -39.999h354v-79z" />
    <glyph glyph-name="three.tf" horiz-adv-x="951" 
d="M475 -16c-134.667 0 -240.334 33.168 -317.001 99.501s-115 155.166 -115 266.499c0 110 38.833 198.5 116.5 265.5s182.834 100.5 315.501 100.5c136 0 242.167 -32.833 318.5 -98.5s114.5 -154.834 114.5 -267.501c0 -111.333 -38.333 -200.166 -115 -266.499
s-182.667 -99.5 -318 -99.5zM475 11.001c132 0 232.501 31.167 301.501 93.5s103.5 144.833 103.5 247.5c0 101.333 -34.833 182.833 -104.5 244.5s-169.834 92.5 -300.501 92.5c-128 0 -227.667 -31.5 -299 -94.5s-107 -145.167 -107 -246.5c0 -100 36 -181.167 108 -243.5
s171.333 -93.5 298 -93.5zM484.001 123.001c-94 0 -167.335 11.667 -220.002 35v82c20 -10.667 51.167 -19.667 93.5 -27s79.833 -11 112.5 -11c116 0 174 16 174 48c0 23.333 -20.5 40 -61.5 50s-113.167 15.333 -216.5 16v70c104 4.66699 174.333 11 211 19s55 21 55 39
c0 36.667 -54 55 -162 55c-31.333 0 -68.166 -3.83301 -110.499 -11.5s-74.166 -16.5 -95.499 -26.5v81c24 11.333 57 20.166 99 26.499s79.667 9.5 113 9.5c162.667 0 244 -39.667 244 -119c0 -69.333 -62 -104.666 -186 -105.999v-2c58 0 105.5 -8.33301 142.5 -25
s55.5 -43.667 55.5 -81c0 -81.333 -82.667 -122 -248 -122z" />
    <glyph glyph-name="four.tf" horiz-adv-x="951" 
d="M475 -16c-134.667 0 -240.334 33.168 -317.001 99.501s-115 155.166 -115 266.499c0 110 38.833 198.5 116.5 265.5s182.834 100.5 315.501 100.5c136 0 242.167 -32.833 318.5 -98.5s114.5 -154.834 114.5 -267.501c0 -111.333 -38.333 -200.166 -115 -266.499
s-182.667 -99.5 -318 -99.5zM475 11.001c132 0 232.501 31.167 301.501 93.5s103.5 144.833 103.5 247.5c0 101.333 -34.833 182.833 -104.5 244.5s-169.834 92.5 -300.501 92.5c-128 0 -227.667 -31.5 -299 -94.5s-107 -145.167 -107 -246.5c0 -100 36 -181.167 108 -243.5
s171.333 -93.5 298 -93.5zM647.001 133.001h-94v76h-360v59l306 300h148v-280h63v-79h-63v-76zM553.001 514.001l-231 -226h231v226z" />
    <glyph glyph-name="five.tf" horiz-adv-x="951" 
d="M475 -16c-134.667 0 -240.334 33.168 -317.001 99.501s-115 155.166 -115 266.499c0 110 38.833 198.5 116.5 265.5s182.834 100.5 315.501 100.5c136 0 242.167 -32.833 318.5 -98.5s114.5 -154.834 114.5 -267.501c0 -111.333 -38.333 -200.166 -115 -266.499
s-182.667 -99.5 -318 -99.5zM476 11.001c132 0 232.501 31.167 301.501 93.5s103.5 144.833 103.5 247.5c0 101.333 -34.833 182.833 -104.5 244.5s-169.834 92.5 -300.501 92.5c-128 0 -227.667 -31.5 -299 -94.5s-107 -145.167 -107 -246.5c0 -100 36 -181.167 108 -243.5
s171.333 -93.5 298 -93.5zM465.001 119.001c-82 0 -149.001 12.001 -201.001 36.001v87c54 -29.333 122.333 -44 205 -44c46.667 0 83 6.16699 109 18.5s39 29.5 39 51.5c0 46.667 -47.333 70 -142 70c-54 0 -109.333 -12.333 -166 -37l-45 41l31 222h400v-79h-330l-20 -102
c40.667 18.667 97.334 28 170.001 28c59.333 0 106.833 -11.833 142.5 -35.5s53.5 -59.834 53.5 -108.501c0 -46.667 -22 -83 -66 -109s-104 -39 -180 -39z" />
    <glyph glyph-name="six.tf" horiz-adv-x="951" 
d="M475 -16c-134.667 0 -240.334 33.168 -317.001 99.501s-115 155.166 -115 266.499c0 110 38.833 198.5 116.5 265.5s182.834 100.5 315.501 100.5c136 0 242.167 -32.833 318.5 -98.5s114.5 -154.834 114.5 -267.501c0 -111.333 -38.333 -200.166 -115 -266.499
s-182.667 -99.5 -318 -99.5zM476 11.001c132 0 232.501 31.167 301.501 93.5s103.5 144.833 103.5 247.5c0 101.333 -34.833 182.833 -104.5 244.5s-169.834 92.5 -300.501 92.5c-128 0 -227.667 -31.5 -299 -94.5s-107 -145.167 -107 -246.5c0 -100 36 -181.167 108 -243.5
s171.333 -93.5 298 -93.5zM482.001 126.001c-78.667 0 -140.665 19.334 -185.998 58.001s-68 96.667 -68 174c0 69.333 24.167 123.166 72.5 161.499s114.833 57.5 199.5 57.5c68 0 126.667 -12 176 -36v-87c-52.667 29.333 -113 44 -181 44
c-54.667 0 -97.334 -12.333 -128.001 -37s-46 -59.667 -46 -105c51.333 42 114.666 63 189.999 63c66 0 115.5 -13.5 148.5 -40.5s49.5 -62.833 49.5 -107.5s-20 -80 -60 -106s-95.667 -39 -167 -39zM477.003 204.002c42.667 0 76.333 6.33203 101 18.999
s37 30.334 37 53.001c0 48.667 -39.667 73 -119 73c-29.333 0 -60 -5.5 -92 -16.5s-56.333 -25.167 -73 -42.5c8.66699 -26.667 25.667 -47.667 51 -63s57 -23 95 -23z" />
    <glyph glyph-name="seven.tf" horiz-adv-x="951" 
d="M475 -16c-134.667 0 -240.334 33.168 -317.001 99.501s-115 155.166 -115 266.499c0 110 38.833 198.5 116.5 265.5s182.834 100.5 315.501 100.5c136 0 242.167 -32.833 318.5 -98.5s114.5 -154.834 114.5 -267.501c0 -111.333 -38.333 -200.166 -115 -266.499
s-182.667 -99.5 -318 -99.5zM475 11.001c132 0 232.501 31.167 301.501 93.5s103.5 144.833 103.5 247.5c0 101.333 -34.833 182.833 -104.5 244.5s-169.834 92.5 -300.501 92.5c-128 0 -227.667 -31.5 -299 -94.5s-107 -145.167 -107 -246.5c0 -100 36 -181.167 108 -243.5
s171.333 -93.5 298 -93.5zM452.001 133.001h-123l286 356h-358v79h491v-40z" />
    <glyph glyph-name="eight.tf" horiz-adv-x="951" 
d="M475 -16c-134.667 0 -240.334 33.168 -317.001 99.501s-115 155.166 -115 266.499c0 110 38.833 198.5 116.5 265.5s182.834 100.5 315.501 100.5c136 0 242.167 -32.833 318.5 -98.5s114.5 -154.834 114.5 -267.501c0 -111.333 -38.333 -200.166 -115 -266.499
s-182.667 -99.5 -318 -99.5zM476 11.001c132 0 232.501 31.167 301.501 93.5s103.5 144.833 103.5 247.5c0 101.333 -34.833 182.833 -104.5 244.5s-169.834 92.5 -300.501 92.5c-128 0 -227.667 -31.5 -299 -94.5s-107 -145.167 -107 -246.5c0 -100 36 -181.167 108 -243.5
s171.333 -93.5 298 -93.5zM234.001 246.001c0 27.333 12.501 49.5 37.501 66.5s57.5 27.833 97.5 32.5v2c-36 6.66699 -65.333 19.334 -88 38.001s-34 42 -34 70c0 38 20.333 67.5 61 88.5s97 31.5 169 31.5c69.333 0 124.833 -10.5 166.5 -31.5s62.5 -50.5 62.5 -88.5
c0 -28 -11.333 -51.333 -34 -70s-52 -31.334 -88 -38.001v-2c40 -4.66699 72.5 -15.5 97.5 -32.5s37.5 -39.167 37.5 -66.5c0 -40 -21.333 -71.167 -64 -93.5s-100.334 -33.166 -173.001 -32.499c-77.333 -0.666992 -138 10.166 -182 32.499s-66 53.5 -66 93.5z
M341.002 441.001c0 -37.333 45.334 -56 136.001 -56c90 0 135 18.667 135 56c0 18.667 -12.333 32.834 -37 42.501s-57.334 14.5 -98.001 14.5s-73.5 -4.83301 -98.5 -14.5s-37.5 -23.834 -37.5 -42.501zM328.003 252.001c0 -17.333 13 -31 39 -41s62.667 -15 110 -15
c98.667 0 148 18.667 148 56c0 36.667 -49.333 55 -148 55c-99.333 0 -149 -18.333 -149 -55z" />
    <glyph glyph-name="nine.tf" horiz-adv-x="951" 
d="M475 -16c-134.667 0 -240.334 33.168 -317.001 99.501s-115 155.166 -115 266.499c0 110 38.833 198.5 116.5 265.5s182.834 100.5 315.501 100.5c136 0 242.167 -32.833 318.5 -98.5s114.5 -154.834 114.5 -267.501c0 -111.333 -38.333 -200.166 -115 -266.499
s-182.667 -99.5 -318 -99.5zM476 11.001c132 0 232.501 31.167 301.501 93.5s103.5 144.833 103.5 247.5c0 101.333 -34.833 182.833 -104.5 244.5s-169.834 92.5 -300.501 92.5c-128 0 -227.667 -31.5 -299 -94.5s-107 -145.167 -107 -246.5c0 -100 36 -181.167 108 -243.5
s171.333 -93.5 298 -93.5zM484.001 576.001c78.667 0 140.831 -19.501 186.498 -58.501s68.5 -96.833 68.5 -173.5c0 -69.333 -24.333 -123.166 -73 -161.499s-115.334 -57.5 -200.001 -57.5c-68 0 -126.667 12 -176 36v87c52.667 -29.333 113.334 -44 182.001 -44
c54.667 0 97.167 12.333 127.5 37s45.5 59.667 45.5 105c-51.333 -42 -114.666 -63 -189.999 -63c-65.333 0 -114.666 13.5 -147.999 40.5s-50 62.833 -50 107.5s20 80 60 106s95.667 39 167 39zM489.998 497c-43.333 0 -77.3311 -6.16699 -101.998 -18.5
s-37 -29.833 -37 -52.5c0 -48.667 39.667 -73 119 -73c29.333 0 60.166 5.5 92.499 16.5s56.833 25.167 73.5 42.5c-8.66699 26 -25.834 46.667 -51.501 62s-57.167 23 -94.5 23z" />
    <glyph glyph-name="dollar.001" horiz-adv-x="863" 
d="M499 -110l-176 -0.000976562v101c-106 12.667 -194 35.334 -264 68.001v140c38 -20 92 -39.5 162 -58.5s133 -28.5 189 -28.5c95.333 0 164.5 7.33301 207.5 22s64.5 37.334 64.5 68.001c0 22.667 -12 40.667 -36 54s-55 22.666 -93 27.999s-80 9.83301 -126 13.5
s-92.167 8.83398 -138.5 15.501s-88.5 16.167 -126.5 28.5s-69 31.833 -93 58.5s-36 60 -36 100c0 60.667 26.667 108.334 80 143.001s123.333 57 210 67v125h176v-122c116 -6 207 -23.333 273 -52v-137c-37.333 18.667 -89.333 34 -156 46s-126.667 18 -180 18
c-168 0 -252 -29 -252 -87c0 -20 11.833 -35.667 35.5 -47s54.667 -19.5 93 -24.5s80.5 -9.33301 126.5 -13s92 -9.33398 138 -17.001s88.167 -17.834 126.5 -30.501s69.333 -32.5 93 -59.5s35.5 -60.167 35.5 -99.5c0 -48.667 -16.833 -89.667 -50.5 -123s-74 -57 -121 -71
s-100.833 -23.333 -161.5 -28v-98z" />
    <glyph glyph-name="Euro.001" horiz-adv-x="927" 
d="M602 -16c-119.333 0 -217.669 21.5 -295.002 64.5s-129.666 102.833 -156.999 179.5h-120v103h100v19c0 9.33301 0.333008 16.333 1 21h-101v103h121c27.333 76 79.666 135.333 156.999 178s175.333 64 294 64c116 -0.666992 214.333 -18.667 295 -54v-137
c-87.333 42.667 -185.666 64 -294.999 64c-139.333 0 -234.333 -38.333 -285 -115h423v-103h-459v-21v-19h459v-103h-425c50.667 -78 146.334 -117 287.001 -117c112.667 0 211 21.333 295 64v-137c-80.667 -35.333 -179 -53.333 -295 -54z" />
    <glyph glyph-name="brevecombcy" horiz-adv-x="0" 
d="M-254 551c-62 0 -112.833 13.668 -152.5 41.001s-59.834 63.333 -60.501 108h105c0.666992 -26.667 10.834 -46.834 30.501 -60.501s45.5 -20.5 77.5 -20.5c69.333 0 106 27 110 81h103c-0.666992 -46 -19.5 -82.333 -56.5 -109s-89.167 -40 -156.5 -40z" />
    </font>
</defs>
</svg>
