<svg width="46" height="12" viewBox="0 0 46 12" fill="none" xmlns="http://www.w3.org/2000/svg">
<path d="M0.903529 10.9414H4.90734L4.89212 10.8501L4.31362 10.8044C4.11571 10.8044 3.96348 10.7892 3.84169 10.7739C3.7199 10.7587 3.64378 10.7435 3.58289 10.7131C3.52199 10.6978 3.47632 10.6826 3.47632 10.6674C3.4611 10.6522 3.4611 10.6217 3.4611 10.5913L5.37928 1.56365H6.7494C7.26701 1.62455 7.6476 1.76156 7.86073 2.00514C8.07386 2.24871 8.24132 2.75109 8.36311 3.51228L8.39355 3.69496H8.45445L8.6828 1.42664H1.19278L0.492491 3.69496H0.568609L0.690398 3.49705C1.07099 2.87288 1.42113 2.40095 1.7256 2.09648C2.03008 1.79201 2.41067 1.62455 2.85215 1.56365H4.40496L2.51723 10.5456C2.48679 10.6674 2.22798 10.7587 1.7256 10.7892L0.9492 10.8501L0.903529 10.9414ZM12.2668 11.1241C12.7387 11.1241 13.3477 10.3934 14.0936 8.93189L14.0023 8.88622L12.8605 10.6217L12.1298 10.5304L13.302 7.60743C13.8348 6.28298 14.1088 5.50657 14.1088 5.29344C14.1088 5.04986 14.0023 4.83673 13.8044 4.6236C13.6065 4.41047 13.4238 4.3039 13.2411 4.3039C12.8757 4.3039 12.5408 4.47136 12.2211 4.80628C11.9166 5.11076 11.5056 5.64358 10.9728 6.41999C10.4399 7.21162 9.96801 7.98802 9.5722 8.76443L9.48085 8.73398C9.96801 7.54654 10.6987 5.23255 11.7035 1.82245L11.9928 0.84814L9.72443 1.10694L9.69398 1.19828L10.9119 1.24395C11.0184 1.24395 11.0489 1.36574 10.988 1.5941L10.6683 2.72065C10.4552 3.48183 10.1659 4.42569 9.831 5.55224C9.48085 6.69401 9.17638 7.6531 8.9328 8.41428L8.06506 10.911L8.82624 10.9871L9.37429 9.54083C9.99846 8.20115 10.6531 7.0746 11.3229 6.16119C11.9928 5.24777 12.4647 4.79106 12.7235 4.79106C12.8909 4.79106 13.028 4.85195 13.1497 4.9433C13.2715 5.04986 13.3324 5.17165 13.3324 5.32389C13.3324 5.47612 13.0584 6.2373 12.5408 7.60743C12.419 7.94235 12.2516 8.35339 12.0384 8.85577C11.8253 9.35815 11.6731 9.75396 11.5665 10.0432C11.4447 10.3325 11.399 10.4999 11.399 10.5456C11.399 10.6522 11.5056 10.7739 11.7187 10.911C11.9319 11.0632 12.1145 11.1241 12.2668 11.1241ZM16.3353 11.1241C17.1574 11.1241 17.9794 10.4086 18.8015 8.96233L18.695 8.91666C18.3296 9.52561 17.9947 9.95187 17.6902 10.1954C17.3857 10.4543 17.0356 10.576 16.6702 10.576C16.2744 10.576 15.9699 10.4086 15.7568 10.0737C15.5437 9.73874 15.4371 9.29725 15.4371 8.7492C15.4371 8.27727 15.5132 7.77489 15.6807 7.22684C16.9747 7.02893 17.9338 6.77013 18.5579 6.45044C19.1669 6.14596 19.4866 5.73493 19.4866 5.24777C19.4866 4.97374 19.3496 4.74539 19.0908 4.56271C18.8167 4.38002 18.497 4.28868 18.1165 4.28868C17.5684 4.28868 17.0204 4.53226 16.4723 4.98897C15.9243 5.4609 15.4828 6.06984 15.1478 6.80058C14.7977 7.53131 14.6302 8.27727 14.6302 9.02323C14.6302 9.61695 14.7825 10.1193 15.087 10.5151C15.3914 10.9262 15.8025 11.1241 16.3353 11.1241ZM15.772 7.0746L15.7416 7.05938C16.046 6.16119 16.4266 5.47612 16.9138 4.98897C17.3096 4.6236 17.6445 4.42569 17.949 4.42569C18.1774 4.42569 18.36 4.50181 18.497 4.65405C18.6188 4.80628 18.695 4.98897 18.695 5.2021C18.695 5.7197 18.4818 6.11552 18.0708 6.38954C17.6597 6.66357 16.8986 6.89192 15.772 7.0746ZM21.7542 10.9414H28.4221L29.4117 8.30772L29.3051 8.29249L29.1985 8.4904C28.7571 9.25158 28.3308 9.83008 27.935 10.2107C27.5239 10.5913 26.9911 10.7892 26.3365 10.7892L24.0682 10.7283L25.9559 1.82245C25.9711 1.70066 26.2299 1.62455 26.7475 1.57887L27.661 1.51798L27.7219 1.42664H23.7789L23.7942 1.51798L24.1595 1.56365C24.5858 1.62455 24.8294 1.65499 24.9055 1.67022C24.9816 1.70066 25.012 1.73111 25.012 1.77678L23.1548 10.5304C23.1243 10.6522 22.8655 10.7283 22.3631 10.7892L21.7999 10.8501L21.7542 10.9414ZM33.9079 11.1393C34.5016 11.1393 35.1714 10.4086 35.9022 8.93189L35.8108 8.88622L34.6995 10.6217L34.0144 10.5456L34.9279 7.63788L36.0696 4.33435L35.3085 4.27346L34.867 5.73493H34.8517C34.8517 4.82151 34.5625 4.3648 33.984 4.3648C33.5577 4.3648 33.1467 4.57793 32.7204 5.00419C32.0963 5.62836 31.5178 6.38954 31.0002 7.28774C30.4826 8.18593 30.2238 9.00801 30.2238 9.75396C30.2238 10.165 30.3303 10.4999 30.5739 10.7435C30.8023 10.9871 31.0915 11.1089 31.4264 11.1089C31.7918 11.1089 32.1572 10.8957 32.5378 10.439C32.9183 9.99754 33.4207 9.23636 34.0449 8.17071H34.0753C33.6491 9.23636 33.4512 9.89098 33.4512 10.1346C33.4512 10.3934 33.4816 10.6217 33.573 10.8348C33.6643 11.048 33.7709 11.1393 33.9079 11.1393ZM31.8375 10.4847C31.6243 10.4847 31.4264 10.4086 31.2742 10.2259C31.122 10.0432 31.0458 9.78441 31.0458 9.41904C31.0458 8.76443 31.2133 8.00325 31.5787 7.1355C31.9288 6.26775 32.3094 5.62836 32.7357 5.2021C33.0097 4.92807 33.2837 4.79106 33.5577 4.79106C33.8774 4.79106 34.1362 4.9433 34.3494 5.21732C34.5473 5.50657 34.6538 5.79582 34.6538 6.08507C34.6538 6.45044 34.532 6.8767 34.2885 7.36385C33.2533 9.44949 32.4312 10.4847 31.8375 10.4847ZM38.0525 11.1241C38.5397 11.1241 39.0116 10.9566 39.4379 10.5913C39.8641 10.2259 40.062 9.79963 40.062 9.29725C40.062 9.03845 39.9707 8.76443 39.8185 8.47518C39.6662 8.20115 39.3161 7.79011 38.768 7.25729C38.1286 6.64834 37.7937 6.13074 37.7937 5.73493C37.7785 5.36956 37.8851 5.06509 38.1286 4.80628C38.357 4.54748 38.6767 4.41047 39.0725 4.41047C39.4683 4.41047 39.8185 4.60838 40.1077 4.98897C39.7728 5.09553 39.6053 5.29344 39.6053 5.58269C39.6053 5.73493 39.6358 5.85671 39.7271 5.94806C39.8185 6.0394 39.925 6.08507 40.0773 6.08507C40.2143 6.08507 40.3361 6.0394 40.4426 5.91761C40.5492 5.81104 40.5949 5.65881 40.5949 5.47612C40.5796 5.11076 40.4426 4.82151 40.1838 4.60838C39.9098 4.39525 39.5444 4.28868 39.0725 4.28868C38.6158 4.28868 38.1743 4.47136 37.7785 4.82151C37.3674 5.18687 37.1695 5.59791 37.1848 6.06984C37.1848 6.31342 37.2457 6.54178 37.3674 6.77013C37.4892 7.01371 37.611 7.19639 37.7328 7.33341C37.8546 7.48564 38.0677 7.68355 38.3418 7.95758C38.3418 7.9728 38.4027 8.03369 38.5244 8.15548C38.6462 8.27727 38.7071 8.35339 38.7376 8.38384C38.768 8.41428 38.8289 8.4904 38.9203 8.59697C39.0116 8.70353 39.0877 8.77965 39.1182 8.84055C39.1486 8.90144 39.1943 8.99278 39.2552 9.08412C39.3161 9.17547 39.3465 9.26681 39.377 9.35815C39.3922 9.44949 39.4074 9.54083 39.4074 9.63217C39.4074 9.98232 39.3008 10.302 39.0725 10.5913C38.8441 10.8805 38.5092 11.0175 38.0525 11.0175C37.5349 11.0175 37.0782 10.7892 36.6824 10.3172C36.8194 10.2716 36.9412 10.1954 37.0478 10.0737C37.1391 9.96709 37.2 9.8453 37.2 9.70829C37.2 9.57128 37.1543 9.44949 37.063 9.35815C36.9716 9.26681 36.8498 9.20591 36.7128 9.20591C36.5758 9.20591 36.454 9.26681 36.3627 9.3886C36.2561 9.51039 36.2105 9.66262 36.2105 9.8453C36.2105 10.2411 36.3779 10.5456 36.7433 10.7739C37.0934 11.0175 37.5349 11.1241 38.0525 11.1241ZM41.8162 11.1241C42.2881 11.1241 42.8819 10.3934 43.6126 8.93189L43.5212 8.88622L42.4251 10.6217L41.6183 10.5304L43.3081 4.9433H44.6478L44.7696 4.53226L43.4451 4.51703L44.0845 2.44662H43.3386L42.6992 4.51703L41.6183 4.53226L41.4813 4.92807L42.5622 4.9433L40.8876 10.4999C40.8419 10.6217 40.9485 10.7435 41.192 10.8957C41.4356 11.048 41.6487 11.1241 41.8162 11.1241ZM44.8804 11.1545C45.0631 11.1545 45.2153 11.0936 45.3371 10.9566C45.4589 10.8196 45.535 10.6522 45.535 10.4695C45.535 10.302 45.4741 10.1498 45.3524 10.0128C45.2306 9.89098 45.0783 9.81486 44.8956 9.81486C44.6977 9.81486 44.5303 9.89098 44.3933 10.0128C44.2563 10.1498 44.1954 10.302 44.1954 10.4695C44.1954 10.6522 44.2563 10.8196 44.3933 10.9566C44.5151 11.0936 44.6825 11.1545 44.8804 11.1545Z" fill="white"/>
</svg>
